<svg  viewBox="0 0 24 44" fill="none" xmlns="http://www.w3.org/2000/svg">
<path fill-rule="evenodd" clip-rule="evenodd" d="M16.5134 22H8.16555C5.09919 22 2.74679 20.8925 3.41498 16.4348L4.19301 10.3936C4.60491 8.16937 6.02367 7.31812 7.26852 7.31812H17.447C18.7102 7.31812 20.0466 8.23345 20.5225 10.3936L21.3006 16.4348C21.8681 20.3891 19.5797 22 16.5134 22Z" stroke="#0F0D01" stroke-linecap="round" stroke-linejoin="round"/>
<path d="M16.6512 7.09848C16.6512 4.71241 14.7169 2.77812 12.3309 2.77812V2.77812C11.1819 2.77325 10.0782 3.22628 9.26406 4.03703C8.44987 4.84778 7.99218 5.94947 7.99219 7.09848H7.99219" stroke="#0F0D01"  stroke-linecap="round" stroke-linejoin="round"/>
<path fill-rule="evenodd" clip-rule="evenodd" d="M15.297 11.602H15.2512H15.297Z" fill="#0F0D01"/>
<path d="M15.297 11.602H15.2512" stroke="#0F0D01"  stroke-linecap="round" stroke-linejoin="round"/>
<path fill-rule="evenodd" clip-rule="evenodd" d="M9.46492 11.602H9.41916H9.46492Z" fill="#0F0D01"/>
<path d="M9.46492 11.602H9.41916" stroke="#0F0D01"  stroke-linecap="round" stroke-linejoin="round"/>
<path d="M9.092 38.22C9.092 38.712 8.732 40.5 5.684 40.5H2.48V31.716H5.684C8.384 31.716 8.708 33.624 8.708 34.008C8.708 35.22 7.904 35.772 7.184 36.024C8.048 36.228 9.092 36.768 9.092 38.22ZM5.492 32.136H3.8V35.76H5.744C6.464 35.76 7.4 35.22 7.4 34.068C7.4 32.832 6.596 32.136 5.492 32.136ZM7.64 38.16C7.64 36.348 5.732 36.18 5.36 36.18H3.8V40.032H5.684C5.684 40.032 7.64 39.984 7.64 38.16ZM12.4679 34.44C14.1959 34.44 14.8079 35.148 14.8079 36.264L14.7959 40.5H13.5959V39.612C12.9599 40.596 9.81594 41.652 9.81594 38.976C9.81594 36.888 11.9879 37.104 13.5959 36.504V35.916C13.5959 35.172 13.2839 34.812 12.4919 34.812C12.0839 34.812 11.2079 34.776 10.6079 35.652L10.2719 35.556C10.7999 34.596 11.7359 34.44 12.4679 34.44ZM11.1239 38.868C11.1239 40.464 12.5159 40.548 13.5959 39.288V36.852C12.3839 37.236 11.1239 37.236 11.1239 38.868ZM18.5651 39.144C19.7171 39.144 21.4091 39 21.4091 41.124C21.4091 41.988 21.0611 43.152 18.5891 43.152C16.3451 43.152 15.7691 42.36 15.7691 41.604C15.7691 40.86 16.3451 40.488 16.8611 40.308C16.4051 40.308 15.7691 39.888 15.7691 39.084C15.7691 38.04 16.5971 37.728 16.8491 37.668C16.5611 37.356 16.3931 36.936 16.3931 36.372C16.3931 35.1 17.3651 34.488 18.4931 34.488C18.8771 34.488 19.2491 34.56 19.5731 34.704H21.2291V35.16H20.1851C20.4371 35.46 20.5931 35.868 20.5931 36.372C20.5931 37.692 19.6211 38.268 18.4931 38.268C17.9531 38.268 17.4131 38.112 17.1251 37.896C16.9331 37.956 16.2851 38.052 16.3451 38.664C16.4171 39.228 17.8931 39.144 18.5651 39.144ZM18.4931 34.764C17.7491 34.764 17.5211 35.22 17.5211 36.372C17.5211 37.584 17.7491 37.956 18.4931 37.956C19.2371 37.956 19.4051 37.584 19.4051 36.372C19.4051 35.208 19.2371 34.764 18.4931 34.764ZM18.5891 42.852C20.6651 42.852 21.0011 42.12 21.0011 41.34C21.0011 40.56 20.3051 40.308 19.2011 40.308H17.9291C17.1611 40.308 16.8131 40.884 16.8131 41.592C16.8131 42.204 17.3291 42.852 18.5891 42.852Z" fill="#0F0D01"/>
</svg>
