<svg width="23" height="23" viewBox="0 0 23 23" fill="none" xmlns="http://www.w3.org/2000/svg">
<g id="bi:heart" clip-path="url(#clip0_393_934)">
<path id="Vector" d="M11.1716 4.56604L10.1862 3.55323C7.87337 1.17578 3.63244 1.99621 2.10153 4.98519C1.3828 6.39104 1.22064 8.4208 2.53305 11.0113C3.79735 13.5055 6.42766 16.4931 11.1716 19.7473C15.9155 16.4931 18.5444 13.5055 19.8101 11.0113C21.1225 8.41943 20.9617 6.39104 20.2416 4.98519C18.7107 1.99621 14.4697 1.17441 12.1569 3.55185L11.1716 4.56604ZM11.1716 21.4033C-9.89975 7.47944 4.68374 -3.38809 10.9297 2.36038C11.0121 2.43596 11.0932 2.5143 11.1716 2.59538C11.2491 2.51437 11.3298 2.43644 11.4134 2.36175C17.658 -3.39084 32.2429 7.47807 11.1716 21.4033Z" fill="#403F3D"/>
</g>
<defs>
<clipPath id="clip0_393_934">
<rect width="21.9879" height="21.9879" fill="white" transform="translate(0.177734 0.789551)"/>
</clipPath>
</defs>
</svg>
