<svg viewBox="0 0 74 75" fill="none" xmlns="http://www.w3.org/2000/svg">
<path d="M51.9227 44.9905C51.121 44.4047 50.011 43.048 49.4868 42.4005C53.156 37.2514 58.5827 27.5697 58.5827 15.6372C58.5827 9.62471 56.301 6.38721 52.416 6.38721C47.6677 6.38721 40.206 12.7389 36.9993 24.7947C33.7927 12.7389 26.331 6.38721 21.5827 6.38721C17.6977 6.38721 15.416 9.62471 15.416 15.6372C15.416 27.5697 20.8427 37.2514 24.5118 42.4005C23.9877 43.048 22.8777 44.4047 22.076 44.9905C20.5343 46.2547 16.9577 49.2147 16.9577 54.1789C16.9577 60.993 22.4768 66.5122 29.291 66.5122C34.0702 66.5122 36.9993 64.7855 36.9993 64.7855C36.9993 64.7855 39.9285 66.5122 44.7077 66.5122C51.5219 66.5122 57.041 60.993 57.041 54.1789C57.041 49.2147 53.4644 46.2547 51.9227 44.9905ZM28.8285 37.8372C25.7144 33.2122 21.5827 25.2572 21.5827 15.6372C21.5827 14.1264 21.7677 13.1705 21.9527 12.6464C24.851 13.6022 31.9427 21.0022 32.3743 36.203C30.9252 36.573 29.7844 37.128 28.8285 37.8372ZM32.3743 51.8664C31.511 51.8664 30.8327 50.818 30.8327 49.5539C30.8327 48.2897 31.511 47.2414 32.3743 47.2414C33.2377 47.2414 33.916 48.2897 33.916 49.5539C33.916 50.818 33.2377 51.8664 32.3743 51.8664ZM36.9993 60.3455C35.3035 60.3455 33.916 58.1255 33.916 57.2622C33.916 56.3989 35.3035 55.7205 36.9993 55.7205C38.6952 55.7205 40.0827 56.3989 40.0827 57.2622C40.0827 58.1255 38.6952 60.3455 36.9993 60.3455ZM41.6243 51.8664C40.761 51.8664 40.0827 50.818 40.0827 49.5539C40.0827 48.2897 40.761 47.2414 41.6243 47.2414C42.4877 47.2414 43.166 48.2897 43.166 49.5539C43.166 50.818 42.4877 51.8664 41.6243 51.8664ZM41.6243 36.203C42.056 21.0022 49.1477 13.6022 52.046 12.6464C52.231 13.1705 52.416 14.1264 52.416 15.6372C52.416 25.2572 48.2844 33.2122 45.1702 37.8372C44.2143 37.128 43.0735 36.573 41.6243 36.203Z" fill="#C94726"/>
</svg>
