<svg  viewBox="0 0 16 17" fill="none" xmlns="http://www.w3.org/2000/svg">
<g clip-path="url(#clip0_440_111103)">
<path fill-rule="evenodd" clip-rule="evenodd" d="M8.47221 10.9712C8.34719 11.0962 8.17766 11.1664 8.00088 11.1664C7.8241 11.1664 7.65456 11.0962 7.52955 10.9712L3.75821 7.1999C3.69454 7.13841 3.64375 7.06484 3.60881 6.98351C3.57387 6.90217 3.55548 6.81469 3.55471 6.72617C3.55394 6.63765 3.57081 6.54986 3.60433 6.46793C3.63785 6.386 3.68735 6.31157 3.74995 6.24897C3.81254 6.18638 3.88698 6.13688 3.96891 6.10336C4.05084 6.06983 4.13863 6.05297 4.22715 6.05374C4.31567 6.05451 4.40315 6.0729 4.48448 6.10784C4.56582 6.14277 4.63938 6.19356 4.70088 6.25724L8.00088 9.55724L11.3009 6.25724C11.4266 6.1358 11.595 6.0686 11.7698 6.07012C11.9446 6.07164 12.1118 6.14175 12.2354 6.26536C12.359 6.38896 12.4291 6.55617 12.4307 6.73097C12.4322 6.90577 12.365 7.07417 12.2435 7.1999L8.47221 10.9712Z" fill="#403F3D"/>
</g>
<defs>
<clipPath id="clip0_440_111103">
<rect width="16" height="16" fill="white" transform="translate(0 0.5)"/>
</clipPath>
</defs>
</svg>
