<svg width="33" height="33" viewBox="0 0 33 33" fill="none" xmlns="http://www.w3.org/2000/svg">
<path d="M10.749 3.86816H21.949C26.2156 3.86816 29.6823 7.33483 29.6823 11.6015V22.8015C29.6823 24.8525 28.8675 26.8195 27.4173 28.2698C25.967 29.7201 24 30.5348 21.949 30.5348H10.749C6.48229 30.5348 3.01562 27.0682 3.01562 22.8015V11.6015C3.01563 9.55049 3.83038 7.58349 5.28067 6.13321C6.73095 4.68292 8.69795 3.86816 10.749 3.86816ZM10.4823 6.53483C9.20925 6.53483 7.98835 7.04054 7.08818 7.94072C6.188 8.84089 5.68229 10.0618 5.68229 11.3348V23.0682C5.68229 25.7215 7.82896 27.8682 10.4823 27.8682H22.2156C23.4887 27.8682 24.7096 27.3625 25.6097 26.4623C26.5099 25.5621 27.0156 24.3412 27.0156 23.0682V11.3348C27.0156 8.6815 24.869 6.53483 22.2156 6.53483H10.4823ZM23.349 8.53483C23.791 8.53483 24.2149 8.71043 24.5275 9.02299C24.84 9.33555 25.0156 9.75947 25.0156 10.2015C25.0156 10.6435 24.84 11.0674 24.5275 11.38C24.2149 11.6926 23.791 11.8682 23.349 11.8682C22.9069 11.8682 22.483 11.6926 22.1704 11.38C21.8579 11.0674 21.6823 10.6435 21.6823 10.2015C21.6823 9.75947 21.8579 9.33555 22.1704 9.02299C22.483 8.71043 22.9069 8.53483 23.349 8.53483ZM16.349 10.5348C18.1171 10.5348 19.8128 11.2372 21.063 12.4875C22.3132 13.7377 23.0156 15.4334 23.0156 17.2015C23.0156 18.9696 22.3132 20.6653 21.063 21.9155C19.8128 23.1658 18.1171 23.8682 16.349 23.8682C14.5808 23.8682 12.8852 23.1658 11.6349 21.9155C10.3847 20.6653 9.68229 18.9696 9.68229 17.2015C9.68229 15.4334 10.3847 13.7377 11.6349 12.4875C12.8852 11.2372 14.5808 10.5348 16.349 10.5348ZM16.349 13.2015C15.2881 13.2015 14.2707 13.6229 13.5205 14.3731C12.7704 15.1232 12.349 16.1406 12.349 17.2015C12.349 18.2624 12.7704 19.2798 13.5205 20.0299C14.2707 20.7801 15.2881 21.2015 16.349 21.2015C17.4098 21.2015 18.4272 20.7801 19.1774 20.0299C19.9275 19.2798 20.349 18.2624 20.349 17.2015C20.349 16.1406 19.9275 15.1232 19.1774 14.3731C18.4272 13.6229 17.4098 13.2015 16.349 13.2015Z" fill="#0F0D01"/>
</svg>
