<svg width="33" height="33" viewBox="0 0 33 33" fill="none" xmlns="http://www.w3.org/2000/svg">
<path d="M16.349 3.9209C9.01562 3.9209 3.01562 9.90757 3.01562 17.2809C3.01562 23.9476 7.89562 29.4809 14.269 30.4809V21.1476H10.8823V17.2809H14.269V14.3342C14.269 10.9876 16.2556 9.14757 19.309 9.14757C20.7623 9.14757 22.2823 9.4009 22.2823 9.4009V12.6942H20.6023C18.949 12.6942 18.429 13.7209 18.429 14.7742V17.2809H22.1356L21.5356 21.1476H18.429V30.4809C21.5709 29.9847 24.4319 28.3816 26.4955 25.961C28.5592 23.5404 29.6894 20.4618 29.6823 17.2809C29.6823 9.90757 23.6823 3.9209 16.349 3.9209Z" fill="#0F0D01"/>
</svg>
