<svg width="33" height="33" viewBox="0 0 33 33" fill="none" xmlns="http://www.w3.org/2000/svg">
<path d="M12.4023 29.9215C13.6823 30.3082 14.9756 30.5348 16.349 30.5348C19.8852 30.5348 23.2766 29.1301 25.7771 26.6296C28.2775 24.1291 29.6823 20.7377 29.6823 17.2015C29.6823 15.4505 29.3374 13.7167 28.6674 12.0991C27.9973 10.4814 27.0152 9.01152 25.7771 7.77341C24.5389 6.53529 23.0691 5.55317 21.4514 4.8831C19.8337 4.21304 18.0999 3.86816 16.349 3.86816C14.598 3.86816 12.8642 4.21304 11.2465 4.8831C9.62884 5.55317 8.15898 6.53529 6.92087 7.77341C4.42038 10.2739 3.01563 13.6653 3.01562 17.2015C3.01563 22.8682 6.57562 27.7348 11.6023 29.6548C11.4823 28.6148 11.3623 26.8948 11.6023 25.7082L13.1356 19.1215C13.1356 19.1215 12.749 18.3482 12.749 17.1215C12.749 15.2815 13.8956 13.9082 15.2023 13.9082C16.349 13.9082 16.8823 14.7482 16.8823 15.8282C16.8823 16.9748 16.1223 18.6148 15.7356 20.1882C15.509 21.4948 16.429 22.6415 17.7623 22.6415C20.1356 22.6415 21.9756 20.1082 21.9756 16.5348C21.9756 13.3348 19.6823 11.1482 16.389 11.1482C12.629 11.1482 10.4156 13.9482 10.4156 16.8948C10.4156 18.0415 10.789 19.2015 11.4023 19.9615C11.5223 20.0415 11.5223 20.1482 11.4823 20.3482L11.0956 21.8015C11.0956 22.0282 10.949 22.1082 10.7223 21.9482C9.01563 21.2015 8.02896 18.7748 8.02896 16.8148C8.02896 12.6015 11.0156 8.77483 16.7756 8.77483C21.3623 8.77483 24.9356 12.0682 24.9356 16.4415C24.9356 21.0282 22.0956 24.7082 18.029 24.7082C16.7356 24.7082 15.469 24.0148 15.0156 23.2015L14.1223 26.3615C13.8156 27.5082 12.9756 29.0415 12.4023 29.9615V29.9215Z" fill="#0F0D01"/>
</svg>
