<svg width="142" height="197" viewBox="0 0 142 197" fill="none" xmlns="http://www.w3.org/2000/svg">
<g opacity="0.2">
<path d="M69.3871 196.999C69.4595 192.781 69.5026 188.563 69.6119 184.346C69.7096 180.573 69.842 176.799 70.0313 173.029C70.1553 170.557 70.33 168.082 70.6194 165.622C71.0404 162.043 71.8131 158.516 72.7951 155.026C73.8072 151.427 74.7608 147.815 75.5027 144.161C75.9968 141.726 76.3393 139.272 76.6372 136.81C76.9135 134.52 76.9866 132.223 77.1067 129.927C77.1944 128.245 77.0397 126.565 76.9573 124.887C76.935 124.426 76.7657 123.962 76.6087 123.516C75.7475 121.065 74.7246 118.679 72.9998 116.602C69.5503 112.45 65.4112 109.034 60.2754 106.65C55.7522 104.549 51.0597 102.885 46.1024 101.858C44.1452 101.453 42.168 101.146 40.1608 101.027C39.5466 100.991 38.9424 100.886 38.3229 100.866C34.8595 100.758 31.4769 101.231 28.1367 102.006C26.819 102.313 25.5237 102.689 24.2353 103.087C21.8772 103.814 19.786 104.994 17.6957 106.184C15.2767 107.562 12.9678 109.097 10.4741 110.366C8.77861 111.23 7.10079 112.124 5.19978 112.599C4.12921 112.867 3.0317 112.928 1.94266 113.057C1.48472 113.112 1.03523 113.019 0.599612 112.9C-0.0553535 112.723 -0.200815 112.185 0.297914 111.76C0.508026 111.581 0.76894 111.448 1.01523 111.308C2.08965 110.699 3.13483 110.055 4.11843 109.327C5.79009 108.089 7.19546 106.64 8.50308 105.083C12.6499 100.141 17.3163 95.6298 22.5906 91.6716C25.5476 89.4525 28.7339 87.5133 32.3766 86.3031C34.5054 85.5958 36.6535 84.948 38.8893 84.5569C40.9789 84.1917 43.0623 84.1337 45.1711 84.3939C49.5181 84.9312 53.5087 86.324 57.1545 88.5158C60.0591 90.262 62.4003 92.5272 64.396 95.1184C66.2686 97.5495 67.7247 100.169 68.9885 102.892C70.5254 106.205 71.7392 109.629 73.2215 112.96C74.1335 115.01 75.1772 117.006 76.2354 118.996C76.3032 119.123 76.4009 119.238 76.5787 119.494C76.611 118.303 76.4163 117.285 76.3278 116.262C76.2008 114.794 76.0061 113.331 75.8275 111.867C75.6059 110.052 75.3765 108.236 75.1402 106.422C74.8547 104.228 74.553 102.034 74.2667 99.8406C74.0227 97.9678 73.781 96.095 73.5555 94.2209C73.3901 92.8441 73.2477 91.4645 73.1053 90.0857C72.9206 88.2961 72.7366 86.5066 72.5704 84.7157C72.4095 82.9828 72.2748 81.2486 72.1217 79.5151C71.9524 77.6059 71.7707 75.6975 71.6037 73.7883C71.5083 72.7012 71.4298 71.6126 71.3443 70.5248C71.2281 69.055 71.1127 67.5851 70.9934 66.1153C70.9842 65.9992 70.9518 65.8852 70.9211 65.718C70.3915 65.3773 69.8397 65.0212 69.3117 64.6812C68.9431 64.6917 68.7622 64.9219 68.5505 65.0954C64.7885 68.1812 60.3916 70.0477 55.3989 70.7948C53.3801 71.097 51.3521 71.3314 49.3087 71.2712C44.47 71.1278 39.8822 70.1127 35.713 67.7964C33.5265 66.582 31.7224 64.9701 30.1723 63.1309C28.3722 60.9951 26.7898 58.7348 25.6384 56.2429C25.3236 55.5629 25.0681 54.8675 24.8826 54.1484C24.7841 53.7678 24.7795 53.3858 24.8049 53.0053C24.8364 52.5267 24.948 52.44 25.5168 52.3463C25.6315 52.3274 25.7638 52.3742 25.8739 52.2364C25.7785 52.1273 25.6853 52.0091 25.5799 51.9013C22.8061 49.054 21.1275 45.7017 20.1408 42.0443C19.5775 39.9553 19.2827 37.83 19.1126 35.6795C18.9517 33.6417 18.9741 31.6178 19.1134 29.5841C19.3135 26.6529 19.0633 23.7566 18.1005 20.9352C17.992 20.6169 17.932 20.3077 18.0605 19.9558C18.5061 19.6417 18.9718 19.762 19.3858 20.0139C19.8153 20.2748 20.2163 20.5813 20.5957 20.901C22.4536 22.4631 24.3077 24.0302 26.1494 25.6084C27.9512 27.1524 29.8714 28.5473 32.0695 29.6051C32.2127 29.6737 32.3528 29.7492 32.4998 29.8115C32.5536 29.8339 32.6221 29.8269 32.6914 29.8346C32.8669 29.5526 32.7668 29.2616 32.706 28.9776C32.5552 28.2731 32.5975 27.5735 32.6922 26.8669C32.8715 25.5245 33.0524 24.1841 33.3417 22.8556C33.6765 21.3186 34.1553 19.8222 34.8218 18.3825C36.3695 15.0434 37.8965 11.698 39.2249 8.27987C39.3973 7.83634 39.6082 7.40261 39.8445 6.98426C40.0361 6.64567 40.2577 6.31057 40.5263 6.01955C41.4391 5.03104 42.4358 5.06602 43.2401 6.11818C43.6095 6.60159 43.9297 7.11718 44.2445 7.63207C45.0334 8.92139 45.8807 10.1764 46.7928 11.3972C47.7579 12.6893 48.6353 14.0318 49.378 15.4324C49.6043 15.396 49.6605 15.2617 49.7105 15.1245C51.0982 11.3153 53.661 8.2547 57.0128 5.70893C58.1573 4.83936 59.3472 4.01804 60.5317 3.19254C61.2012 2.72593 61.9132 2.31317 62.722 2.06132C63.6995 1.75701 64.2483 1.94941 64.7216 2.77561C65.0556 3.35836 65.2157 3.98517 65.2903 4.63508C65.3535 5.18775 65.4312 5.73832 65.5081 6.33016C65.9661 6.2707 66.2462 6.01255 66.5418 5.81457C67.4046 5.23812 68.2373 4.62599 69.0939 4.04184C69.4295 3.81238 69.7781 3.58922 70.1506 3.41503C71.1204 2.9617 71.9585 3.12329 72.6689 3.88653C72.9183 4.15377 73.1268 4.45248 73.3493 4.73021C73.6048 4.63437 73.7326 4.45668 73.8603 4.29018C75.0363 2.7651 76.6118 1.63738 78.2881 0.611102C78.6105 0.413821 78.9492 0.24173 79.3225 0.126299C80.1406 -0.126948 80.6755 -0.0108157 81.235 0.578928C81.3828 0.734234 81.5067 0.909823 81.6268 1.08472C83.801 4.24891 85.595 7.5698 86.6541 11.1922C86.6949 11.3314 86.7411 11.4693 86.7826 11.5987C87.0989 11.6449 87.3075 11.4825 87.5345 11.3888C88.9222 10.8158 90.3314 10.2884 91.7968 9.90499C94.1404 9.29146 96.3685 8.41629 98.5766 7.49214C99.7242 7.01153 100.857 6.49946 102.048 6.1105C102.633 5.91951 103.225 5.81877 103.853 5.80898C104.656 5.79639 105.124 6.15176 105.409 6.78488C105.421 6.81216 105.431 6.84014 105.44 6.86883C106.5 10.3772 108.385 13.5855 109.871 16.9386C110.089 17.4304 110.276 17.9326 110.501 18.4217C110.608 18.6567 110.64 18.9351 110.916 19.1569C111.28 18.9603 111.632 18.7658 111.989 18.5784C113.454 17.8109 115 17.2044 116.567 16.6356C118.824 15.8164 121.075 14.9832 123.325 14.1493C124.016 13.8933 124.717 13.6631 125.444 13.5099C126.887 13.2063 127.889 13.8667 127.988 15.2085C128.157 17.5017 128.338 19.7949 128.195 22.0972C127.975 25.6259 127.215 29.0384 125.602 32.2726C125.199 33.0806 124.695 33.8368 124.143 34.5672C123.888 34.9058 123.64 35.2486 123.391 35.5858C123.578 35.8208 123.822 35.7376 124.026 35.7348C126.428 35.7054 128.817 35.9237 131.211 36.0447C133.087 36.1399 134.965 36.2644 136.847 36.2784C137.951 36.2861 139.042 36.426 140.121 36.6317C140.373 36.6792 140.625 36.7534 140.855 36.8562C141.523 37.1556 141.773 37.6803 141.552 38.3281C141.466 38.5793 141.344 38.8269 141.196 39.0536C140.232 40.5304 139.583 42.1366 138.858 43.7121C138.308 44.9077 137.752 46.1011 137.188 47.2918C135.92 49.967 134.166 52.3672 132.151 54.6185C129.676 57.3825 126.852 59.7996 123.583 61.7773C122.284 62.5629 120.914 63.2317 119.495 63.8193C119.234 63.9278 118.941 63.9816 118.734 64.181C118.797 64.4196 119.016 64.3853 119.198 64.414C121.467 64.7764 123.672 65.3675 125.858 66.0125C128.848 66.894 131.914 67.5208 134.935 68.3008C135.888 68.5471 136.769 68.8794 137.46 69.5496C137.684 69.7671 137.898 69.9952 138.015 70.2715C138.384 71.1418 138.125 71.6 137.469 71.9372C137.272 72.0387 137.073 72.1429 136.863 72.2184C133.835 73.3112 131.077 74.8726 128.244 76.304C126.175 77.3498 124.173 78.5035 122.037 79.4395C119.447 80.5742 116.736 81.2997 113.871 81.5991C107.794 82.2336 102.308 80.8554 97.3244 77.6982C96.5817 77.2274 95.8675 76.7202 95.1471 76.2347C94.6768 76.3089 94.2335 76.3837 93.7887 76.4474C91.9608 76.709 90.1713 76.4348 88.3973 76.0808C84.466 75.2966 81.075 73.5889 78.1772 71.062C77.3075 70.303 76.5533 69.4537 75.9376 68.51C75.7313 68.1931 75.4804 67.9545 75.1071 67.8006C74.4637 67.5355 73.8342 67.2438 73.2069 66.9674C73.0237 67.1948 73.0776 67.4081 73.0953 67.6075C73.2515 69.3991 73.4178 71.1908 73.5802 72.9824C73.7349 74.6859 73.8865 76.39 74.0443 78.0935C74.2182 79.9726 74.3983 81.8509 74.5753 83.73C74.7223 85.2866 74.8539 86.8438 75.0186 88.3983C75.2457 90.539 75.485 92.679 75.7405 94.8169C76.0068 97.043 76.2932 99.2676 76.5833 101.492C76.8735 103.716 77.1875 105.937 77.4738 108.161C77.7108 110.004 77.931 111.85 78.1434 113.696C78.3289 115.308 78.4974 116.921 78.6637 118.535C78.7452 119.327 78.816 120.121 78.8738 120.915C79.1778 125.097 79.3402 129.288 79.0623 133.471C78.7106 138.775 77.8709 144.024 76.5133 149.198C75.6705 152.41 74.7916 155.614 74.0035 158.836C73.2077 162.09 72.6751 165.382 72.4488 168.715C72.2887 171.07 72.1879 173.426 72.0463 175.78C71.91 178.049 71.9947 180.323 71.7753 182.587C71.7499 182.849 71.7715 183.114 71.7715 183.507C72.6674 180.709 73.5501 178.053 74.0989 175.301C74.9532 171.02 75.7175 166.72 76.8027 162.48C77.7516 158.774 79.0246 155.158 80.7632 151.688C82.7505 147.724 85.3218 144.081 88.2326 140.632C92.5226 135.546 97.0958 130.679 102.091 126.156C106.047 122.573 109.84 118.852 113.71 115.196C114.857 114.113 115.977 113.005 117.112 111.91C117.803 111.242 118.548 110.628 119.367 110.093C119.731 109.855 120.097 109.602 120.587 109.582C120.954 109.845 120.945 110.187 120.907 110.548C120.779 111.72 120.584 112.883 120.344 114.041C119.769 116.814 119.183 119.585 118.807 122.391C118.524 124.494 118.277 126.6 118.04 128.708C117.599 132.635 116.944 136.529 115.543 140.288C115.082 141.526 114.427 142.672 113.661 143.767C111.201 147.281 108.054 150.24 104.713 153.062C101.041 156.164 96.9834 158.814 93.0075 161.562C89.7757 163.796 86.6456 166.14 83.8264 168.805C80.3492 172.092 77.2283 175.628 74.8755 179.678C73.494 182.056 72.4318 184.547 71.8184 187.189C71.7438 187.511 71.7099 187.83 71.6976 188.152C71.5891 191.1 71.4921 194.048 71.5291 196.999C71.3344 196.999 71.1396 196.999 70.9449 196.999C70.9611 196.824 70.9872 196.648 70.9911 196.472C71.0865 191.666 71.1112 186.86 71.2836 182.054C71.4413 177.663 71.5676 173.271 71.8831 168.885C72.1825 164.724 72.8929 160.623 74.0027 156.583C75.8337 149.916 77.6092 143.244 78.2688 136.373C78.5367 133.58 78.7083 130.783 78.6598 127.981C78.609 125.004 78.4266 122.029 78.1465 119.061C77.9525 117.005 77.7447 114.95 77.5038 112.898C77.2321 110.583 76.9227 108.271 76.618 105.96C76.2631 103.268 75.8799 100.579 75.5366 97.8859C75.2303 95.4857 74.9432 93.0833 74.6792 90.6789C74.4406 88.5088 74.2444 86.3352 74.0296 84.1637C73.7941 81.7873 73.5509 79.4115 73.3262 77.0343C73.1653 75.3323 73.0653 73.6246 72.8659 71.9267C72.7797 71.1929 72.7682 70.4562 72.672 69.7252C72.6043 69.2138 72.5542 68.6786 71.9739 68.3743C71.8146 68.5499 71.8808 68.7331 71.877 68.9045C71.8593 69.7909 71.9893 70.6682 72.0655 71.5497C72.2371 73.5469 72.3587 75.5477 72.5296 77.545C72.7513 80.13 72.9983 82.7128 73.2392 85.2963C73.4524 87.5868 73.6371 89.88 73.8957 92.1662C74.2274 95.0974 74.6184 98.0231 74.9886 100.95C75.4735 104.786 75.9614 108.622 76.4494 112.457C76.9381 116.295 77.2983 120.144 77.5038 124.001C77.6985 127.656 77.707 131.312 77.3714 134.964C77.1228 137.669 76.7703 140.361 76.2778 143.037C75.5758 146.848 74.5953 150.605 73.5378 154.345C72.1371 159.298 71.1435 164.306 70.7964 169.414C70.5077 173.653 70.36 177.898 70.2253 182.142C70.0791 186.74 70.0267 191.341 69.9382 195.942C69.9313 196.294 69.9605 196.647 69.9729 197C69.7766 196.999 69.5819 196.999 69.3871 196.999ZM83.4046 49.1646C83.6155 49.0764 83.6725 48.933 83.7479 48.805C84.6191 47.3212 85.3672 45.7877 86.0353 44.22C87.3845 41.0551 88.0879 37.772 88.0602 34.3839C88.0448 32.5013 87.7231 30.6328 87.3291 28.7803C86.6672 25.6686 85.6289 22.6786 83.9203 19.8978C81.86 16.5447 79.4494 13.4015 76.9743 10.2961C75.4719 8.41071 73.8234 6.61979 72.5281 4.60011C72.4149 4.42312 72.2764 4.25381 72.1194 4.1076C71.6068 3.62979 71.1127 3.55774 70.447 3.85506C70.0075 4.05094 69.6227 4.32238 69.2448 4.60291C67.6855 5.76211 66.0392 6.80936 64.3329 7.78177C62.7936 8.65834 61.2644 9.54961 59.752 10.464C56.2317 12.5928 53.2208 15.2253 50.7125 18.3076C47.3007 22.5009 45.2489 27.1734 44.9872 32.4314C44.9225 33.7298 45.008 35.0226 45.2512 36.3043C45.4636 37.4236 45.813 38.4792 46.9613 39.1368C47.0968 39.2145 47.203 39.3327 47.3238 39.4314C52.2657 43.4749 56.5957 48.0089 60.4347 52.9367C60.9119 53.5488 61.3744 54.1693 61.9247 54.892C61.8247 53.7594 61.593 52.7751 61.6576 51.7761C61.7877 49.7599 62.3234 47.827 63.1808 45.9675C63.584 45.093 64.2513 44.4466 65.1788 43.9912C66.4656 43.3588 67.7963 43.2028 69.2209 43.4868C70.5062 43.7429 71.6761 44.2353 72.7974 44.8321C73.721 45.3232 74.6223 45.85 75.5312 46.3628C77.9802 47.7458 80.6301 48.6532 83.4046 49.1646ZM98.4557 65.2598C98.8306 65.3094 99.0484 65.1548 99.2839 65.0744C102.559 63.9544 105.932 63.3422 109.442 63.3709C110.224 63.3772 110.992 63.5066 111.768 63.5199C113.328 63.5458 114.861 63.7802 116.394 64.0005C117.026 64.0915 117.611 64.053 118.196 63.8249C120.137 63.0687 122.006 62.1914 123.744 61.0945C128.315 58.2087 131.974 54.545 134.913 50.2685C136.154 48.4615 137.027 46.4922 137.945 44.5425C138.874 42.5676 139.679 40.5451 140.84 38.6611C141.38 37.7839 141.149 37.3774 140.088 37.1186C139.241 36.9122 138.372 36.8317 137.498 36.7891C136.777 36.7534 136.087 36.8646 135.398 37.0584C134.032 37.4418 132.707 37.9147 131.429 38.4883C128.553 39.7797 125.483 40.5101 122.346 40.969C119.642 41.3643 116.915 41.2167 114.217 40.7718C112.589 40.5031 110.961 40.2688 109.298 40.296C107.676 40.3226 106.054 40.3163 104.433 40.3324C104.143 40.3352 103.849 40.3611 103.563 40.408C100.976 40.8333 98.5912 41.7344 96.4347 43.0803C93.4993 44.9125 91.0257 47.2065 88.7598 49.69C88.6421 49.8187 88.4674 49.9355 88.5528 50.1755C89.6926 50.4371 90.854 50.689 92.0069 50.9723C93.6401 51.3731 95.2263 51.8943 96.634 52.7681C99.2823 54.4121 100.644 56.7165 100.749 59.6198C100.813 61.3932 100.141 62.9679 99.0468 64.4119C98.8467 64.6756 98.5689 64.8925 98.4557 65.2598ZM110.881 36.654C111.091 36.4806 111.137 36.1741 111.233 35.8992C111.878 34.0397 112.24 32.1208 112.406 30.1871C112.631 27.5553 112.326 24.9529 111.452 22.4211C110.531 19.7509 109.446 17.1386 108.231 14.5642C107.073 12.1087 105.723 9.7175 105.012 7.09759C104.804 6.33015 104.273 6.12449 103.372 6.26161C102.105 6.45469 100.976 6.98007 99.8373 7.46977C97.1397 8.62827 94.4013 9.67134 91.539 10.4668C88.3542 11.3524 85.3934 12.6774 82.8266 14.6523C82.4588 14.9357 82.0655 15.1966 81.793 15.624C82.2794 16.36 82.7574 17.0918 83.2446 17.8186C84.5283 19.7355 85.6774 21.7048 86.4801 23.8406C87.7039 27.0957 88.375 30.4453 88.5997 33.8634C88.7575 36.2567 88.3681 38.6213 87.7554 40.9501C87.1051 43.426 86.0576 45.7674 84.8169 48.0432C84.6037 48.4349 84.3151 48.8001 84.2128 49.3206C85.4488 49.5703 86.6718 49.8166 87.8786 50.06C93.7902 43.0888 101.465 38.6877 110.881 36.654ZM120.338 110.31C120.026 110.226 119.858 110.389 119.684 110.505C119.029 110.941 118.403 111.409 117.844 111.949C116.576 113.173 115.314 114.402 114.04 115.62C111.201 118.336 108.397 121.083 105.504 123.75C101.788 127.174 98.084 130.605 94.6653 134.28C93.5554 135.474 92.4172 136.651 91.3966 137.905C88.8945 140.983 87.0004 144.363 85.5112 147.939C84.9486 149.289 84.4491 150.65 84.122 152.069C83.5786 154.429 83.0914 156.8 82.4287 159.137C81.4913 162.443 80.6285 165.772 79.0785 168.902C77.9071 171.267 76.6811 173.61 75.4735 175.96C74.5969 177.668 73.6941 179.366 73.1923 181.208C73.1515 181.356 73.0091 181.504 73.1823 181.651C75.0925 177.904 76.9889 174.162 78.9076 170.429C80.4631 167.402 82.3364 164.539 84.486 161.831C86.1276 159.763 88.0648 157.938 90.2575 156.348C92.9659 154.385 96.0191 152.971 99.1777 151.7C103.645 149.903 107.85 147.694 111.532 144.733C113.012 143.542 114.174 142.157 114.861 140.445C115.867 137.944 116.425 135.349 116.91 132.736C117.384 130.18 117.527 127.589 117.878 125.019C118.098 123.414 118.241 121.797 118.528 120.201C118.961 117.793 119.495 115.401 119.973 112.999C120.149 112.11 120.317 111.216 120.338 110.31ZM18.52 20.1314C18.4946 20.2937 18.4676 20.3518 18.4807 20.4008C18.5407 20.6295 18.61 20.8562 18.6808 21.0828C19.3727 23.304 19.7691 25.5587 19.7114 27.8764C19.689 28.7621 19.5882 29.6415 19.5544 30.5243C19.4158 34.1565 19.6313 37.7671 20.5003 41.3244C21.2876 44.5474 22.6014 47.5737 24.7748 50.2489C25.7769 51.4823 26.8213 52.6946 28.1574 53.6524C30.4925 55.3257 33.2463 55.975 36.1348 56.0743C39.2457 56.1806 42.3635 56.117 45.4782 56.0974C46.5542 56.0904 47.624 56.1869 48.673 56.3283C51.1666 56.6647 53.6603 57.025 56.1224 57.5336C58.7776 58.0821 61.4075 58.6991 63.8919 59.7422C63.9312 59.7583 64.0027 59.7107 64.0943 59.682C63.2708 58.3423 62.4788 56.9921 61.6222 55.6769C60.2484 53.567 58.6753 51.5949 56.7873 49.825C54.677 47.8466 52.2634 46.2998 49.4627 45.256C47.694 44.597 45.9077 43.9744 44.1313 43.3315C38.4268 41.2663 33.2779 38.4666 29.1102 34.2678C27.026 32.1684 25.1859 29.9605 23.9506 27.3546C23.6173 26.6522 23.2333 25.9687 22.8484 25.2873C22.0311 23.8413 21.0352 22.496 19.9831 21.1864C19.6244 20.7428 19.2373 20.2979 18.52 20.1314ZM85.3234 69.5621C87.6708 69.5076 89.9081 69.2306 92.0531 68.4876C94.8184 67.5292 97.1851 66.0888 98.7921 63.7696C100.46 61.3624 100.643 58.8698 99.2754 56.2856C98.6297 55.0648 97.5868 54.2939 96.2084 53.8615C95.3102 53.5796 94.3636 53.4446 93.4323 53.4936C91.0002 53.6223 88.7082 54.2057 86.6802 55.4923C86.1215 55.8469 85.5758 56.2198 85.0024 56.5528C84.5391 56.8215 84.0481 57.053 83.5586 57.2818C82.969 57.5574 82.4218 57.4497 81.9439 57.0579C81.7284 56.8816 81.5221 56.6857 81.3589 56.4696C80.9202 55.8854 80.47 55.3048 80.0906 54.6891C78.3242 51.8286 76.0584 49.3423 73.3393 47.196C71.8931 46.0543 70.39 44.9965 68.5998 44.2934C67.3999 43.8226 66.3663 43.9632 65.2988 44.5537C64.6008 44.9398 64.1136 45.4743 63.7672 46.1137C62.1433 49.1065 61.7338 52.2112 62.6928 55.4629C63.6087 58.5711 65.5959 61.0329 68.1811 63.1344C70.5732 65.0793 73.3185 66.533 76.2531 67.6831C79.1647 68.8234 82.2001 69.5062 85.3234 69.5621ZM0.530347 112.305C1.00676 112.551 1.52241 112.601 2.04269 112.552C2.74999 112.485 3.45731 112.401 4.15768 112.29C5.84551 112.022 7.35861 111.358 8.79092 110.532C11.3515 109.056 13.632 107.27 15.7785 105.329C18.196 103.143 20.7742 101.12 23.4411 99.19C26.2895 97.129 29.4065 95.5438 32.9746 94.7623C34.233 94.4867 35.4983 94.2586 36.7851 94.0998C38.5992 93.8753 40.4178 93.8641 42.2196 94.0278C44.7063 94.2538 47.1168 94.84 49.4496 95.6739C56.5695 98.2204 62.3773 102.379 67.1768 107.726C70.7995 111.761 73.7703 116.181 76.1662 120.916C76.2047 120.992 76.2631 121.061 76.3216 121.147C76.4886 120.892 76.3624 120.676 76.2824 120.455C76.0569 119.837 75.7021 119.272 75.4058 118.684C74.4214 116.729 73.3708 114.802 72.5088 112.796C71.1766 109.697 70.0075 106.542 68.6175 103.462C67.109 100.119 65.2596 96.9604 62.8252 94.0852C61.1027 92.0508 59.0832 90.3186 56.7458 88.9062C53.2154 86.7725 49.3418 85.4258 45.1288 84.8934C43.1177 84.6395 41.1143 84.6535 39.1325 85.0123C33.3725 86.054 28.1721 88.2171 23.5981 91.5814C18.1221 95.6088 13.3464 100.255 9.0295 105.3C8.07284 106.418 7.14312 107.549 5.99173 108.517C4.55635 109.724 3.01784 110.797 1.33463 111.701C1.03909 111.861 0.669652 111.957 0.530347 112.305ZM89.6626 69.8322C90.2598 70.8438 91.1034 71.663 91.9223 72.4962C94.1358 74.7488 96.5424 76.7944 99.4417 78.323C104.122 80.7911 109.135 81.7124 114.491 81.0233C117.404 80.6484 120.155 79.7914 122.736 78.509C124.499 77.6332 126.227 76.6992 127.982 75.8101C130.812 74.3766 133.573 72.8236 136.601 71.7364C136.751 71.6826 136.895 71.6119 137.035 71.5385C137.669 71.202 137.758 70.8885 137.371 70.3072C137.023 69.7825 136.518 69.4285 135.885 69.2236C134.062 68.6317 132.183 68.6765 130.317 68.9199C128.847 69.1116 127.401 69.4439 125.945 69.7147C123.982 70.0798 121.986 70.3002 120.03 70.6752C118.01 71.0627 115.995 71.1922 113.949 71.1355C113.335 71.1187 112.725 71.1012 112.111 71.0124C109.796 70.6773 107.566 70.0861 105.393 69.2942C103.108 68.461 100.791 67.7181 98.3565 67.3291C97.1851 67.1423 96.0745 67.1654 94.997 67.7894C93.5147 68.6478 91.8838 69.2306 90.1544 69.5636C89.9951 69.5929 89.8396 69.6356 89.6626 69.8322ZM68.6475 64.3363C68.5644 64.2027 68.5452 64.139 68.499 64.104C67.3807 63.2471 66.3394 62.3222 65.4173 61.2875C65.2334 61.0812 65.0264 60.8846 64.7508 60.7825C63.4347 60.2935 62.1317 59.81 60.6617 59.7765C58.7284 59.7324 56.8574 60.0402 54.9964 60.4327C52.4758 60.9637 50.0183 61.7409 47.4331 62.0193C45.6906 62.2068 43.9551 62.2614 42.2088 61.9962C38.9116 61.4953 35.9893 60.2242 33.2409 58.5473C30.8912 57.1139 28.7524 55.4468 26.6358 53.7503C26.2733 53.46 25.9216 53.155 25.4444 52.9451C25.2874 53.3494 25.3428 53.7223 25.4391 54.0903C25.5884 54.6633 25.7862 55.2222 26.034 55.7679C27.2554 58.4578 28.9394 60.8965 30.9297 63.1638C32.6668 65.1429 34.7094 66.8128 37.193 67.9874C40.9612 69.7699 44.9972 70.6402 49.2279 70.7787C50.8819 70.8326 52.5227 70.6528 54.1629 70.4639C56.6834 70.1736 59.1193 69.6069 61.4444 68.6779C64.1066 67.6117 66.5118 66.1909 68.6475 64.3363ZM120.27 35.7243C120.589 35.4878 120.628 35.2115 120.718 34.9653C120.961 34.293 121.088 33.5955 121.193 32.8973C121.428 31.3253 121.691 29.7576 122.065 28.2066C122.595 26.0079 123.486 23.9308 124.587 21.9216C125.717 19.86 126.602 17.7172 127.132 15.4596C127.172 15.2882 127.23 15.1155 127.237 14.942C127.257 14.4082 126.922 14.0339 126.346 13.9618C126.025 13.922 125.7 13.9339 125.386 14.0353C124.807 14.2221 124.218 14.3865 123.648 14.5929C121.151 15.496 118.661 16.4153 116.164 17.3198C114.688 17.855 113.233 18.4287 111.857 19.1555C111.558 19.3129 111.194 19.4185 111.033 19.8439C112.137 22.4631 112.92 25.2194 112.986 28.1003C113.051 30.9616 112.456 33.7494 111.561 36.61C114.568 36.093 117.461 35.9202 120.27 35.7243ZM66.7796 109.764C66.7442 109.509 66.5233 109.366 66.3586 109.2C64.6438 107.467 62.946 105.721 61.1958 104.018C58.6337 101.524 55.7268 99.4103 52.5004 97.6621C49.0671 95.8019 45.3181 94.826 41.366 94.5301C39.2688 94.3727 37.1622 94.4692 35.0742 94.8351C31.4222 95.4745 28.0643 96.6995 25.0619 98.7226C21.2461 101.295 17.7657 104.21 14.3862 107.233C14.3247 107.288 14.3216 107.335 14.387 107.381C14.6033 107.453 14.7303 107.277 14.8803 107.191C15.8147 106.658 16.7536 106.13 17.6664 105.568C20.6226 103.746 23.8474 102.481 27.2947 101.656C29.9946 101.01 32.7237 100.517 35.5114 100.373C38.7331 100.206 41.9256 100.547 45.0749 101.123C49.0871 101.857 52.9668 103.002 56.7058 104.524C60.1476 105.926 63.4817 107.501 66.4564 109.64C66.5441 109.703 66.6203 109.814 66.7796 109.764ZM44.9472 37.5019C45.001 37.3452 45.048 37.2844 45.0349 37.2375C44.44 35.1632 44.3999 33.0533 44.5092 30.9294C44.5639 29.8667 44.3892 28.8195 44.166 27.7778C43.6534 25.3782 42.8768 23.0431 42.0302 20.7289C40.6526 16.9644 39.8144 13.1202 39.8067 9.14175C39.8067 9.01513 39.8521 8.86122 39.6543 8.75349C39.5189 9.0599 39.3765 9.35302 39.258 9.65454C38.2436 12.2318 37.1176 14.7678 35.9131 17.2764C35.3043 18.5434 34.754 19.8306 34.3246 21.1605C33.7304 23.0011 33.4233 24.8927 33.1978 26.7872C33.0608 27.9422 32.9892 29.1364 33.471 30.3131C37.5632 32.3146 41.4076 34.677 44.9472 37.5019ZM96.8303 66.6904C98.8236 66.7911 100.56 67.1479 102.242 67.6761C105.185 68.5995 108.187 69.2977 111.24 69.835C112.993 70.1428 114.762 70.3793 116.541 70.3702C118.547 70.3597 120.549 70.1617 122.526 69.8294C124.75 69.4551 126.971 69.062 129.189 68.6583C130.17 68.4799 131.163 68.3652 132.159 68.2113C129.104 67.4921 126.114 66.6253 123.11 65.8047C120.531 65.1002 117.883 64.7169 115.222 64.3671C113.39 64.1264 111.551 63.9774 109.71 63.911C106.066 63.7787 102.56 64.4461 99.1792 65.6571C98.4357 65.923 97.6576 66.1475 96.8303 66.6904ZM21.5862 22.34C21.4646 22.5233 21.5824 22.6086 21.6501 22.6961C22.8538 24.2421 23.799 25.9176 24.6763 27.6302C25.4037 29.0496 26.2526 30.4103 27.3455 31.6269C29.8984 34.4679 32.9754 36.7443 36.4626 38.58C39.0533 39.9435 41.8255 40.9396 44.5901 41.9533C46.9713 42.8257 49.2602 43.8506 51.3675 45.2029C52.6051 45.9976 53.8665 46.7615 55.0757 47.6129C54.9702 47.4051 54.8324 47.2218 54.6747 47.0546C53.3686 45.6646 52.0379 44.2955 50.6202 42.9957C48.1289 40.7102 45.5136 38.5485 42.786 36.5008C39.6482 34.1453 36.2179 32.1851 32.6352 30.4474C30.2139 29.2735 28.0097 27.8401 26.0224 26.1247C24.7756 25.0487 23.5303 23.9714 22.2812 22.8976C22.058 22.7066 21.8217 22.5289 21.5862 22.34ZM111.617 145.498C109.643 146.873 107.675 148.167 105.567 149.28C103.352 150.449 101.063 151.49 98.7844 152.552C93.8848 154.836 89.5687 157.745 86.0799 161.699C82.5865 165.659 79.6496 169.893 77.3853 174.523C77.2968 174.704 77.0959 174.891 77.2714 175.188C77.4869 174.926 77.6647 174.718 77.834 174.504C79.5949 172.272 81.5652 170.2 83.6632 168.226C86.738 165.334 90.1621 162.806 93.7025 160.413C97.5291 157.826 101.318 155.206 104.815 152.247C107.027 150.376 109.137 148.425 111.006 146.265C111.22 146.016 111.414 145.753 111.617 145.498ZM50.1438 18.1628C49.4042 16.4069 48.5129 14.8069 47.467 13.2833C45.9931 11.1363 44.4177 9.04662 43.0939 6.81567C42.9869 6.63518 42.8553 6.46447 42.7168 6.30147C42.1557 5.64456 41.6539 5.63828 41.0713 6.29728C40.5641 6.87093 40.4017 7.55513 40.3547 8.27289C40.2447 9.95328 40.3155 11.6322 40.5895 13.2909C40.9443 15.44 41.4499 17.5647 42.2149 19.6305C42.9984 21.7467 43.7881 23.8609 44.5554 25.9813C44.7732 26.5836 44.9249 27.2063 45.145 27.9513C46.1871 24.3457 47.7541 21.1066 50.1438 18.1628ZM81.4905 15.2407C82.9506 13.7981 84.6769 12.86 86.3162 11.8715C85.3449 8.29457 83.2584 4.02574 81.1119 1.19315C81.038 1.09591 80.9618 1.00008 80.8764 0.911936C80.4346 0.45791 80.0236 0.361365 79.4002 0.588727C79.1616 0.676175 78.9361 0.799288 78.7152 0.921714C77.463 1.61709 76.3439 2.47129 75.2995 3.39963C74.6792 3.9516 74.1366 4.57352 73.6271 5.30528C76.2631 8.56741 78.943 11.7827 81.4905 15.2407ZM134.658 36.7646C134.652 36.7254 134.647 36.6862 134.64 36.6463C133.541 36.6205 132.434 36.6561 131.342 36.5561C128.533 36.2994 125.72 36.2126 122.9 36.2441C121.538 36.2595 120.17 36.2007 118.817 36.2986C116.756 36.447 114.701 36.6561 112.65 36.9262C109.089 37.3956 105.722 38.368 102.506 39.8091C102.342 39.8819 102.151 39.9281 102.045 40.1134C102.148 40.1253 102.248 40.1617 102.332 40.1421C104.187 39.7105 106.08 39.5272 107.987 39.409C110.261 39.2684 112.519 39.4062 114.764 39.6951C116.752 39.9504 118.74 40.1519 120.751 40.1848C124.212 40.2415 127.497 39.6 130.629 38.2694C131.801 37.7713 132.99 37.3026 134.233 36.9577C134.383 36.9157 134.517 36.8296 134.658 36.7646ZM29.2657 54.9522C29.3511 55.2607 29.4835 55.3474 29.6067 55.4384C31.854 57.1013 34.2476 58.5585 36.9006 59.6331C38.6346 60.3354 40.4655 60.6768 42.3681 60.7118C44.2514 60.7461 46.1201 60.639 47.9834 60.3781C49.6451 60.1451 51.3213 59.9961 52.983 59.7639C55.1272 59.4638 57.2691 59.1587 59.4465 59.142C59.6042 59.1406 59.8243 59.2315 59.9459 58.9692C59.6242 58.8845 59.3187 58.7999 59.0108 58.7243C56.3848 58.0814 53.7219 57.5959 51.0427 57.1789C48.5168 56.7858 45.9816 56.5409 43.4094 56.6025C41.3021 56.6529 39.1926 56.6053 37.0837 56.6165C35.6822 56.6242 34.3146 56.4199 32.9508 56.1492C31.7163 55.9029 30.5395 55.5153 29.2657 54.9522ZM94.7238 52.489C94.175 52.1469 93.5893 51.9783 93.0067 51.8055C90.4469 51.045 87.8139 50.5434 85.1787 50.0831C81.0234 49.3577 77.1044 48.1495 73.6071 45.9262C72.7582 45.3869 71.8485 44.923 70.8833 44.5642C70.6855 44.4907 70.4954 44.3221 70.2207 44.4935C70.3631 44.5845 70.4885 44.6705 70.6201 44.7488C74.4753 47.0526 77.6469 49.9572 80.0167 53.5698C80.4985 54.3044 80.9826 55.0382 81.5021 55.7504C81.8569 56.2366 82.2202 56.7389 82.8559 56.9299C83.417 56.8327 83.8726 56.6046 84.3028 56.3401C84.9208 55.9603 85.5327 55.5713 86.1238 55.1593C87.5061 54.1952 89.0384 53.5125 90.7132 53.0927C92.0246 52.7632 93.3484 52.4953 94.7238 52.489ZM74.4883 176.126C74.5222 176.146 74.5568 176.167 74.5907 176.187C74.7493 175.866 74.9078 175.545 75.0663 175.224C77.9917 169.327 80.0852 163.175 81.8577 156.926C83.1784 152.27 84.8092 147.715 87.0912 143.366C87.1628 143.23 87.3606 143.088 87.1736 142.876C87.0689 142.999 86.9665 143.112 86.8726 143.23C82.8505 148.304 79.9582 153.865 78.1264 159.892C77.3753 162.361 76.7996 164.862 76.2916 167.38C75.7028 170.296 75.0902 173.21 74.4883 176.126ZM89.0523 69.814C88.5759 69.8658 88.0841 69.821 87.6916 69.9805C86.6179 70.4156 85.4881 70.417 84.3629 70.4562C82.0778 70.536 79.8343 70.3499 77.7231 69.4572C77.6031 69.4062 77.4907 69.3663 77.3922 69.509C77.4345 69.5782 77.4707 69.6615 77.5292 69.7287C77.65 69.8672 77.777 70.0008 77.9102 70.1295C80.3807 72.52 83.3631 74.1738 86.778 75.1959C88.4443 75.6946 90.1705 75.9325 91.9099 76.0794C92.775 76.1522 93.6347 76.078 94.5991 75.7765C92.5795 73.8492 90.4592 72.1114 89.0523 69.814ZM121.004 35.6487C122.497 35.8355 122.551 35.8013 123.293 34.8652C124.769 33.0036 125.733 30.9259 126.453 28.7439C127.068 26.8802 127.404 24.9662 127.594 23.034C127.701 21.951 127.783 20.859 127.751 19.7739C127.727 18.9232 127.647 18.0705 127.614 17.2177C127.604 16.9301 127.611 16.6314 127.357 16.3796C127.149 16.5727 127.207 16.8217 127.149 17.0302C126.591 19.0359 125.713 20.9275 124.719 22.78C123.418 25.202 122.618 27.7589 122.122 30.4131C121.8 32.1446 121.691 33.9159 121.004 35.6487ZM60.6155 3.91102C60.4093 3.939 60.3362 3.92922 60.2938 3.9579C57.8918 5.57742 55.5736 7.27808 53.6803 9.41039C52.0317 11.2664 50.8649 13.3602 49.9414 15.5765C49.8544 15.7856 49.7066 16.0123 49.8344 16.2558C50.0668 16.6986 50.193 17.1911 50.5579 17.6129C50.6795 17.4891 50.768 17.4045 50.848 17.3142C52.8391 15.0868 54.9948 13.009 57.5408 11.2937C57.9287 11.032 58.0473 10.7011 58.0796 10.3093C58.1104 9.92738 58.0927 9.53911 58.1581 9.16273C58.4898 7.27178 59.2048 5.52074 60.6155 3.91102ZM64.9117 6.81076C64.9117 6.30076 64.9448 5.88662 64.9047 5.47877C64.8232 4.66096 64.7185 3.84177 64.3337 3.08343C63.9543 2.33488 63.3701 2.19915 62.6158 2.67836C62.4042 2.81268 62.2033 2.9652 62.0217 3.1317C60.6117 4.43011 59.5519 5.92301 59.0432 7.70273C58.7946 8.57231 58.5737 9.45376 58.723 10.4807C60.7779 9.15714 62.8575 8.03292 64.9117 6.81076Z" fill="#0F0D01"/>
<path d="M70.0634 6.43066C69.6986 8.00331 69.0597 9.44445 68.424 10.8849C67.051 13.9959 65.611 17.0824 64.2787 20.2081C62.7002 23.9103 61.4241 27.7048 60.5036 31.5868C60.0411 33.5372 59.7101 35.5156 59.6309 37.5199C59.6009 38.2838 59.4662 39.0401 59.4608 39.8103C59.4431 42.5897 59.8517 45.3188 60.5283 48.0213C60.6853 48.6481 60.8361 49.2756 61.0085 49.9773C60.5999 49.696 60.5575 49.3253 60.4521 49.0063C59.8771 47.2615 59.4638 45.4895 59.2214 43.6741C58.9336 41.5243 58.959 39.3689 59.1129 37.2303C59.4123 33.0797 60.4959 29.0606 61.869 25.0968C63.115 21.4989 64.692 18.0248 66.3337 14.5675C67.5643 11.9776 68.8219 9.39619 69.8848 6.74339C69.9279 6.63356 70.0026 6.5342 70.0634 6.43066Z" fill="#0F0D01"/>
<path d="M61.8334 55.3154C61.32 54.6215 60.772 53.9471 60.3002 53.2307C58.5708 50.6017 57.4903 47.7551 56.893 44.7462C56.5244 42.8882 56.3066 41.0133 56.3704 39.1314C56.5082 35.0718 56.9277 31.0415 58.2537 27.1309C58.6547 25.9479 59.1958 24.8167 59.7368 23.6847C60.3041 22.499 60.8775 21.3153 61.4655 20.1379C61.624 19.8203 61.7549 19.4817 62.1758 19.0654C61.7402 20.0553 61.3739 20.8661 61.0268 21.6825C60.1986 23.6267 59.242 25.5267 58.5985 27.5352C58.0921 29.117 57.7966 30.7351 57.498 32.3567C57.2309 33.809 57.0793 35.2746 56.9923 36.7361C56.8838 38.555 56.8607 40.3802 57.0562 42.2081C57.2532 44.0599 57.6249 45.8641 58.206 47.6453C58.9664 49.9756 60.1448 52.131 61.4185 54.2514C61.6155 54.5781 61.8611 54.8859 61.8334 55.3154Z" fill="#0F0D01"/>
<path d="M18.4662 20.8262C19.9354 22.9585 21.2284 25.0614 22.2428 27.2966C24.0692 31.3205 25.513 35.4606 26.7475 39.6637C27.5988 42.562 28.6439 45.4002 30.0416 48.1251C30.9798 49.9538 32.2004 51.609 33.6705 53.1173C33.8198 53.2705 33.9575 53.4342 34.0976 53.5951C34.1122 53.6125 34.1038 53.6468 34.1169 53.8154C33.9037 53.6293 33.7559 53.5104 33.6204 53.3817C31.2215 51.0871 29.4929 48.4287 28.2576 45.4709C27.097 42.6915 26.2765 39.8239 25.3653 36.978C24.0084 32.7435 22.4914 28.56 20.3487 24.5878C19.7931 23.558 19.202 22.5436 18.6417 21.5152C18.5478 21.3431 18.3477 21.1928 18.4662 20.8262Z" fill="#0F0D01"/>
<path d="M92.5774 73.2744C92.1211 72.9085 91.6647 72.5426 91.2206 72.1873C88.4683 73.3619 85.7153 73.0722 82.9492 72.4468C85.7222 72.7938 88.4822 73.019 91.1475 71.8438C92.2634 72.5699 93.3863 73.3136 94.5239 74.039C98.3428 76.4736 102.562 78.0805 107.133 78.857C109.096 79.1907 111.104 79.2719 113.127 79.1669C115.864 79.0242 118.498 78.5324 121.076 77.7202C121.129 77.7034 121.199 77.7314 121.357 77.7489C120.686 78.0819 120.03 78.2498 119.384 78.4359C118.708 78.6311 118.035 78.8409 117.348 78.999C114.85 79.5762 112.304 79.7714 109.741 79.6007C105.992 79.3502 102.442 78.3967 99.0501 76.9332C97.0221 76.058 95.1065 75.0219 93.3517 73.7431C93.1008 73.5605 92.8199 73.4129 92.552 73.2492L92.5774 73.2744Z" fill="#0F0D01"/>
<path d="M63.7473 11.6496C63.107 12.3793 62.4674 13.1097 61.8247 13.8379C59.0879 16.9426 56.8906 20.3272 55.4252 24.086C54.7548 25.8049 54.3123 27.5734 53.9736 29.3741C53.6511 31.0937 53.5157 32.83 53.4803 34.5559C53.4133 37.8096 53.9128 41.0053 55.3397 44.0331C55.4159 44.1947 55.486 44.3591 55.5437 44.527C55.5599 44.5731 55.5229 44.6347 55.5075 44.7033C55.2574 44.6354 55.2204 44.4227 55.1358 44.2534C54.0437 42.0659 53.4226 39.7761 53.1886 37.3794C53.077 36.2307 53.0023 35.0869 53.0385 33.9389C53.2625 26.9046 55.583 20.5371 60.3886 14.9684C60.9289 14.3423 61.4822 13.7253 62.0479 13.1174C62.5497 12.578 63.0769 12.0582 63.5934 11.5293C63.6449 11.5699 63.6957 11.6097 63.7473 11.6496Z" fill="#0F0D01"/>
<path d="M97.6276 17.7832C97.5422 18.4191 97.4914 19.0606 97.359 19.6875C97.2659 20.1275 97.2597 20.564 97.2343 21.0048C97.1389 22.6782 96.9496 24.3418 96.7133 26.0046C96.3993 28.2188 95.9821 30.4155 95.4788 32.5975C94.5937 36.4381 93.3561 40.1753 91.2273 43.6207C90.3876 44.98 89.4971 46.3148 88.4127 47.5719C88.2572 47.3005 88.4819 47.1655 88.5766 47.0123C89.3232 45.8062 90.109 44.6197 90.8332 43.4024C92.7735 40.1452 94.0218 36.6557 94.8746 33.0501C95.3825 30.9003 95.8051 28.7323 96.2068 26.5629C96.4208 25.4058 96.4893 24.227 96.6601 23.0629C96.878 21.5784 96.8657 20.0701 97.232 18.5996C97.3036 18.3121 97.4075 18.0406 97.6276 17.7832Z" fill="#0F0D01"/>
<path d="M69.9112 3.86328C69.9189 4.22077 69.7511 4.47611 69.6557 4.74614C68.2696 8.67007 66.1807 12.2834 63.7879 15.7666C62.3456 17.866 60.9972 20.0179 59.7227 22.2062C58.3519 24.5589 57.4461 27.0676 56.7226 29.6371C56.5633 30.2038 56.4117 30.7718 56.2516 31.3567C56.0076 30.9243 56.2793 30.5312 56.3678 30.1499C57.032 27.269 57.8617 24.44 59.3994 21.8137C60.6793 19.6276 61.997 17.461 63.4493 15.3678C65.7905 11.9945 67.767 8.4595 69.3709 4.74894C69.4656 4.52997 69.5664 4.31311 69.6788 4.10114C69.7172 4.02838 69.7988 3.97521 69.9112 3.86328Z" fill="#0F0D01"/>
<path d="M63.531 7.7832C63.0269 8.67167 62.3004 9.34326 61.5538 9.99946C59.2203 12.0499 57.0022 14.1878 55.0788 16.5776C52.8807 19.3087 51.47 22.3414 50.7111 25.6322C50.354 27.1783 50.0969 28.7432 49.7822 30.3634C49.6667 29.8052 49.6698 29.2875 49.7444 28.7929C50.0092 27.051 50.2824 25.3104 50.7634 23.6006C51.5793 20.7023 53.0778 18.1202 55.0557 15.7528C56.9637 13.4694 59.1117 11.3888 61.4715 9.48667C61.9325 9.1152 62.3681 8.71853 62.8214 8.33936C63.0508 8.14767 63.2932 7.96859 63.531 7.7832Z" fill="#0F0D01"/>
<path d="M48.9024 56.4077C48.2528 56.3832 47.7672 56.2489 47.2746 56.1103C44.7386 55.3968 42.6152 54.0921 40.7342 52.4201C38.3722 50.3199 36.4504 47.9239 34.9242 45.2662C32.7368 41.457 30.568 37.6387 28.3984 33.8204C28.2845 33.6203 28.0982 33.437 28.1282 33.1201C28.336 33.1915 28.3968 33.3447 28.4792 33.4762C30.5018 36.6978 32.4921 39.9354 34.3115 43.2577C35.5845 45.5817 36.9653 47.8469 38.7801 49.8694C40.5549 51.8478 42.529 53.6192 44.9995 54.8875C46.2002 55.5031 47.5224 55.862 48.9024 56.4077Z" fill="#0F0D01"/>
<path d="M74.4961 43.7195C74.503 43.3607 74.7155 43.2515 74.8609 43.1109C78.2589 39.8271 80.4454 35.9347 81.8462 31.6448C82.3796 30.0113 82.759 28.3456 82.9891 26.6582C83.4493 23.287 83.0884 19.9787 81.9408 16.7432C81.8916 16.6039 81.8154 16.4703 81.9132 16.3213C82.1086 16.3297 82.1594 16.4738 82.2087 16.5983C82.8059 18.1213 83.2385 19.6716 83.434 21.2897C84.0435 26.3386 82.8614 31.0943 80.7025 35.701C79.6173 38.0173 78.1858 40.144 76.4079 42.0769C75.8653 42.6674 75.2657 43.2012 74.4961 43.7195Z" fill="#0F0D01"/>
<path d="M38.1018 33.0922C37.6831 32.8809 37.5838 32.6298 37.4584 32.4143C36.4971 30.7626 35.9352 29.0067 35.6605 27.1493C35.3826 25.2667 35.4404 23.3835 35.5243 21.5065C35.6128 19.512 36.0338 17.5532 36.6279 15.6195C37.1274 13.9923 39.0331 9.16595 39.7003 7.84375C39.7665 8.2586 39.5733 8.55521 39.4764 8.85812C38.7621 11.0828 37.8609 13.2543 37.1929 15.4929C36.5564 17.6245 36.16 19.7813 36.0522 21.9962C35.9807 23.4716 36.0099 24.9407 36.1184 26.4056C36.24 28.0475 36.6087 29.6587 37.2867 31.1991C37.5446 31.7875 37.7947 32.3793 38.1018 33.0922Z" fill="#0F0D01"/>
<path d="M75.9035 16.7969C76.1113 17.6329 75.8366 18.3205 75.7381 18.9991C75.2709 22.2284 74.5005 25.4087 73.7431 28.591C73.0535 31.4901 72.3447 34.3821 71.3426 37.2063C70.6361 39.1987 69.801 41.145 68.5426 42.9135C68.2956 43.2612 68.0809 43.6648 67.5829 43.8761C67.5437 43.583 67.6837 43.4214 67.7953 43.2549C69.8033 40.2572 71.0094 36.979 71.9622 33.6007C73.092 29.5928 74.0572 25.5521 75.0077 21.5085C75.364 19.9932 75.5934 18.4514 75.9035 16.7969Z" fill="#0F0D01"/>
<path d="M97.9648 65.9679C98.6152 65.0199 99.6034 64.4309 100.652 63.9223C102.654 62.9506 104.778 62.2377 106.916 61.564C111.909 59.99 116.736 58.0864 121.268 55.598C122.82 54.7459 124.34 53.847 125.877 52.9739C126.146 52.8214 126.382 52.6115 126.83 52.5381C126.725 52.7801 126.549 52.876 126.389 52.9774C120.563 56.6509 114.389 59.7067 107.645 61.762C106.359 62.1538 105.08 62.5728 103.826 63.0408C101.762 63.8118 99.7042 64.6093 97.9648 65.9679Z" fill="#0F0D01"/>
<path d="M102.465 51.6696C103.361 50.5265 104.588 49.7108 105.775 48.8559C110.147 45.7099 115.095 43.5629 120.335 41.9224C122.628 41.2046 124.913 40.4694 127.169 39.66C127.326 39.6033 127.488 39.4221 127.72 39.5739C127.167 40.0125 126.493 40.2336 125.846 40.4897C123.977 41.2298 122.052 41.8384 120.133 42.4597C115.474 43.9672 111.028 45.8617 106.993 48.4851C105.597 49.3932 104.273 50.3929 102.916 51.3506C102.767 51.4576 102.616 51.5633 102.465 51.6696Z" fill="#0F0D01"/>
<path d="M26.8342 34.9092C27.456 36.5294 28.0571 38.1349 28.689 39.7307C29.5433 41.8903 30.4923 44.0149 31.6121 46.0737C32.7242 48.1186 34.0627 50.034 35.7551 51.7186C37.6315 53.5858 39.7388 55.1787 42.4725 55.9329C42.5941 55.9665 42.7081 56.028 42.8204 56.0861C42.872 56.1127 42.9105 56.1609 42.959 56.2036C42.2786 56.3925 41.6783 56.147 41.0887 55.9091C39.3794 55.22 37.8985 54.2203 36.5478 53.0604C34.1589 51.0078 32.3887 48.5516 30.9849 45.8702C29.2162 42.4905 27.9609 38.9388 26.7934 35.3597C26.7488 35.2233 26.7087 35.0729 26.8342 34.9092Z" fill="#0F0D01"/>
<path d="M94.3438 44.4118C94.5569 43.8305 94.9133 43.4506 95.2296 43.0504C98.0804 39.4455 99.9799 35.4551 101.127 31.1506C101.621 29.3002 102.23 27.4743 102.59 25.5953C102.879 24.094 103.144 22.5899 103.306 21.0697C103.386 20.3295 103.442 19.5726 103.773 18.7842C103.885 19.3159 103.593 19.7244 103.635 20.1721C103.676 20.6094 103.596 21.0487 103.536 21.4887C103.399 22.5073 103.29 23.5273 103.128 24.5452C102.798 26.6096 102.277 28.6328 101.719 30.6511C101.01 33.2151 100.229 35.758 98.9755 38.1562C97.901 40.2108 96.5842 42.1319 95.0434 43.9242C94.8856 44.1061 94.7286 44.3006 94.3438 44.4118Z" fill="#0F0D01"/>
<path d="M74.8242 35.6167C75.0035 35.0927 75.1721 34.5659 75.363 34.0461C76.3173 31.4521 77.0192 28.7986 77.521 26.1052C78.0852 23.0774 78.3161 20.0168 78.1091 16.954C77.9451 14.5237 77.6103 12.1004 76.8107 9.75537C76.7568 9.59657 76.7368 9.42728 76.6867 9.19922C77.0308 9.31255 77.0839 9.54621 77.1632 9.74769C77.6457 10.9684 77.9066 12.2382 78.1522 13.51C78.6886 16.2852 78.6463 19.0877 78.5208 21.8826C78.43 23.9064 78.0444 25.9058 77.5972 27.8954C77.0323 30.4069 76.2019 32.84 75.189 35.227C75.1259 35.3767 75.0274 35.5138 74.9458 35.6565C74.9058 35.6432 74.865 35.6299 74.8242 35.6167Z" fill="#0F0D01"/>
<path d="M70.9746 44.1382C70.903 43.8422 71.1777 43.7296 71.3401 43.5764C74.2471 40.8389 76.6114 37.7573 78.4309 34.3343C79.7469 31.8592 80.6205 29.2553 81.0823 26.5368C81.4625 24.2939 81.7357 22.0448 81.6449 19.7698C81.6418 19.6942 81.6926 19.6166 81.7811 19.3535C82.1629 25.5854 80.9245 31.2981 77.6358 36.5967C75.32 40.3283 72.4176 43.6009 70.9746 44.1382Z" fill="#0F0D01"/>
<path d="M103.06 9.90332C102.917 10.726 102.717 11.4613 102.627 12.2147C102.5 13.2669 102.363 14.3162 102.295 15.374C102.175 17.2258 102.1 19.079 101.962 20.9308C101.848 22.4579 101.711 23.9837 101.495 25.4976C101 28.9724 100.185 32.3814 98.6467 35.6177C98.4674 35.9955 98.3035 36.3795 98.1257 36.758C98.0757 36.8643 97.9995 36.9609 97.9094 37.1043C97.7717 36.8811 97.8979 36.7223 97.9649 36.5537C98.743 34.5928 99.5726 32.6466 100.053 30.6003C100.41 29.0801 100.759 27.5592 100.945 26.0097C101.099 24.7253 101.33 23.4492 101.474 22.1641C101.568 21.3162 101.64 20.4571 101.664 19.6106C101.705 18.1359 101.845 16.6682 101.928 15.1977C102.019 13.6167 102.216 12.0356 102.7 10.5014C102.744 10.3622 102.806 10.2265 102.87 10.0936C102.894 10.0453 102.949 10.0118 103.06 9.90332Z" fill="#0F0D01"/>
<path d="M30.9018 54.7274C30.4138 54.3993 29.9644 54.0971 29.538 53.7564C27.8463 52.4048 26.7511 50.6712 25.7437 48.8824C24.0204 45.8246 23.003 42.5561 22.2333 39.2107C21.6784 36.7986 21.2305 34.3711 20.888 31.9275C20.8434 31.6085 20.6887 31.3055 20.7187 30.9732C20.7318 30.8312 20.721 30.6871 20.8087 30.5381C21.3583 33.1188 21.8793 35.7052 22.4627 38.2796C23.3655 42.2609 24.5646 46.1555 26.7365 49.7492C27.7894 51.4918 29.0046 53.1149 30.7463 54.3615C30.8218 54.4154 30.8826 54.4867 30.9449 54.5539C30.9549 54.563 30.9364 54.5938 30.9018 54.7274Z" fill="#0F0D01"/>
<path d="M123.097 50.5097C122.854 50.7902 122.501 50.9371 122.19 51.1169C116.391 54.4784 110.385 57.4999 104.17 60.1792C102.682 60.8208 101.172 61.4273 99.8829 62.3906C99.6751 62.1304 99.9352 62.0373 100.041 61.9275C100.609 61.3412 101.341 60.9551 102.096 60.6116C103.719 59.8742 105.35 59.153 106.975 58.4198C112.203 56.0615 117.308 53.5004 122.306 50.7629C122.527 50.6426 122.761 50.5433 122.991 50.439C123.003 50.4334 123.04 50.4712 123.097 50.5097Z" fill="#0F0D01"/>
<path d="M106.17 9.40625C107.375 12.6453 107.907 15.9914 107.944 19.406C107.991 23.7231 107.024 27.8828 105.541 32.0838C105.287 31.5493 105.551 31.1925 105.644 30.8392C106.206 28.7027 106.74 26.5606 107.105 24.3898C107.394 22.6716 107.394 20.9332 107.41 19.1975C107.438 16.1817 106.896 13.2392 106.113 10.3234C106.068 10.1534 106.025 9.98131 105.999 9.80852C105.981 9.69588 105.995 9.57905 105.995 9.46432C106.052 9.44543 106.111 9.42584 106.17 9.40625Z" fill="#0F0D01"/>
<path d="M98.584 72.8117C99.0335 72.6753 99.2782 72.8698 99.5376 72.96C101.993 73.8114 104.534 74.3277 107.127 74.6957C110.253 75.1392 113.401 75.1609 116.531 74.9881C120.371 74.7762 124.156 74.1472 127.83 73.0559C128.04 72.9936 128.233 72.8656 128.55 72.974C127.377 73.4833 126.203 73.838 125.01 74.1039C122.628 74.6348 120.212 75.0007 117.766 75.2414C115.173 75.496 112.578 75.475 109.995 75.3554C106.4 75.1882 102.889 74.5313 99.5499 73.2434C99.2543 73.1279 98.9727 72.9852 98.584 72.8117Z" fill="#0F0D01"/>
<path d="M68.8793 18.1592C68.9771 19.0672 68.72 19.9487 68.503 20.8239C67.8211 23.5655 67.0476 26.289 66.378 29.0334C65.8192 31.3203 65.342 33.6233 64.8872 35.9298C64.6024 37.3738 64.3569 38.8247 64.1876 40.277C64.0529 41.4334 63.889 42.5926 63.8305 43.7595C63.7574 42.3792 63.7166 41.0088 63.8728 39.6222C64.4115 34.8252 65.5853 30.1443 66.869 25.4823C67.4085 23.5228 68.0712 21.5913 68.5299 19.6122C68.6423 19.1267 68.7623 18.6433 68.8793 18.1592Z" fill="#0F0D01"/>
<path d="M86.9981 50.2195C86.9088 49.9305 87.0142 49.8123 87.1397 49.7221C88.5704 48.6958 89.5248 47.3239 90.4045 45.9164C92.5164 42.5353 94.3335 39.0339 95.3841 35.2415C95.8489 33.5646 96.1476 31.8576 96.4616 30.1542C96.5363 29.7498 96.7279 29.3699 96.7271 28.9502C97.0011 29.6673 96.7202 30.3697 96.6186 31.0573C96.3839 32.6524 96.1514 34.2523 95.6827 35.8117C94.3928 40.1001 92.3471 44.0758 89.651 47.7765C88.9591 48.7259 88.1425 49.5814 86.9981 50.2195Z" fill="#0F0D01"/>
<path d="M52.1159 56.8043C51.7303 56.6168 51.3363 56.4412 50.9591 56.239C48.133 54.7237 45.7117 52.7712 43.6637 50.4577C41.3471 47.8399 39.1859 45.113 37.1795 42.2888C36.3513 41.1233 35.7195 39.8605 34.9998 38.6419C34.9398 38.5404 34.8836 38.4306 34.9875 38.2676C35.4355 38.7377 35.6948 39.2918 36.0065 39.8109C37.6259 42.5112 39.6546 44.9597 41.6496 47.4292C42.6093 48.6171 43.5806 49.7959 44.6527 50.9041C46.5714 52.886 48.7403 54.6013 51.1716 56.0445C51.4694 56.2215 51.7642 56.4041 52.0566 56.5881C52.1013 56.6161 52.129 56.6672 52.1652 56.7077C52.1498 56.7399 52.1329 56.7721 52.1159 56.8043Z" fill="#0F0D01"/>
<path d="M123.131 70.9896C111.853 74.4784 99.3399 70.6 95.3047 67.8555C95.5056 67.6645 95.651 67.8485 95.8042 67.9227C99.3946 69.6604 103.205 70.7965 107.19 71.5255C110.235 72.0817 113.295 72.1446 116.365 71.9991C117.971 71.9229 119.545 71.5423 121.125 71.2576C121.747 71.1449 122.36 70.9379 123.131 70.9896Z" fill="#0F0D01"/>
<path d="M92.8948 26.2109C92.7054 25.333 92.961 24.4788 93.1457 23.6225C93.6929 21.0886 94.2716 18.561 95.2545 16.1286C96.4759 13.1071 98.223 10.376 100.691 8.04709C101.36 7.41467 101.913 6.67383 102.788 6.14355C102.881 6.47236 102.632 6.60317 102.485 6.76128C101.523 7.79805 100.51 8.79775 99.5968 9.8674C97.1155 12.7707 95.5308 16.0747 94.528 19.6139C93.9569 21.6287 93.4712 23.6638 92.9533 25.6904C92.9102 25.8583 92.9132 26.0367 92.8948 26.2109Z" fill="#0F0D01"/>
<path d="M72.5193 4.15137C72.7271 4.89082 72.9257 5.62188 72.8972 6.38302C72.8787 6.88322 72.8926 7.38482 72.9026 7.88572C72.9372 9.65285 72.8156 11.4081 72.5362 13.1598C72.2861 14.7262 72.1599 16.3093 71.8936 17.8736C71.558 19.8415 71.1378 21.7975 70.6475 23.7402C70.3027 25.1086 69.9633 26.4784 69.5015 27.8482C69.2999 27.6012 69.4238 27.3711 69.4807 27.1493C70.0918 24.7819 70.6283 22.3998 71.0916 20.0066C71.371 18.5641 71.488 17.0971 71.7389 15.6496C72.0552 13.8223 72.2661 11.9839 72.4531 10.1454C72.5847 8.85884 72.507 7.55481 72.5178 6.25919C72.5239 5.55612 72.5193 4.85374 72.5193 4.15137Z" fill="#0F0D01"/>
<path d="M138.04 44.6797C136.503 47.3563 134.194 49.4417 131.812 51.4642C128.046 54.6599 121.087 58.3725 117.609 59.0679C117.645 58.8412 117.869 58.8188 118.038 58.7461C119.209 58.2452 120.389 57.759 121.556 57.2504C127.88 54.4955 133.081 50.4953 137.357 45.4716C137.583 45.2065 137.813 44.9434 138.04 44.6797Z" fill="#0F0D01"/>
<path d="M95.6773 12.4951C95.608 13.0471 95.3671 13.3976 95.1877 13.7634C93.7716 16.645 92.7426 19.6364 92.2162 22.7544C91.9714 24.2026 91.8221 25.664 91.7459 27.1352C91.6489 29.0191 91.6005 30.9017 91.5743 32.7864C91.5643 33.4964 91.2687 34.1722 91.3927 34.9551C91.1087 34.7186 91.2179 34.4989 91.2179 34.3079C91.2179 32.2456 91.1864 30.1825 91.2472 28.1216C91.3996 22.9573 92.4286 17.9728 95.0769 13.3395C95.2255 13.0807 95.324 12.7945 95.6773 12.4951Z" fill="#0F0D01"/>
<path d="M54.2869 54.6459C53.5935 53.9443 53.0524 53.1489 52.4706 52.3849C50.5819 49.907 48.4384 47.6313 46.0248 45.5633C44.3231 44.1054 42.426 42.8714 40.5696 41.589C40.0024 41.1973 39.4305 40.8111 38.8718 40.4095C38.5839 40.2025 38.3199 39.9674 37.9844 39.6953C38.166 39.6813 38.243 39.6526 38.2776 39.6757C40.2956 41.0049 42.3506 42.2928 44.3178 43.6822C47.9081 46.2181 50.8397 49.3068 53.2718 52.7921C53.6181 53.2881 53.9421 53.7974 54.2731 54.3025C54.337 54.399 54.4278 54.4997 54.2869 54.6459Z" fill="#0F0D01"/>
<path d="M62.8708 26.4648C62.3937 28.7721 61.948 31.052 61.6456 33.3473C61.5193 34.3036 61.38 35.2725 61.3978 36.2491C61.4131 37.1019 61.3939 37.9568 61.2715 38.8089C61.1615 39.5735 61.3477 40.3368 61.3593 41.1014C61.3924 43.3743 61.761 45.6039 62.3413 47.8097C62.4083 48.0643 62.4299 48.3294 62.4576 48.5904C62.4622 48.631 62.3867 48.6785 62.2975 48.7821C61.8311 48.2427 61.7726 47.5879 61.6448 46.9919C61.0984 44.4496 60.7397 41.8842 60.8197 39.2853C60.926 35.8441 61.2438 32.4259 62.1243 29.0645C62.3552 28.183 62.4737 27.2778 62.8708 26.4648Z" fill="#0F0D01"/>
<path d="M94.2726 10.6709C92.2723 13.5651 90.6052 16.5816 89.7463 19.9389C88.8881 23.2927 88.6526 26.6737 89.029 30.0982C87.288 24.1538 89.6593 15.1657 94.2726 10.6709Z" fill="#0F0D01"/>
<path d="M77.5117 45.6506C80.5487 43.0314 82.8892 39.9931 84.2761 36.4022C85.6538 32.8344 86.2179 29.1735 85.5999 25.3594C85.8877 25.7924 86.0786 26.4185 86.1179 27.0796C86.3803 31.4583 85.4814 35.618 83.2679 39.5286C82.0388 41.7015 80.4025 43.5897 78.4337 45.2456C78.3152 45.3456 78.1875 45.4372 78.0612 45.5296C77.9381 45.6191 77.8103 45.7038 77.6849 45.7912C77.6272 45.7437 77.5694 45.6968 77.5117 45.6506Z" fill="#0F0D01"/>
<path d="M26.6074 53.5264C27.5733 54.3022 28.2637 55.2627 28.8663 56.2729C30.2263 58.5514 31.5824 60.8307 33.1648 62.9916C34.4486 64.7455 35.9147 66.3419 37.7634 67.6361C39.0379 68.5281 40.5025 69.0717 41.9841 69.6257C41.7224 69.7706 41.5069 69.6313 41.2776 69.5733C38.276 68.8156 35.994 67.1359 34.1261 64.9393C32.656 63.2106 31.4238 61.3379 30.2601 59.4308C29.0572 57.4594 28.109 55.3572 26.6074 53.5264Z" fill="#0F0D01"/>
<path d="M96.2969 52.6778C96.46 52.0216 96.9172 51.5361 97.3937 51.0723C101.708 46.8748 106.828 43.8512 112.948 42.2996C114.096 42.0085 115.252 41.7497 116.405 41.4748C116.595 41.4293 116.782 41.395 116.98 41.4685C115.27 41.9638 113.566 42.4535 111.864 42.9495C107.832 44.1262 104.28 46.0815 101.016 48.4999C99.3793 49.713 97.87 51.0457 96.5147 52.5197C96.457 52.5834 96.3708 52.626 96.2969 52.6778Z" fill="#0F0D01"/>
<path d="M112.902 52.2667C114.599 51.4111 116.316 50.5877 117.987 49.6943C121.535 47.7985 124.89 45.6333 128.294 43.5395C130.73 42.0417 133.183 40.5669 135.679 39.1328C135.557 39.4266 135.266 39.57 135.007 39.7331C131.732 41.7919 128.432 43.82 125.181 45.9096C121.71 48.1406 118.062 50.0924 114.279 51.8441C113.856 52.0393 113.448 52.2779 112.902 52.2667Z" fill="#0F0D01"/>
<path d="M24.327 36.9482C24.8242 38.4754 25.2975 39.9361 25.7762 41.3955C26.6636 44.1035 27.7372 46.7472 29.1341 49.2762C30.3379 51.4554 31.8471 53.4275 33.8644 55.0568C33.9483 55.1239 34.076 55.1729 34.0498 55.3954C33.261 54.9246 32.6214 54.3649 32.0011 53.7871C30.0677 51.9842 28.8248 49.7883 27.7142 47.5196C26.1441 44.3127 25.182 40.9309 24.2538 37.5401C24.2231 37.4274 24.2215 37.3057 24.2231 37.1889C24.2238 37.1364 24.2662 37.084 24.327 36.9482Z" fill="#0F0D01"/>
<path d="M43.2733 34.7421C42.7715 34.328 42.5121 33.7956 42.205 33.2912C40.4964 30.488 39.3566 27.5008 38.8517 24.3317C38.6254 22.9088 38.5069 21.4656 38.4468 20.0272C38.3783 18.3783 38.4545 16.7252 38.4176 15.0749C38.3976 14.1914 38.5708 13.3386 38.7501 12.4795C38.7501 13.0035 38.8117 13.5359 38.7362 14.0507C38.6023 14.9651 38.657 15.8683 38.7254 16.7805C38.7978 17.7501 38.7793 18.7253 38.8132 19.6977C38.9387 23.2726 39.5282 26.7698 40.952 30.1249C41.5116 31.4436 42.2119 32.7036 42.8923 33.9726C43.0285 34.2252 43.147 34.4854 43.2733 34.7421Z" fill="#0F0D01"/>
<path d="M100.005 56.7376C99.88 56.3248 100.192 56.0618 100.397 55.7868C101.532 54.2702 102.869 52.913 104.389 51.7076C108.013 48.833 112.203 46.8106 116.564 45.049C116.68 45.0022 116.808 44.9805 116.933 44.9546C116.956 44.9497 116.988 44.9819 117.035 45.0078C116.746 45.247 116.383 45.3471 116.051 45.4975C112.806 46.9687 109.628 48.5399 106.717 50.526C104.344 52.1469 102.268 54.0302 100.553 56.2367C100.442 56.3801 100.323 56.52 100.198 56.6536C100.162 56.6921 100.092 56.7019 100.005 56.7376Z" fill="#0F0D01"/>
<path d="M125.784 14.1952C125.098 14.878 124.4 15.516 123.773 16.2072C122.05 18.1066 120.81 20.2781 119.626 22.474C118.102 25.3003 116.612 28.1406 115.096 30.9704C114.787 31.5482 114.433 32.1058 114.088 32.6914C113.936 32.5095 114.012 32.3773 114.082 32.245C116.335 27.9433 118.37 23.5458 120.939 19.3826C122.075 17.542 123.464 15.8875 125.205 14.487C125.359 14.3645 125.467 14.1435 125.784 14.1952Z" fill="#0F0D01"/>
<path d="M52.2333 44.2597C51.5245 43.8239 51.1327 43.1502 50.7595 42.4772C49.7197 40.603 49.0739 38.6162 48.7184 36.5406C48.3982 34.672 48.2766 32.7957 48.3882 30.9146C48.5098 28.8669 48.6576 26.8143 49.4503 24.7891C49.5403 25.0969 49.4811 25.334 49.4264 25.5796C49.1771 26.6996 48.9785 27.8224 48.8931 28.9697C48.8146 30.0282 48.7476 31.0832 48.7507 32.143C48.7645 36.3328 49.7682 40.2917 52.0648 43.9512C52.1279 44.0498 52.1779 44.1562 52.2333 44.2597Z" fill="#0F0D01"/>
<path d="M116.354 74.1652C114.341 74.4065 112.328 74.4408 110.33 74.2869C106.163 73.9651 102.091 73.2271 98.2461 71.6558C96.9739 71.136 95.7525 70.5316 94.6049 69.811C94.0293 69.45 93.4851 69.0457 93.1211 68.5371C93.235 68.3398 93.3289 68.3776 93.3982 68.4335C96.2281 70.7163 99.6322 71.9608 103.208 72.8682C105.354 73.4124 107.557 73.7286 109.768 73.9462C111.731 74.1386 113.707 74.2169 115.684 74.1666C115.908 74.1603 116.131 74.1652 116.354 74.1652Z" fill="#0F0D01"/>
<path d="M125.051 51.4978C130.962 48.1118 136.22 44.0431 140.803 39.2607C140.942 39.4664 140.728 39.6588 140.604 39.8246C140.295 40.2374 139.966 40.6438 139.597 41.0125C135.605 45.0008 131.149 48.4833 126.04 51.2515C125.817 51.3718 125.596 51.4943 125.368 51.6069C125.319 51.6307 125.248 51.6174 125.188 51.6209C125.143 51.5789 125.097 51.5383 125.051 51.4978Z" fill="#0F0D01"/>
<path d="M122.114 19.7207C121.799 20.3825 121.452 21.0331 121.174 21.7075C120.152 24.184 119.124 26.6563 117.693 28.9712C116.264 31.2833 114.717 33.5248 112.908 35.6109C112.709 35.8404 112.537 36.095 112.066 36.2902C112.313 35.9369 112.477 35.6872 112.657 35.4479C115.012 32.311 117.279 29.1251 119.014 25.6573C119.589 24.5086 120.077 23.3242 120.617 22.1608C121.017 21.3025 121.438 20.4525 122.114 19.7207Z" fill="#0F0D01"/>
<path d="M84.1228 28.4346C84.256 29.344 83.9781 30.0415 83.7788 30.7397C82.9684 33.5884 81.9732 36.3748 80.2977 38.9212C78.9778 40.9269 77.4485 42.7808 75.5598 44.3779C75.1072 44.7606 74.627 45.1069 74.0921 45.3888C73.9551 45.4609 73.8111 45.5406 73.5918 45.4147C79.6035 41.0962 82.4873 35.1701 84.1228 28.4346Z" fill="#0F0D01"/>
<path d="M32.7793 57.8076C33.3781 58.0846 33.6906 58.5702 34.0307 59.034C35.3437 60.8207 36.6675 62.6004 38.2176 64.2283C39.967 66.0661 41.8965 67.7108 44.3409 68.7749C45.0382 69.0785 45.757 69.3409 46.5082 69.6389C46.2272 69.7564 46.0102 69.6676 45.7793 69.5983C43.0125 68.7665 40.6789 67.331 38.7086 65.3959C36.7422 63.4658 35.0851 61.3286 33.629 59.0592C33.3573 58.6352 33.0625 58.2246 32.7793 57.8076Z" fill="#0F0D01"/>
<path d="M108.033 63.8099C109.284 63.4231 110.521 63.4035 111.721 63.1999C115.683 62.5297 119.469 61.4195 123.035 59.695C124.979 58.7548 126.889 57.7691 128.703 56.633C128.806 56.5686 128.917 56.5161 129.067 56.4336C128.476 57.4319 122.063 60.6751 119.222 61.6734C115.647 62.9306 111.965 63.7323 108.033 63.8099Z" fill="#0F0D01"/>
<path d="M104.004 39.1856C108.797 34.7698 110.88 29.4188 110.737 23.2373C111.014 23.6242 111.045 24.0033 111.048 24.3874C111.082 28.9326 109.688 33.0776 106.782 36.7804C106.036 37.7319 105.198 38.6315 104.004 39.1856Z" fill="#0F0D01"/>
<path d="M104.931 76.1843C100.696 76.5866 91.2059 72.4598 89.4219 69.3984C91.5984 71.1628 93.9866 72.6333 96.6188 73.7708C99.261 74.9132 102.052 75.6247 104.931 76.1843Z" fill="#0F0D01"/>
<path d="M96.9591 53.4443C97.4655 53.8543 97.6672 54.3587 97.8003 54.8652C98.4661 57.4005 98.062 59.8105 96.7128 62.1016C96.1579 63.0439 95.4321 63.8715 94.6402 64.6502C94.0468 65.2336 93.4288 65.7975 92.7954 66.3445C92.4252 66.6643 92.0034 66.9329 91.5039 67.133C91.9972 66.6601 92.4829 66.1802 92.9854 65.7156C94.0329 64.7488 95.0088 63.7295 95.8347 62.5962C97.3255 60.5506 97.8381 58.2861 97.5879 55.8733C97.5256 55.2688 97.3316 54.6672 97.0822 54.0893C97.0076 53.9124 96.8029 53.748 96.9591 53.4443Z" fill="#0F0D01"/>
<path d="M95.3877 56.5986C95.7625 60.205 94.4117 63.2803 91.7542 65.9289C89.8185 67.8583 86.7731 69.6486 85.4531 69.6416C87.1356 68.7755 88.7926 67.9045 90.2034 66.7152C92.3553 64.9019 94.0239 62.7913 94.7973 60.1826C95.1421 59.0199 95.263 57.8145 95.3877 56.5986Z" fill="#0F0D01"/>
<path d="M75.7129 67.8288C78.0049 67.6861 79.849 66.7424 81.603 65.6042C83.2185 64.5555 84.4283 63.1885 85.3473 61.604C85.8298 60.7722 86.2608 59.9159 86.728 59.0764C86.8796 58.8036 86.9704 58.493 87.2467 58.2754C87.3514 58.4629 87.3022 58.6364 87.2306 58.7994C86.3986 60.6861 85.542 62.5694 84.0697 64.133C82.1617 66.1589 79.7697 67.4909 76.8874 68.0646C76.4979 68.1422 76.117 68.1569 75.7129 67.8288Z" fill="#0F0D01"/>
<path d="M75.5762 66.8845C81.1907 64.9201 83.9891 60.8563 85.5754 55.7773C85.7501 56.4007 85.7639 56.4042 85.6824 56.6595C84.7688 59.5299 83.3904 62.1568 80.9598 64.2534C79.5445 65.4749 77.9228 66.3501 76.0472 66.837C75.8971 66.8769 75.7332 66.8706 75.5762 66.8845Z" fill="#0F0D01"/>
<path d="M66.3659 58.3964C66.0165 58.0319 66.095 57.694 66.1165 57.3925C66.2381 55.6463 66.6907 53.9827 67.5912 52.4192C68.8357 50.2582 70.6236 48.5484 72.7801 47.1353C72.9979 46.9926 73.2219 46.7771 73.6621 46.938C73.1095 47.3584 72.5993 47.7341 72.1028 48.1252C69.914 49.8489 68.1746 51.8588 67.2179 54.3843C66.8154 55.4477 66.6022 56.5383 66.4637 57.6471C66.4367 57.864 66.4075 58.0795 66.3659 58.3964Z" fill="#0F0D01"/>
<path d="M88.1926 37.4053C88.492 41.2278 83.106 48.5363 79.7773 48.7874C81.9816 47.3442 83.8049 45.7498 85.2734 43.8372C86.7303 41.9406 87.5515 39.7999 88.1926 37.4053Z" fill="#0F0D01"/>
<path d="M39.704 14.5029C40.0718 17.9882 41.1978 21.1993 42.3838 24.3964C43.0958 26.3153 43.8461 28.2252 44.3426 30.2029C44.5865 31.1732 44.8521 32.1463 44.8544 33.1537C44.8544 33.2691 44.8829 33.3908 44.7351 33.5231C44.1871 29.7768 42.6671 26.3076 41.4249 22.7677C40.7768 20.9208 40.1965 19.0551 39.8609 17.1431C39.7163 16.3169 39.4569 15.469 39.704 14.5029Z" fill="#0F0D01"/>
<path d="M71.2757 49.873C70.69 50.7832 70.0789 51.6808 69.5233 52.6056C68.6205 54.1076 67.8778 55.6684 67.5753 57.376C67.2505 59.2096 67.3305 61.0075 68.1102 62.7488C68.2564 63.0748 68.405 63.4001 68.5481 63.7275C68.5558 63.745 68.5212 63.7779 68.4765 63.8562C67.6823 62.9062 67.2805 61.8393 67.0519 60.7158C66.5863 58.4282 67.1797 56.284 68.1787 54.2034C68.9468 52.6035 69.9412 51.1288 71.2757 49.873Z" fill="#0F0D01"/>
<path d="M78.5803 28.6801C78.9212 25.8433 79.5785 23.0533 79.54 20.1851C79.5023 17.3574 79.1698 14.5696 78.4609 11.6523C78.8381 12.0889 79.0236 12.3988 79.0874 12.7297C79.3484 14.0883 79.5946 15.4447 79.7478 16.8215C79.8987 18.1773 79.8717 19.5275 79.9117 20.8805C79.9548 22.3314 79.6855 23.7543 79.4461 25.1759C79.2468 26.3603 79.0082 27.5425 78.5803 28.6801Z" fill="#0F0D01"/>
<path d="M76.8709 52.796C76.57 53.369 76.1182 53.8153 75.7364 54.2987C74.368 56.0288 73.2182 57.8652 72.3608 59.8513C71.8251 61.093 71.5404 62.3845 71.3695 63.7018C71.2856 64.351 71.5912 64.9848 71.468 65.6347C70.9716 64.84 70.8377 63.7577 71.0339 62.6699C71.6489 59.2546 73.4368 56.3618 75.8157 53.7293C76.1028 53.4117 76.4076 53.1059 76.7077 52.7981C76.7224 52.7834 76.7685 52.796 76.8709 52.796Z" fill="#0F0D01"/>
<path d="M46.25 61.7373C48.1703 64.0627 50.343 65.8928 52.9574 67.2661C55.1594 68.4225 57.5045 69.0878 60.0874 68.8541C60.3121 68.8338 60.5407 68.8415 60.767 68.8401C60.7955 68.8401 60.8239 68.8618 60.8524 68.8737C59.2077 69.3494 57.6007 69.2969 55.5496 68.7254C53.0798 68.037 51.0148 66.747 49.1354 65.1813C48.2257 64.4237 47.4006 63.5933 46.7087 62.6614C46.534 62.425 46.3231 62.2011 46.25 61.7373Z" fill="#0F0D01"/>
<path d="M104.939 79.8559C111.194 81.2075 117.219 80.2309 123.218 78.5869C123.183 78.8073 122.976 78.8094 122.848 78.8765C122.682 78.964 122.495 79.0214 122.313 79.0822C120.519 79.686 118.649 80.0154 116.777 80.3352C115.313 80.5849 113.829 80.6801 112.35 80.813C111.772 80.8647 111.174 80.8962 110.602 80.8221C109.512 80.6808 108.401 80.7563 107.321 80.5206C106.508 80.3436 105.683 80.2134 104.939 79.8559Z" fill="#0F0D01"/>
<path d="M112.642 39.6972C109.925 40.4436 107.444 41.3251 105.062 42.4269C102.663 43.5372 100.593 45.0769 98.3984 46.7028C100.5 43.8338 109.233 39.5286 112.642 39.6972Z" fill="#0F0D01"/>
<path d="M60.5763 57.5761C57.9565 53.2688 54.9618 49.2308 51.1328 45.728C51.4037 45.593 51.5284 45.8288 51.677 45.9456C53.1093 47.0663 54.3168 48.3732 55.4767 49.7219C57.2784 51.8165 58.8939 54.0138 60.1099 56.4407C60.2569 56.7345 60.3962 57.0318 60.5309 57.3312C60.564 57.4061 60.5617 57.4942 60.5763 57.5761Z" fill="#0F0D01"/>
<path d="M74.9181 49.9541C73.3042 51.6093 71.7918 53.3191 70.8513 55.4073C69.9224 57.4703 69.6061 59.646 69.2982 61.821C69.0011 57.0177 70.7244 52.9938 74.9181 49.9541Z" fill="#0F0D01"/>
<path d="M45.4732 26.568C45.7542 20.9889 45.1246 15.4825 43.8809 10.0244C44.8598 12.9766 46.5277 19.8514 45.4732 26.568Z" fill="#0F0D01"/>
<path d="M67.4049 48.3048C66.7215 49.3885 65.978 50.4539 65.4146 51.611C64.6781 53.1242 64.1301 54.6857 64.0362 56.343C63.9869 57.2188 64.1347 58.094 64.4395 58.9412C64.5326 59.2008 64.7166 59.4631 64.625 59.7737C64.2278 59.7828 64.2071 59.5141 64.1178 59.3127C63.442 57.7932 63.3782 56.2296 63.7645 54.6472C64.3048 52.4351 65.3869 50.449 66.8716 48.6385C66.9862 48.4986 67.1317 48.379 67.2649 48.251C67.2841 48.2328 67.3241 48.2076 67.3349 48.2139C67.3603 48.2286 67.3726 48.2601 67.4049 48.3048Z" fill="#0F0D01"/>
<path d="M90.5489 51.1189C90.3026 50.7271 90.4796 50.5305 90.6158 50.3381C91.0206 49.7673 91.484 49.2377 91.9812 48.7305C94.3116 46.3519 97.0824 44.4694 100.034 42.7869C100.678 42.4196 101.309 42.0341 102.036 41.8047C99.9593 43.201 97.7412 44.4071 95.7909 45.9539C93.8591 47.4853 92.0204 49.0915 90.5489 51.1189Z" fill="#0F0D01"/>
<path d="M55.4881 70.7065C53.8688 70.8912 52.3187 70.7666 50.7886 70.3035C47.2868 69.2436 44.1944 67.5919 41.6307 65.1574C41.0635 64.6187 40.4816 64.0913 40.0898 63.4141C40.7948 64.0465 41.4868 64.6915 42.2079 65.3085C44.8709 67.5849 47.9348 69.2367 51.4644 70.1363C52.6158 70.4301 53.7964 70.6064 55.0017 70.5875C55.1617 70.584 55.328 70.5589 55.4881 70.7065Z" fill="#0F0D01"/>
<path d="M92.5543 73.2497C92.5281 73.6415 92.1579 73.6862 91.8678 73.773C90.9419 74.0514 89.9883 74.1599 89.0086 74.1829C86.7527 74.2368 84.5662 73.9388 82.4335 73.2763C81.757 73.0664 81.1105 72.7992 80.4979 72.469C80.1484 72.2808 79.7798 72.0982 79.5781 71.7498C79.729 71.6148 79.836 71.719 79.9376 71.775C81.884 72.8397 84.0159 73.3749 86.2525 73.6205C86.765 73.6764 87.2661 73.7772 87.7894 73.7919C89.2887 73.8331 90.7587 73.7121 92.1941 73.3008C92.3134 73.2665 92.4504 73.2819 92.5789 73.2735L92.5543 73.2497Z" fill="#0F0D01"/>
<path d="M36.9941 20.5723C37.1188 21.5412 37.1873 22.4464 37.2543 23.3545C37.4267 25.703 37.7961 28.0213 38.772 30.2278C39.4654 31.7949 40.4021 33.2325 41.5227 34.5764C41.6543 34.7338 41.8521 34.8576 41.8737 35.0899C41.7051 35.1773 41.6535 35.0227 41.5927 34.9598C39.4023 32.6693 37.9308 30.0788 37.4174 27.0412C37.1019 25.1748 36.9487 23.3062 36.9025 21.4243C36.8964 21.1634 36.8502 20.8955 36.9941 20.5723Z" fill="#0F0D01"/>
<path d="M46.7113 20.3834C46.2472 15.5367 45.1312 10.8279 43.1094 6.16797C43.6381 6.60311 43.8506 7.06414 44.0337 7.51117C45.005 9.87994 45.8262 12.2886 46.221 14.8022C46.3904 15.8767 46.5835 16.9492 46.7298 18.0265C46.836 18.8093 46.796 19.5978 46.7113 20.3834Z" fill="#0F0D01"/>
<path d="M72.2871 65.9534C75.8459 63.8533 77.6654 60.6464 79.4017 57.3584C79.5487 57.5445 79.4886 57.6816 79.4294 57.8187C78.572 59.7915 77.6315 61.7238 76.1584 63.3978C75.3241 64.3465 74.3821 65.1902 73.2453 65.8401C72.9836 65.9891 72.7258 66.1661 72.2871 65.9534Z" fill="#0F0D01"/>
<path d="M102.363 57.3821C106.182 53.54 110.936 50.9026 116.021 48.6982C115.449 49.2012 114.735 49.5098 114.053 49.8547C111.051 51.372 108.134 53.0027 105.464 54.9805C104.409 55.7619 103.378 56.5664 102.363 57.3821Z" fill="#0F0D01"/>
<path d="M112.891 25.0036C113.089 21.6666 116.847 16.8318 119.599 15.6992C119.462 16.0567 119.189 16.1959 118.98 16.3687C117.285 17.7644 115.838 19.344 114.746 21.1741C114.021 22.3879 113.485 23.6821 112.891 25.0036Z" fill="#0F0D01"/>
<path d="M87.2317 27.851C86.4321 23.2786 87.1155 18.9076 89.3752 14.75C87.605 18.974 86.9754 23.3527 87.2317 27.851Z" fill="#0F0D01"/>
<path d="M123.507 24.5068C121.503 28.882 119.253 33.0948 115.127 36.1961C116.833 34.4618 118.48 32.6849 119.802 30.6792C121.132 28.6588 122.266 26.544 123.507 24.5068Z" fill="#0F0D01"/>
<path d="M86.2841 36.7656C86.3757 37.2504 86.1571 37.5604 86.0108 37.8703C84.4685 41.1366 82.3042 43.9958 79.2896 46.2925C78.7677 46.6898 78.2298 47.0662 77.5925 47.3062C77.4417 47.3628 77.2993 47.4314 77.043 47.3187C81.4176 44.759 84.216 41.0883 86.2841 36.7656Z" fill="#0F0D01"/>
<path d="M63.189 67.8358C57.7437 68.3878 52.1361 65.2789 50.2051 62.498C50.4444 62.6932 50.6869 62.8849 50.9224 63.0843C53.0512 64.8906 55.4309 66.3198 58.2363 67.1083C59.2237 67.3853 60.2328 67.5756 61.2679 67.6057C61.9175 67.6238 62.5301 67.8645 63.189 67.8358Z" fill="#0F0D01"/>
<path d="M137.662 70.382C137.213 70.473 136.862 70.2582 136.488 70.2225C134.731 70.0553 133.005 70.2778 131.286 70.5206C128.931 70.8529 126.625 71.4076 124.317 71.9428C124.105 71.9918 123.879 71.9932 123.648 71.9708C124.738 71.5119 125.908 71.2943 127.046 70.9921C128.934 70.4905 130.86 70.1162 132.816 69.9336C134.032 69.8203 135.265 69.7622 136.491 69.9035C136.909 69.9518 137.3 70.0665 137.662 70.382Z" fill="#0F0D01"/>
<path d="M116.207 51.7256C120.629 49.5786 124.742 46.9601 129.093 44.5605C128.061 45.7023 118.344 51.2044 116.207 51.7256Z" fill="#0F0D01"/>
<path d="M73.944 6.33887C74.4073 9.86474 74.0479 14.7562 72.7826 19.1908C72.5763 18.4639 72.8457 17.8266 72.9573 17.2068C73.3421 15.0577 73.6261 12.9079 73.7254 10.7287C73.7924 9.2596 73.847 7.78909 73.944 6.33887Z" fill="#0F0D01"/>
<path d="M85.6055 65.745C89.917 63.1272 91.7795 59.2578 92.4661 54.791C93.0433 58.5156 89.3128 64.5291 85.6055 65.745Z" fill="#0F0D01"/>
<path d="M39.9326 54.2295C37.1234 53.2018 32.3247 47.0665 31.502 43.4287C33.4476 47.5877 36.0182 51.3423 39.9326 54.2295Z" fill="#0F0D01"/>
<path d="M65.8803 66.6383C63.6122 66.853 61.5257 66.6403 59.5331 65.8379C57.4112 64.9838 55.531 63.7931 53.8046 62.3932C53.74 62.3407 53.7007 62.2631 53.5938 62.126C53.9486 62.1456 54.1063 62.3422 54.2926 62.4737C56.012 63.686 57.8029 64.7949 59.8209 65.5616C61.1732 66.0758 62.5793 66.3871 64.0563 66.3878C64.6366 66.3878 65.2146 66.4221 65.8803 66.6383Z" fill="#0F0D01"/>
<path d="M41.9209 5.79102C41.9209 6.3171 41.9263 6.84248 41.9201 7.36857C41.8985 9.25113 42.1379 11.1113 42.4589 12.9673C42.679 14.2384 42.8729 15.5137 43.0576 16.7891C43.0946 17.0416 43.1415 17.3103 43.003 17.6167C42.5143 15.6299 42.1725 13.6732 41.8962 11.7032C41.7046 10.3341 41.5299 8.9685 41.5353 7.58614C41.5376 6.96701 41.5853 6.35977 41.9209 5.79102Z" fill="#0F0D01"/>
<path d="M76.4549 8.97057C76.3941 7.88623 76.3641 6.90891 76.5065 5.91481C76.6697 4.7745 76.9244 3.66638 77.3508 2.58763C77.5694 2.03357 77.8326 1.4984 78.1882 1.00519C78.3813 0.737256 78.6084 0.493786 79.0555 0.423828C78.7677 0.906537 78.4421 1.37457 78.2035 1.87687C77.9357 2.44003 77.6871 3.01367 77.5363 3.61811C77.3947 4.18826 77.1953 4.74792 77.0753 5.32157C76.949 5.92461 76.8467 6.53674 76.8097 7.14817C76.7743 7.73791 76.7151 8.31507 76.4549 8.97057Z" fill="#0F0D01"/>
<path d="M89.9954 53.6797C90.6334 55.9232 88.8802 60.8203 85.8047 63.4199C86.4604 62.3985 87.3286 61.4982 87.9043 60.4306C88.4738 59.375 88.9595 58.2962 89.3112 57.1601C89.666 56.0184 89.7684 54.8396 89.9954 53.6797Z" fill="#0F0D01"/>
<path d="M90.8874 62.9668C91.066 63.2515 90.892 63.3872 90.8051 63.5279C89.5105 65.6119 87.7426 67.3147 85.6507 68.7467C85.0804 69.1371 84.4339 69.4141 83.7636 69.6415C83.6058 69.6946 83.4634 69.7086 83.2148 69.6037C86.5058 68.0541 88.9002 65.7238 90.8874 62.9668Z" fill="#0F0D01"/>
<path d="M54.8984 57.2842C52.0892 54.3215 49.233 51.3945 46.3984 48.4577C46.5554 48.2709 46.6455 48.4108 46.7132 48.4779C49.2777 51.016 51.8591 53.5415 54.258 56.2139C54.5382 56.5259 54.8106 56.8449 54.8984 57.2842Z" fill="#0F0D01"/>
<path d="M29.0215 59.0352C31.0618 62.0699 33.0121 65.153 36.0067 67.7813C33.6424 66.7298 30.3099 62.0154 29.0215 59.0352Z" fill="#0F0D01"/>
<path d="M71.0396 58.6229C70.8602 56.3751 73.614 51.9363 76.5356 49.8564C76.4625 50.2279 76.2262 50.4077 76.0407 50.5931C75.258 51.3773 74.5499 52.2147 73.8634 53.0689C72.5119 54.7479 71.7153 56.6605 71.0396 58.6229Z" fill="#0F0D01"/>
<path d="M117.794 55.4297C113.827 57.5263 109.854 59.6474 105.395 60.8325C109.65 59.2739 113.695 57.3164 117.794 55.4297Z" fill="#0F0D01"/>
<path d="M108.501 14.543C109.732 18.3032 109.431 22.0145 108.628 25.7306C108.424 24.7561 108.755 23.8054 108.801 22.84C108.825 22.3468 108.914 21.8487 108.918 21.3485C108.935 19.7583 108.969 18.1675 108.72 16.5878C108.638 16.0667 108.525 15.5497 108.42 15.0313C108.391 14.8879 108.328 14.7465 108.501 14.543Z" fill="#0F0D01"/>
<path d="M91.8301 68.4018C95.5297 66.3569 97.8417 63.4537 98.7107 59.5186C98.8284 59.9446 98.8084 60.2965 98.7107 60.6421C97.831 63.7552 96.0223 66.2751 92.9892 68.0051C92.6451 68.2017 92.308 68.4249 91.8301 68.4018Z" fill="#0F0D01"/>
<path d="M75.6836 61.3042C77.3037 58.5457 78.8414 55.788 79.1608 52.6035C79.4933 52.749 79.4572 52.9603 79.4395 53.1632C79.3148 54.5763 78.9523 55.9391 78.3389 57.241C77.6508 58.7031 76.7903 60.0764 75.6836 61.3042Z" fill="#0F0D01"/>
<path d="M89.5701 10.8662C86.2153 15.382 86.3246 16.6328 85.274 19.4668C85.1409 19.2702 85.1847 19.0604 85.2186 18.8568C85.2517 18.6553 85.311 18.4566 85.361 18.2572C85.9282 16.013 86.7602 13.8702 88.2841 11.9946C88.6435 11.5525 89.0522 11.1558 89.5701 10.8662Z" fill="#0F0D01"/>
<path d="M48.4913 67.8615C45.8868 67.2669 41.1219 62.9421 40.4531 60.9805C42.7443 63.6508 45.2472 66.1147 48.4913 67.8615Z" fill="#0F0D01"/>
<path d="M50.9336 17.3378C51.0991 13.9672 52.3074 10.9233 54.5294 8.20898C53.7197 9.66411 52.8969 11.115 52.3328 12.6744C51.7794 14.2079 51.3815 15.777 50.9336 17.3378Z" fill="#0F0D01"/>
<path d="M80.768 2.74707C81.0181 4.82551 80.9981 6.89626 80.7195 8.9733C80.5909 9.93173 80.4755 10.8915 80.2808 11.8402C80.193 12.2676 80.1322 12.7384 79.5234 13.1393C80.0791 11.3169 80.1592 9.59593 80.4716 7.90645C80.7872 6.19948 80.6317 4.46593 80.768 2.74707Z" fill="#0F0D01"/>
<path d="M34.6456 29.5834C33.5096 26.0778 33.8605 22.6184 34.9734 19.1807C34.24 22.6345 34.063 26.1016 34.6456 29.5834Z" fill="#0F0D01"/>
<path d="M50.3957 54.6195C47.0609 52.0535 44.1324 49.1488 41.6172 45.9014C43.1218 47.3201 44.4471 48.8837 45.9179 50.3311C47.3903 51.7806 48.9373 53.1623 50.3957 54.6195Z" fill="#0F0D01"/>
<path d="M51.668 49.8359C54.2132 52.2845 56.3658 54.9848 57.5542 58.3099C57.1647 58.2631 57.1209 58.0427 57.0462 57.8755C55.7547 54.9834 53.8907 52.4118 51.7442 49.9954C51.7057 49.9521 51.6926 49.8898 51.668 49.8359Z" fill="#0F0D01"/>
<path d="M55.7852 59.712C56.581 59.5525 57.2244 59.6638 57.8409 59.8303C60.5739 60.569 62.9759 61.8835 65.4134 63.452C64.9162 63.5121 64.6876 63.31 64.4482 63.1735C62.8274 62.2508 61.1634 61.4022 59.3956 60.7306C58.4712 60.3794 57.5538 60.0129 56.5371 59.924C56.3177 59.9044 56.1076 59.8051 55.7852 59.712Z" fill="#0F0D01"/>
<path d="M41.1914 24.5088C42.6399 28.1333 44.173 31.7361 44.7887 35.5817C43.7828 31.8383 42.3374 28.2138 41.1914 24.5088Z" fill="#0F0D01"/>
<path d="M58.6169 65.9722C56.0247 65.7392 51.7086 62.7464 50.4648 60.3252C51.0582 60.7233 51.2884 61.1738 51.6578 61.4963C52.078 61.8636 52.4644 62.2623 52.8915 62.6226C53.294 62.9619 53.7212 63.2802 54.1553 63.5866C54.5893 63.8931 55.0342 64.1897 55.496 64.4597C55.9847 64.7451 56.4934 65.004 57.006 65.2537C57.4747 65.4811 57.9589 65.6805 58.6169 65.9722Z" fill="#0F0D01"/>
<path d="M88.5417 70.0693C86.0265 71.8442 80.3203 71.5126 78.25 70.3114C84.7158 71.4678 83.9438 71.1061 88.5417 70.0693Z" fill="#0F0D01"/>
<path d="M84.9512 49.6792C85.2967 48.9236 85.9294 48.4535 86.3596 47.8617C86.7891 47.2705 87.2062 46.6759 87.5472 46.0393C87.9012 45.3782 88.2322 44.7066 88.577 44.0413C88.8971 43.4242 89.1365 42.7716 89.5929 42.123C89.0795 44.8885 86.599 48.9656 84.9512 49.6792Z" fill="#0F0D01"/>
<path d="M70.1157 45.2122C66.8917 46.7981 64.8368 49.2082 63.6484 52.3052C63.6985 49.763 67.9122 45.0289 70.1157 45.2122Z" fill="#0F0D01"/>
<path d="M55.2168 11.3533C56.1165 8.54655 57.4549 5.96511 59.8947 3.95312C59.1358 5.19278 58.0929 6.26732 57.341 7.51397C56.5821 8.77251 55.9518 10.0877 55.2168 11.3533Z" fill="#0F0D01"/>
<path d="M105.92 47.6699C103.06 49.6071 100.502 51.8219 98.5703 54.5929C99.0837 52.7209 102.733 49.2671 105.92 47.6699Z" fill="#0F0D01"/>
<path d="M78.7482 63.3308C78.3141 63.5007 78.0894 63.8778 77.7754 64.1632C76.8503 65.0055 75.8174 65.6988 74.6175 66.1822C74.4998 66.2298 74.3813 66.2774 74.2581 66.3103C74.2004 66.3256 74.1319 66.3061 74.0195 66.2998C74.7599 65.8758 75.4895 65.5009 76.1676 65.0601C77.6676 64.0842 78.7582 62.7662 79.7457 61.374C80.1313 60.8305 80.4891 60.2708 80.8578 59.7174C80.9494 59.5796 80.9902 59.404 81.198 59.3516C81.335 59.5565 81.1403 59.6915 81.0618 59.8329C80.4768 60.8843 79.8195 61.8966 79.0314 62.8355C78.8967 62.9957 78.7074 63.1314 78.7136 63.3629L78.7482 63.3308Z" fill="#0F0D01"/>
<path d="M52.6836 15.9303C53.1123 13.0565 54.1328 10.3827 56.0531 8.02441C55.432 9.32983 54.6531 10.5709 54.1344 11.9225C53.6241 13.2516 53.24 14.6144 52.6836 15.9303Z" fill="#0F0D01"/>
<path d="M134.762 50.3467C132.92 52.8365 130.312 54.5169 127.488 55.9902C127.655 55.8516 127.808 55.6984 127.989 55.5781C129.424 54.6246 130.871 53.6879 132.211 52.6189C133.114 51.8983 133.88 51.0651 134.762 50.3467Z" fill="#0F0D01"/>
<path d="M120.564 15.6621C118.357 17.728 116.673 20.124 115.051 22.711C115.236 21.193 118.311 17.2453 120.564 15.6621Z" fill="#0F0D01"/>
<path d="M83.4646 4.52246C84.1096 7.05073 83.7286 9.50415 82.8789 11.9247C83.2476 9.46567 83.5677 7.00456 83.4646 4.52246Z" fill="#0F0D01"/>
<path d="M53.1582 59.8876C53.8509 59.7323 54.4897 59.9456 55.1308 60.1324C57.1472 60.7193 58.9274 61.733 60.8177 62.6971C60.5075 62.8678 60.3359 62.681 60.1758 62.6089C59.1329 62.1416 58.1001 61.6554 57.0657 61.1727C55.8265 60.5948 54.5251 60.1779 53.1582 59.8876Z" fill="#0F0D01"/>
<path d="M82.5179 9.22297C82.3394 7.07667 82.6195 4.91847 82.3086 2.77637C83.1444 4.90378 82.805 7.06407 82.5179 9.22297Z" fill="#0F0D01"/>
<path d="M116.377 35.9781C118.314 34.9483 119.708 33.5912 120.884 32.0332C120.429 33.6723 117.915 35.9221 116.377 35.9781Z" fill="#0F0D01"/>
<path d="M91.1262 53.2148C91.4733 55.2639 90.8291 57.1346 89.9102 58.9591C90.3981 57.0548 91.0839 55.1828 91.1262 53.2148Z" fill="#0F0D01"/>
<path d="M138.092 71.1023C136.007 71.1932 134.035 71.6193 132.023 71.8068C132.636 71.5234 133.29 71.401 133.955 71.287C134.62 71.173 135.278 70.9708 135.952 70.9729C136.641 70.975 137.357 70.6238 138.092 71.1023Z" fill="#0F0D01"/>
<path d="M86.0603 13.5215C85.1621 15.2131 84.755 17.0194 84.2324 18.7935C84.3386 16.8893 84.7966 15.0815 86.0603 13.5215Z" fill="#0F0D01"/>
<path d="M78.7127 63.3636C79.2137 63.2202 79.4238 62.8026 79.7101 62.4661C80.1988 61.8931 80.5921 61.2607 81.0162 60.6514C80.4798 62.2863 79.2622 63.4756 77.8945 64.5669C77.9707 64.031 78.6934 63.8771 78.7465 63.3308L78.7127 63.3636Z" fill="#0F0D01"/>
<path d="M93.8771 71.3097C92.5725 70.948 90.6099 69.8105 90.0781 69.1746C90.0958 69.1522 90.1104 69.1249 90.1335 69.1081C90.1551 69.0913 90.1889 69.071 90.2128 69.0759C90.2744 69.0878 90.3413 69.1018 90.3921 69.1333C91.4943 69.8189 92.5948 70.5087 93.8771 71.3097Z" fill="#0F0D01"/>
<path d="M41.7988 61.2998C42.8163 62.3876 43.8407 63.4608 44.8866 64.5179C43.6044 63.6434 42.5338 62.6003 41.7988 61.2998Z" fill="#0F0D01"/>
<path d="M69.9689 105.613C70.4299 106.014 70.3483 106.328 70.3414 106.608C70.3176 107.643 70.4761 108.666 70.5615 109.693C70.5992 110.147 70.837 110.53 71.0787 110.917C73.3553 114.562 75.2656 118.357 76.6794 122.352C76.8041 122.704 77.0496 123.047 76.8887 123.591C74.9677 118.867 72.8281 114.368 69.9851 110.156C69.5633 110.076 69.1562 109.986 68.7436 109.924C68.348 109.865 67.9093 109.981 67.4429 109.662C68.1718 109.405 68.819 109.633 69.5333 109.499C68.4319 107.833 67.2305 106.288 65.9537 104.803C65.3126 104.7 64.7053 104.628 64.0873 104.618C63.4877 104.609 62.8874 104.873 62.2486 104.645C62.7489 104.248 62.7489 104.247 63.7271 104.241C64.2728 104.237 64.8185 104.24 65.4765 104.24C64.4367 103.014 63.4085 101.927 62.314 100.894C61.138 100.811 60.0721 101.21 58.9484 101.293C59.7265 100.62 60.7863 100.702 61.7322 100.46C61.579 100.056 61.2465 99.953 60.8194 99.953C59.8119 99.9537 58.8129 99.997 57.8424 100.276C57.5753 100.353 57.2998 100.403 56.9873 100.474C57.2736 99.8515 57.3614 99.827 60.5539 99.4059C60.5162 99.1799 60.3084 99.0694 60.1498 98.9337C58.1126 97.1903 55.9106 95.6436 53.534 94.2962C52.9306 93.9548 52.3564 93.8974 51.6891 94.0415C50.4508 94.3095 49.3079 94.7922 48.1503 95.2497C47.8325 95.3749 47.5392 95.5918 47.1459 95.5267C47.7393 94.8223 49.0023 94.3011 51.9916 93.5302C50.1414 92.5864 48.2311 91.8764 46.2424 91.3412C45.6243 91.1747 44.9778 91.0956 44.3583 90.9319C43.9481 90.8235 43.6063 90.9004 43.2485 91.0662C42.2564 91.5259 41.4044 92.159 40.5693 92.8159C40.0644 93.2132 39.548 93.598 39.007 93.9534C39.4611 93.0754 40.2153 92.4444 42.7697 90.7472C42.6443 90.5681 42.438 90.6234 42.2795 90.6234C40.7217 90.6171 39.1601 90.5555 37.6078 90.6395C35.7868 90.7381 34.0682 91.2894 32.3727 91.8742C32.0925 91.9708 31.9016 92.1842 31.7007 92.3751C30.9303 93.1062 30.3593 93.9611 29.8359 94.8467C29.5019 95.4113 29.1578 95.9703 28.7515 96.6426C28.8523 95.6149 29.4234 94.4956 30.7341 92.6466C30.4739 92.4969 30.3031 92.7102 30.1253 92.7928C27.8633 93.8484 25.8245 95.2056 23.8589 96.6608C23.471 96.9476 23.2062 97.3093 23.0069 97.7199C22.5382 98.6874 22.0633 99.6521 21.5207 100.763C21.5399 99.7207 22.1587 98.9589 22.1888 98.0725C21.2051 99.2373 20.9181 100.686 20.1985 101.963C20.2747 100.934 20.7141 99.9865 20.9642 98.954C20.6803 99.1715 20.3824 99.3758 20.1138 99.6081C19.3134 100.299 18.5329 101.007 17.7287 101.694C17.1745 102.167 16.7458 102.709 16.4711 103.353C16.2486 103.874 16.0362 104.399 15.7953 104.913C15.6637 105.194 15.6191 105.523 15.2804 105.773C15.2981 104.989 15.7653 104.344 15.8523 103.596C15.0041 103.994 13.2601 105.602 12.4443 106.659C11.5315 107.841 10.7011 109.068 9.876 110.307C9.99607 109.087 10.8912 108.19 11.4946 107.163C9.31724 108.578 7.33235 110.243 4.68555 110.921C7.17226 109.849 9.28416 108.304 11.4861 106.553C9.93989 106.8 8.63766 107.289 7.19304 107.226C7.25769 106.908 7.49395 106.928 7.69868 106.905C8.98321 106.762 10.25 106.544 11.4907 106.203C11.9009 106.09 12.2773 105.937 12.5875 105.662C13.608 104.753 14.6301 103.848 15.6483 102.938C15.7137 102.88 15.7468 102.793 15.8623 102.616C14.2961 102.69 12.796 103.057 11.3245 102.652C11.3237 102.592 11.3229 102.532 11.3222 102.472C11.717 102.472 12.1126 102.473 12.5074 102.472C13.5757 102.47 14.6447 102.514 15.7053 102.318C15.9931 102.265 16.3179 102.264 16.5288 102.092C17.2169 101.533 17.9234 100.985 18.6322 100.228C16.8713 100.545 15.2635 100.814 13.618 100.643C14.3292 100.499 15.038 100.362 15.7715 100.353C16.6804 100.343 17.5671 100.171 18.4568 100.021C19.0648 99.918 19.5081 99.6284 19.9129 99.0918C17.948 99.3401 16.0832 99.6913 13.9959 99.6151C14.5677 99.3534 15.0049 99.322 15.4482 99.2842C16.8967 99.1618 18.3436 99.0253 19.7682 98.7504C20.1769 98.6713 20.5979 98.5965 20.9319 98.339C22.0664 97.4646 23.197 96.5866 24.4784 95.5946C23.3809 95.5813 22.4319 95.6422 21.5061 95.5386C20.6056 95.4379 19.6435 95.4624 18.7392 94.9125C19.6712 94.7348 20.4501 95.0188 21.2344 95.1182C22.3696 95.2616 23.4987 95.2168 24.6308 95.1958C24.9833 95.1895 25.3289 95.0573 25.6198 94.8579C27.2268 93.7568 28.9216 92.7837 30.8749 91.9393C28.8877 91.5552 26.9575 91.4069 25.3835 90.3072C25.579 89.9861 25.7653 90.1554 25.913 90.2246C27.2214 90.8347 28.623 91.1831 30.0576 91.4195C30.9858 91.5727 31.9016 91.6175 32.8221 91.2572C33.5587 90.9683 34.3591 90.8116 35.1349 90.608C35.3227 90.559 35.522 90.552 35.6251 90.3688C32.7705 88.384 32.2457 87.8839 32.0548 86.9618C32.3072 86.8401 32.3934 87.0381 32.4958 87.1654C33.4109 88.2966 34.5784 89.1781 35.8191 89.9945C36.157 90.2169 36.4956 90.3009 36.9066 90.2666C37.9679 90.1785 39.0216 90.0043 40.1568 90.0854C40.0937 89.6986 39.8074 89.5397 39.605 89.3432C38.4952 88.2651 37.8086 86.9751 37.3084 85.5906C37.2399 85.4004 37.1698 85.194 37.3261 84.982C37.6793 85.2101 37.7063 85.5892 37.8417 85.9041C38.4397 87.2913 39.2717 88.5401 40.3738 89.6468C40.7371 90.012 41.1204 90.1911 41.7084 90.0092C40.4231 88.4288 39.1978 86.8331 38.8045 84.7938C39.2902 84.8176 39.2794 85.1198 39.3333 85.3024C39.7343 86.661 40.4939 87.8538 41.3521 89.0025C41.5699 89.2942 41.8439 89.5503 42.0817 89.8301C42.4188 90.2274 42.839 90.3541 43.3677 90.189C40.9234 87.1822 40.1114 85.7299 40.2915 84.6455C40.6363 84.8533 40.6732 85.1905 40.7848 85.4857C41.4152 87.1556 42.488 88.5883 43.6802 89.9567C43.9042 90.2135 44.1612 90.4072 44.5461 90.4793C46.2277 90.7948 47.8571 91.2768 49.4587 91.8379C49.5041 91.854 49.5734 91.8113 49.6942 91.7798C48.6906 89.8895 48.0626 87.9028 47.7901 85.8264C47.7601 85.6011 47.7008 85.3542 47.8832 85.1436C48.1765 85.1436 48.1434 85.3472 48.1634 85.5151C48.3758 87.278 48.8699 88.9787 49.5657 90.6311C49.7504 91.069 50.009 91.4818 50.2322 91.9064C50.3476 92.1268 50.5193 92.2849 50.7686 92.3926C52.1755 92.9985 53.5193 93.7092 54.917 94.5109C55.0063 93.6554 54.5853 92.9292 54.5768 92.1583C54.5676 91.3643 54.3836 90.5793 54.4098 89.7783C54.4444 88.7331 54.5807 87.9216 54.917 87.413C55.0255 88.1063 54.9509 88.7094 54.9093 89.3103C54.7869 91.0557 55.0093 92.7746 55.3934 94.4802C55.4457 94.7124 55.5689 94.9153 55.7952 95.065C56.5787 95.5848 57.3537 96.1151 58.1226 96.6356C58.3866 96.488 58.2703 96.3159 58.2164 96.1605C57.6654 94.5515 57.3799 92.9033 57.3006 91.2215C57.2867 90.9291 57.2005 90.6402 57.162 90.3485C57.1005 89.8791 57.132 89.7783 57.4545 89.2739C57.6007 90.5297 57.7585 91.7553 57.8824 92.9831C58.0125 94.2766 58.345 95.5288 58.7437 96.7713C58.9053 97.275 59.2416 97.6171 59.9158 97.913C58.9876 95.2784 58.5782 92.7074 58.5089 90.0896C58.5058 89.9728 58.5174 89.8525 58.6806 89.7727C58.893 89.7643 58.8607 89.942 58.8753 90.0714C59.0069 91.2418 59.1146 92.415 59.264 93.584C59.4656 95.1644 59.8627 96.7062 60.4507 98.2054C60.5716 98.5139 60.7647 98.7784 61.0272 99.0113C62.117 99.9782 63.1907 100.96 64.2705 102.117C64.3744 101.354 64.342 100.702 64.2612 100.056C64.1796 99.4087 64.075 98.7504 64.2097 98.118C64.3467 97.4758 64.1596 96.7741 64.596 96.1787C64.7538 96.7006 64.7238 97.2211 64.6884 97.7388C64.5945 99.1254 64.6891 100.511 64.7069 101.896C64.7161 102.641 65.1671 103.159 65.8059 103.719C65.5935 101.624 65.2702 99.6165 65.7797 97.5114C66.1122 97.9983 66.0645 98.4503 66.0091 98.8728C65.7805 100.618 66.0891 102.337 66.2654 104.064C66.2846 104.25 66.367 104.402 66.4801 104.547C67.6276 106.006 68.7713 107.466 69.9689 108.954C69.9689 107.888 69.9689 106.821 69.9689 105.613Z" fill="#0F0D01"/>
<path d="M75.2988 178.053C75.3419 177.557 75.5397 177.159 75.7198 176.759C77.6855 172.394 79.8074 168.097 82.3588 163.984C82.7544 163.346 82.7874 162.625 82.8128 161.932C82.8667 160.429 82.8613 158.922 82.8075 157.42C82.7782 156.608 82.6004 155.801 82.5566 154.983C83.1684 156.205 83.2354 157.508 83.2215 158.82C83.2084 160.111 83.3277 161.407 83.0761 162.699C83.9588 161.685 84.7131 160.652 84.6053 159.258C84.533 158.321 84.8032 157.387 84.7855 156.438C84.7516 154.668 84.5615 152.917 84.2498 151.173C84.2044 150.92 84.1505 150.661 84.3598 150.239C85.1064 153.605 85.4473 156.82 84.6985 160.28C85.2696 159.764 85.6274 159.365 85.729 158.862C85.8398 158.316 85.973 157.769 85.9545 157.199C85.9245 156.256 85.9337 155.311 85.9514 154.367C85.9768 152.976 85.6805 151.618 85.475 150.25C85.3581 149.472 85.061 148.705 85.2673 147.9C86.1554 151.308 86.6311 154.748 86.2393 158.288C86.4148 158.06 86.5933 157.833 86.7657 157.603C87.6216 156.456 88.4312 155.278 89.3425 154.169C90.1776 153.152 90.4492 151.993 90.6101 150.792C90.8695 148.855 90.8271 146.908 90.8117 144.962C90.801 143.577 90.637 142.202 90.4731 140.827C90.3938 140.166 90.4215 139.497 90.3615 138.828C90.8741 139.844 90.8826 140.943 90.9757 142.01C91.0734 143.123 91.2581 144.233 91.2104 145.36C91.1642 146.45 91.2435 147.547 91.1565 148.633C91.068 149.74 91.0403 150.853 90.941 151.998C91.3466 151.477 91.7507 150.956 92.1579 150.437C92.8729 149.525 93.5332 148.571 94.319 147.712C95.408 146.522 95.9945 145.143 96.434 143.686C97.3868 140.528 97.5669 137.301 97.3922 134.055C97.3421 133.123 97.2821 132.189 97.2367 131.241C97.5138 131.518 97.5915 131.858 97.6115 132.207C97.6924 133.619 97.8347 135.025 97.8409 136.443C97.8524 139.201 97.4299 141.892 96.5941 144.536C96.5602 144.644 96.4532 144.741 96.5918 144.919C97.0874 144.334 97.5846 143.772 98.0517 143.192C99.621 141.24 101.179 139.28 102.745 137.326C103.253 136.692 103.504 135.973 103.661 135.212C104.094 133.116 104.129 130.999 104.09 128.876C104.064 127.438 104.066 125.999 103.678 124.4C104.15 124.874 104.15 125.308 104.237 125.703C104.533 127.043 104.451 128.404 104.472 129.757C104.498 131.523 104.495 133.292 104.064 135.031C104.044 135.112 104.077 135.203 104.085 135.298C104.765 134.771 105.017 134.327 105.208 133.388C105.724 130.849 105.667 128.285 105.59 125.723C105.571 125.112 105.39 124.506 105.287 123.897C105.26 123.736 105.162 123.564 105.343 123.42C106.149 124.65 106.298 129.109 105.664 133.206C105.914 133.126 105.984 132.931 106.088 132.781C107.319 131.012 108.53 129.232 109.78 127.474C110.201 126.882 110.405 126.237 110.46 125.566C110.613 123.68 110.559 121.799 110.154 119.936C110.08 119.594 110.132 119.236 109.839 118.748C110.411 119.289 110.467 119.635 110.706 120.941C110.85 121.729 110.812 122.528 110.988 123.309C111.159 124.068 110.827 124.825 110.914 125.778C111.354 125.136 111.7 124.646 112.028 124.145C112.64 123.208 113.238 122.262 113.848 121.323C114.203 120.776 114.353 120.186 114.373 119.554C114.414 118.224 114.25 116.912 114.04 115.601C114.008 115.4 113.953 115.192 114.074 114.994C114.524 115.521 114.567 115.784 114.819 119.541C115.056 119.41 115.122 119.198 115.229 119.016C116.044 117.639 116.674 116.188 117.271 114.725C117.394 114.424 117.479 114.109 117.815 113.77C117.754 114.62 117.458 115.309 117.207 115.998C116.943 116.722 116.612 117.429 116.272 118.128C115.933 118.824 115.546 119.5 115.259 120.266C115.539 120.063 115.817 119.858 116.099 119.659C116.739 119.205 117.404 118.781 118.136 118.458C118.444 118.322 118.747 118.113 119.141 118.245C119.161 118.493 118.919 118.492 118.777 118.568C118.189 118.88 117.58 119.159 117.007 119.491C115.477 120.377 114.225 121.497 113.412 123.003C113.041 123.689 112.556 124.323 112.138 124.989C112.034 125.154 111.822 125.293 111.924 125.589C112.772 124.977 113.635 124.427 114.548 123.947C115.56 123.415 116.607 122.954 117.715 122.611C118.055 122.507 118.381 122.384 118.744 122.525C118.686 122.798 118.435 122.788 118.23 122.854C115.889 123.612 113.732 124.671 111.827 126.13C111.456 126.414 111.096 126.721 110.796 127.066C110.458 127.455 110.194 127.896 109.996 128.424C110.145 128.309 110.294 128.193 110.443 128.079C112.479 126.503 114.691 125.179 117.157 124.222C117.684 124.018 117.685 124.022 118.31 124.048C118.007 124.363 117.618 124.435 117.283 124.57C114.476 125.707 111.924 127.196 109.663 129.093C109.158 129.516 108.734 129.991 108.371 130.522C107.618 131.624 106.836 132.709 106.068 133.803C105.971 133.939 105.89 134.085 105.911 134.31C106.197 134.144 106.488 133.985 106.768 133.811C109.574 132.064 112.624 130.809 115.914 130.026C116.41 129.908 116.899 129.846 117.444 130.003C117.161 130.082 116.882 130.18 116.593 130.238C112.408 131.084 108.708 132.853 105.28 135.141C105.016 135.317 104.803 135.536 104.618 135.783C103.941 136.683 103.258 137.58 102.558 138.502C102.864 138.681 103.055 138.449 103.248 138.357C106.068 137.01 109.02 135.983 112.119 135.317C113.219 135.081 114.328 134.859 115.471 134.887C115.68 134.893 115.934 134.818 116.062 135.056C116.044 135.177 115.944 135.191 115.857 135.191C113.361 135.175 111 135.794 108.666 136.496C106.729 137.079 104.868 137.831 103.04 138.66C102.223 139.03 101.625 139.545 101.221 140.274C101.461 140.419 101.604 140.223 101.746 140.147C105.51 138.164 109.564 136.909 113.816 136.154C114.417 136.047 115.035 136.019 115.647 135.967C115.867 135.948 116.095 135.953 116.338 136.199C115.871 136.284 115.485 136.394 115.092 136.42C112.649 136.581 110.334 137.238 108.033 137.929C105.63 138.651 103.344 139.625 101.14 140.76C100.707 140.983 100.331 141.248 100.081 141.644C100.153 141.72 100.224 141.795 100.301 141.878C99.8212 142.107 99.4364 142.407 99.117 142.796C97.8155 144.377 96.4963 145.947 95.1887 147.525C95.101 147.63 94.9709 147.731 95.0102 147.976C99.5318 145.586 104.232 143.692 109.426 143.022C110.606 142.869 111.795 142.709 112.994 142.794C113.193 142.808 113.457 142.748 113.573 142.979C113.559 143.103 113.467 143.145 113.375 143.144C108.928 143.094 104.738 144.104 100.692 145.694C98.6983 146.478 96.7564 147.356 94.8908 148.371C94.4652 148.603 94.0889 148.873 93.808 149.242C92.625 150.793 91.4452 152.346 90.273 153.904C90.1706 154.04 90.0206 154.178 90.0875 154.479C91.9985 153.391 93.9957 152.534 96.0792 151.848C98.1349 151.17 100.178 150.443 102.399 150.313C102.443 150.596 102.257 150.583 102.112 150.608C99.0438 151.141 96.1385 152.119 93.2939 153.264C92.1055 153.743 90.9811 154.325 89.8743 154.942C89.3664 155.224 88.9607 155.587 88.6413 156.048C88.2003 156.684 87.7278 157.301 87.3253 157.986C88.5729 157.679 89.625 156.931 90.9403 156.891C89.4333 157.67 87.6093 157.925 86.3925 159.18C87.3306 158.942 88.1049 158.329 89.1647 158.235C88.9885 158.485 88.7737 158.553 88.5752 158.643C88.2565 158.787 87.9448 158.945 87.62 159.078C86.3686 159.585 85.4789 160.393 84.73 161.458C81.9963 165.349 79.859 169.509 77.7717 173.698C77.2237 174.798 76.6634 175.893 76.097 176.985C75.9015 177.354 75.6944 177.724 75.2988 178.053Z" fill="#0F0D01"/>
<path d="M100.67 141.464C105.518 139.387 110.265 137.409 115.755 137.331C115.596 137.716 115.382 137.675 115.202 137.676C112.215 137.691 109.403 138.434 106.642 139.379C104.796 140.01 102.975 140.697 101.201 141.482C101.089 141.531 100.985 141.613 100.67 141.464Z" fill="#0F0D01"/>
</g>
</svg>
