<svg width="33" height="33" viewBox="0 0 33 33" fill="none" xmlns="http://www.w3.org/2000/svg">
<path d="M30.2957 9.20085C29.269 9.66751 28.1623 9.97418 27.0157 10.1208C28.189 9.41418 29.0957 8.29418 29.5223 6.94751C28.4157 7.61418 27.189 8.08085 25.8957 8.34751C24.8423 7.20085 23.3623 6.53418 21.6823 6.53418C18.549 6.53418 15.989 9.09418 15.989 12.2542C15.989 12.7075 16.0423 13.1475 16.1357 13.5608C11.389 13.3208 7.16234 11.0408 4.34901 7.58751C3.85568 8.42751 3.57568 9.41418 3.57568 10.4542C3.57568 12.4408 4.57568 14.2008 6.12234 15.2008C5.17568 15.2008 4.29568 14.9342 3.52234 14.5342V14.5742C3.52234 17.3475 5.49568 19.6675 8.10901 20.1875C7.26998 20.4171 6.38914 20.4491 5.53568 20.2808C5.89782 21.4175 6.60706 22.4121 7.5637 23.1248C8.52034 23.8375 9.67627 24.2324 10.869 24.2542C8.84718 25.8548 6.34101 26.7199 3.76234 26.7075C3.30901 26.7075 2.85568 26.6808 2.40234 26.6275C4.93568 28.2542 7.94901 29.2008 11.1757 29.2008C21.6823 29.2008 27.4557 20.4808 27.4557 12.9208C27.4557 12.6675 27.4557 12.4275 27.4423 12.1742C28.5623 11.3742 29.5223 10.3608 30.2957 9.20085Z" fill="#0F0D01"/>
</svg>
