<svg viewBox="0 0 29 29" fill="none" xmlns="http://www.w3.org/2000/svg">
<path d="M14.3971 0.498047C6.57714 0.498047 0.230469 6.84471 0.230469 14.6647C0.230469 22.4847 6.57714 28.8314 14.3971 28.8314C22.2171 28.8314 28.5638 22.4847 28.5638 14.6647C28.5638 6.84471 22.2171 0.498047 14.3971 0.498047ZM8.73047 22.4564C7.79116 22.4564 6.89032 22.0832 6.22613 21.4191C5.56194 20.7549 5.1888 19.854 5.1888 18.9147C5.1888 17.9754 5.56194 17.0746 6.22613 16.4104C6.89032 15.7462 7.79116 15.373 8.73047 15.373C9.66978 15.373 10.5706 15.7462 11.2348 16.4104C11.899 17.0746 12.2721 17.9754 12.2721 18.9147C12.2721 19.854 11.899 20.7549 11.2348 21.4191C10.5706 22.0832 9.66978 22.4564 8.73047 22.4564ZM10.8555 8.99805C10.8555 8.05874 11.2286 7.1579 11.8928 6.49371C12.557 5.82952 13.4578 5.45638 14.3971 5.45638C15.3364 5.45638 16.2373 5.82952 16.9015 6.49371C17.5657 7.1579 17.9388 8.05874 17.9388 8.99805C17.9388 9.93736 17.5657 10.8382 16.9015 11.5024C16.2373 12.1666 15.3364 12.5397 14.3971 12.5397C13.4578 12.5397 12.557 12.1666 11.8928 11.5024C11.2286 10.8382 10.8555 9.93736 10.8555 8.99805ZM20.0638 22.4564C19.1245 22.4564 18.2237 22.0832 17.5595 21.4191C16.8953 20.7549 16.5221 19.854 16.5221 18.9147C16.5221 17.9754 16.8953 17.0746 17.5595 16.4104C18.2237 15.7462 19.1245 15.373 20.0638 15.373C21.0031 15.373 21.9039 15.7462 22.5681 16.4104C23.2323 17.0746 23.6055 17.9754 23.6055 18.9147C23.6055 19.854 23.2323 20.7549 22.5681 21.4191C21.9039 22.0832 21.0031 22.4564 20.0638 22.4564Z" fill="#FFEED8"/>
</svg>
