<svg viewBox="0 0 74 75" fill="none" xmlns="http://www.w3.org/2000/svg">
<path d="M60.8604 46.1097C57.9037 48.3563 54.5079 49.5379 51.0478 49.524C48.1491 49.4952 45.2831 48.7541 42.6132 47.3428C40.5555 50.9741 39.4542 55.3168 39.4626 59.7668V71.1311C39.4633 71.5537 39.3945 71.972 39.2605 72.36C39.1265 72.748 38.9301 73.0974 38.6834 73.3865C38.4368 73.6756 38.1453 73.8982 37.827 74.0406C37.5086 74.1829 37.1703 74.2419 36.8329 74.2139C36.199 74.145 35.6094 73.779 35.1823 73.1893C34.7552 72.5997 34.5222 71.8301 34.5301 71.0347V66.2408L22.6242 51.3583C20.8544 52.1836 18.9826 52.6153 17.0937 52.6338C14.4932 52.6418 11.9415 51.7524 9.71956 50.0635C3.0021 44.9613 -0.61404 33.2194 0.0857591 18.6413C0.120994 17.8871 0.376552 17.1753 0.803913 16.6411C1.23127 16.1069 1.80068 15.7874 2.40404 15.7434C14.0663 14.884 23.4597 19.3889 27.529 27.7858C29.1278 31.0771 29.8258 34.9297 29.5174 38.7609C29.4982 39.0577 29.4107 39.3413 29.2654 39.5772C29.12 39.8132 28.9231 39.9915 28.6984 40.0905C28.4738 40.1896 28.2309 40.2052 27.9993 40.1354C27.7677 40.0656 27.5572 39.9134 27.3933 39.6973L21.4743 31.9516C21.0081 31.3978 20.3872 31.0937 19.7441 31.104C19.101 31.1143 18.4865 31.4382 18.0317 32.0067C17.577 32.5752 17.3178 33.3432 17.3096 34.1471C17.3014 34.951 17.5447 35.7271 17.9877 36.31L34.5979 57.6011C34.6164 57.3005 34.638 56.9999 34.6626 56.7032C35.2019 50.9874 37.2197 45.648 40.409 41.4969L56.005 20.8956C56.4677 20.3177 56.7279 19.5336 56.7282 18.7159C56.7285 17.8981 56.4689 17.1138 56.0065 16.5353C55.5441 15.9568 54.9169 15.6316 54.2627 15.6313C53.6086 15.6309 52.9811 15.9554 52.5183 16.5334L37.4125 36.5027C37.2613 36.7029 37.07 36.8488 36.8584 36.9253C36.6468 37.0018 36.4227 37.006 36.2093 36.9375C35.996 36.8691 35.8012 36.7305 35.6452 36.5361C35.4892 36.3417 35.3777 36.0986 35.3224 35.8321C33.8611 29.0961 34.5054 22.3908 37.2954 16.6336C42.8013 5.27316 55.6134 -0.807808 71.5701 0.363684C72.1735 0.407728 72.7429 0.727182 73.1702 1.26139C73.5976 1.79561 73.8531 2.50738 73.8884 3.26159C74.8132 23.2116 69.9485 39.2272 60.8604 46.1097Z" fill="#C94726"/>
</svg>
