<svg viewBox="0 0 39 31" fill="none" xmlns="http://www.w3.org/2000/svg">
<path d="M31.4892 19.1318C29.9906 20.0427 28.2694 20.5218 26.5157 20.5162C25.0465 20.5045 23.594 20.204 22.2407 19.6318C21.1978 21.1042 20.6396 22.865 20.6439 24.6693V29.2771C20.6442 29.4485 20.6094 29.6181 20.5414 29.7754C20.4735 29.9327 20.374 30.0744 20.249 30.1916C20.124 30.3088 19.9762 30.3991 19.8149 30.4568C19.6535 30.5145 19.482 30.5385 19.311 30.5271C18.9897 30.4991 18.6909 30.3507 18.4744 30.1117C18.258 29.8726 18.1399 29.5605 18.1439 29.2381V27.2943L12.1095 21.2599C11.2124 21.5946 10.2638 21.7696 9.30636 21.7771C7.98834 21.7804 6.69501 21.4197 5.56886 20.7349C2.16417 18.6662 0.331357 13.9052 0.686044 7.9943C0.703903 7.6885 0.83343 7.3999 1.05003 7.18329C1.26664 6.96669 1.55524 6.83716 1.86104 6.8193C7.77198 6.47086 12.5329 8.29743 14.5954 11.7021C15.4058 13.0366 15.7595 14.5987 15.6032 16.1521C15.5935 16.2725 15.5491 16.3874 15.4755 16.4831C15.4018 16.5788 15.302 16.6511 15.1881 16.6912C15.0743 16.7314 14.9512 16.7377 14.8338 16.7094C14.7164 16.6811 14.6097 16.6194 14.5267 16.5318L11.5267 13.3912C11.2903 13.1667 10.9757 13.0433 10.6497 13.0475C10.3238 13.0517 10.0123 13.183 9.78182 13.4135C9.55132 13.644 9.41998 13.9554 9.41581 14.2814C9.41163 14.6073 9.53496 14.922 9.75948 15.1584L18.1782 23.7912C18.1876 23.6693 18.1985 23.5474 18.211 23.4271C18.4844 21.1095 19.5071 18.9446 21.1235 17.2615L29.0282 8.90836C29.2628 8.67402 29.3946 8.3561 29.3948 8.02454C29.3949 7.69298 29.2634 7.37495 29.029 7.14039C28.7947 6.90584 28.4767 6.77399 28.1452 6.77385C27.8136 6.7737 27.4956 6.90527 27.261 7.13961L19.6048 15.2365C19.5282 15.3177 19.4312 15.3768 19.3239 15.4078C19.2167 15.4388 19.1031 15.4406 18.995 15.4128C18.8868 15.3851 18.7881 15.3289 18.7091 15.25C18.63 15.1712 18.5735 15.0727 18.5454 14.9646C17.8048 12.2334 18.1314 9.51461 19.5454 7.18024C22.336 2.57399 28.8298 0.108364 36.9173 0.583364C37.2231 0.601223 37.5117 0.73075 37.7283 0.947355C37.9449 1.16396 38.0744 1.45256 38.0923 1.75836C38.561 9.84743 36.0954 16.3412 31.4892 19.1318Z" fill="#FFEED8"/>
</svg>
