<svg viewBox="0 0 92 93" fill="none" xmlns="http://www.w3.org/2000/svg">
<path d="M9.19922 46.7959C13.2242 35.3342 24.7434 27.0542 38.3326 27.0542C53.501 27.0542 66.0974 37.3697 68.5622 50.9205C66.0514 49.8625 62.7931 48.9847 59.4964 48.4365C52.8456 47.3325 47.7664 49.6325 43.4156 51.6182L43.3734 51.6374C38.9497 53.6575 35.2812 55.3327 30.4551 54.7884C26.6102 54.3552 23.1487 53.14 19.8981 51.6987C18.4261 51.047 17.0269 50.3647 15.6431 49.6862L15.1792 49.46C13.6967 48.7189 12.1893 48.0285 10.6597 47.39L9.19922 46.7959Z" fill="#C94726"/>
<path d="M7.86324 53.1757C7.73172 54.296 7.66586 55.4237 7.66602 56.5524C7.66602 64.0109 10.5165 70.815 15.2127 75.9755C16.8873 77.8177 17.7246 78.7369 21.2337 80.3142C24.7466 81.8877 27.1654 81.8877 32.0105 81.8877H42.8617C47.7068 81.8877 50.1256 81.8877 53.6385 80.3142C57.1476 78.7369 57.9849 77.8177 59.6632 75.9755C63.9724 71.2356 66.7262 65.1092 67.1504 58.3713L65.8517 57.6157C64.099 56.5953 60.8131 55.5009 57.0658 54.8504C52.4551 54.0481 48.9385 55.6021 44.6889 57.6352L44.2795 57.8299C40.2085 59.7773 35.4006 62.083 29.1637 61.3469C24.6424 60.8133 20.6979 59.3255 17.278 57.7403C15.7523 57.0315 14.301 56.2915 12.9614 55.606L12.5148 55.3762C11.1915 54.6823 9.84608 54.0354 8.48097 53.4366L7.86324 53.1757ZM46.9626 9.60138C48.2799 10.9762 48.5366 13.0287 48.5887 16.6509H53.512C56.8332 16.6511 60.1087 17.4605 63.0793 19.015L66.1903 20.643C68.7245 18.5047 72.8886 18.3567 76.5094 20.5456C80.96 23.233 82.9025 28.4324 80.8447 32.1597C78.7905 35.8831 73.5138 36.7243 69.0668 34.037C65.9261 32.1363 64.032 28.9855 63.9166 25.9865L60.5824 24.2417C58.3872 23.0924 55.9665 22.4937 53.512 22.493H48.5999V25.3517C44.9999 24.0984 41.2301 23.4618 37.4361 23.4666C33.5288 23.4666 29.7703 24.1287 26.2723 25.3517V22.493H26.6705C27.0315 22.4969 27.452 22.5007 27.8092 22.493C28.3265 22.4735 29.0261 22.4229 29.7294 22.197C30.4811 21.9516 31.3556 21.4647 31.9919 20.5027C32.6096 19.5758 32.7845 18.5359 32.7845 17.6245C32.7845 16.7132 32.6096 15.6733 31.9919 14.7424C31.4406 13.9272 30.6418 13.3314 29.7257 13.0521C29.1009 12.8656 28.4551 12.7674 27.8055 12.76C27.4285 12.7516 27.0513 12.7503 26.6742 12.7561H26.5328C26.7524 11.3774 27.158 10.3803 27.9022 9.60138C29.547 7.8877 32.1743 7.8877 37.4361 7.8877C42.698 7.8877 45.3289 7.8877 46.9626 9.60138Z" fill="#C94726"/>
</svg>
