<svg viewBox="0 0 74 75" fill="none" xmlns="http://www.w3.org/2000/svg">
<path d="M25.4897 5.20962C25.8018 4.68189 26.3107 4.29968 26.9045 4.14704C27.4983 3.9944 28.1284 4.08381 28.6563 4.39562L31.2217 5.91262L59.7332 22.2759C60.2652 22.5813 60.654 23.0855 60.8142 23.6777C60.9744 24.2698 60.8928 24.9013 60.5873 25.4332C60.2819 25.9652 59.7777 26.354 59.1855 26.5142C58.5934 26.6743 57.9619 26.5927 57.43 26.2873L54.8307 24.795L50.1903 32.8055L50.1842 32.7993L42.297 28.2637C42.0336 28.1069 41.7416 28.004 41.438 27.9611C41.1345 27.9181 40.8254 27.9359 40.5288 28.0135C40.2323 28.0911 39.9541 28.2269 39.7104 28.413C39.4668 28.5991 39.2626 28.8317 39.1097 29.0975C38.9568 29.3632 38.8583 29.6567 38.8198 29.9608C38.7814 30.265 38.8038 30.5737 38.8858 30.8691C38.9678 31.1645 39.1077 31.4407 39.2973 31.6815C39.487 31.9224 39.7227 32.1231 39.9907 32.272L47.8717 36.8045L44.9086 41.9229L44.9024 41.9198L31.9432 34.4643C31.6797 34.3075 31.3878 34.2046 31.0842 34.1616C30.7807 34.1187 30.4716 34.1365 30.175 34.2141C29.8784 34.2917 29.6002 34.4275 29.3566 34.6136C29.1129 34.7996 28.9087 35.0323 28.7558 35.298C28.603 35.5638 28.5044 35.8572 28.466 36.1614C28.4275 36.4655 28.45 36.7743 28.5319 37.0697C28.6139 37.3651 28.7538 37.6413 28.9435 37.8821C29.1332 38.123 29.3689 38.3237 29.6368 38.4726L42.5868 45.925L39.8581 50.6395L39.8519 50.6333L31.7952 45.999C31.2643 45.704 30.6386 45.6296 30.0534 45.792C29.4681 45.9545 28.9703 46.3406 28.6674 46.867C28.3645 47.3935 28.2808 48.018 28.4345 48.6056C28.5882 49.1931 28.9669 49.6967 29.4888 50.0074L37.5394 54.6385L34.0861 60.5955C32.0934 64.0224 28.8245 66.5204 24.9946 67.5432C21.1647 68.566 17.0856 68.0302 13.6497 66.053C11.9502 65.0781 10.4598 63.7773 9.26416 62.225C8.06853 60.6728 7.19116 58.8997 6.68239 57.0076C6.17362 55.1154 6.04346 53.1414 6.29938 51.1989C6.55531 49.2563 7.19228 47.3834 8.17375 45.6876L28.8999 9.91171L28.8814 9.90246L26.3037 8.37929C26.042 8.22476 25.8133 8.02015 25.6308 7.77716C25.4482 7.53418 25.3153 7.25758 25.2397 6.9632C25.1641 6.66881 25.1472 6.36241 25.1902 6.06152C25.2331 5.76063 25.3349 5.47114 25.4897 5.20962ZM61.6665 52.6375C65.0736 52.6375 67.8332 49.7607 67.8332 46.2149C67.8332 43.9949 65.4189 41.0318 63.609 39.1232C63.3603 38.8569 63.0596 38.6446 62.7254 38.4995C62.3913 38.3543 62.0308 38.2794 61.6665 38.2794C61.3022 38.2794 60.9417 38.3543 60.6076 38.4995C60.2734 38.6446 59.9727 38.8569 59.724 39.1232C57.9141 41.0318 55.4998 43.9949 55.4998 46.2149C55.4998 49.7607 58.2594 52.6375 61.6665 52.6375Z" fill="#C94726"/>
</svg>
