<svg viewBox="0 0 301 265" fill="none" xmlns="http://www.w3.org/2000/svg">
<g clip-path="url(#clip0_467_43190)">
<path d="M150.499 264.982C223.667 264.982 282.981 205.668 282.981 132.5C282.981 59.3326 223.667 0.0185547 150.499 0.0185547C77.3316 0.0185547 18.0176 59.3326 18.0176 132.5C18.0176 205.668 77.3316 264.982 150.499 264.982Z" fill="white"/>
<path opacity="0.1" d="M150.499 264.982C223.667 264.982 282.981 205.668 282.981 132.5C282.981 59.3326 223.667 0.0185547 150.499 0.0185547C77.3316 0.0185547 18.0176 59.3326 18.0176 132.5C18.0176 205.668 77.3316 264.982 150.499 264.982Z" fill="#C94726"/>
<path d="M64.3999 177.498L1.04297 177.306L1.30365 91.2363L45.1135 91.3691L64.6013 110.976L64.3999 177.498Z" fill="white"/>
<path opacity="0.3" d="M45.114 91.3691L45.0547 110.916L64.6018 110.976L45.114 91.3691Z" fill="#C94726"/>
<path d="M64.9992 110.951C64.9968 110.916 64.9899 110.881 64.9787 110.848C64.9742 110.835 64.971 110.822 64.9653 110.809C64.9465 110.765 64.9198 110.725 64.8866 110.691L45.3989 91.0846C45.3646 91.0508 45.3245 91.0235 45.2806 91.0039C45.2684 90.9986 45.2558 90.994 45.2431 90.9901C45.2093 90.9783 45.174 90.9713 45.1382 90.9692C45.1297 90.9692 45.122 90.9639 45.1136 90.9639L1.3041 90.8328C1.19707 90.8328 1.09443 90.8753 1.01876 90.951C0.943079 91.0266 0.900564 91.1293 0.900564 91.2363L0.638672 177.304C0.638672 177.411 0.681187 177.514 0.756864 177.59C0.832541 177.665 0.935181 177.708 1.0422 177.708L64.3968 177.901C64.5038 177.901 64.6064 177.859 64.6821 177.783C64.7578 177.707 64.8003 177.605 64.8003 177.498L65.0021 110.975C65.0041 110.968 64.9996 110.96 64.9992 110.951ZM45.5114 92.3448L54.5102 101.395L63.6276 110.568L45.4582 110.513L45.5114 92.3448ZM1.44574 176.903L1.704 91.641L44.7064 91.7714L44.6487 110.915C44.6487 111.022 44.6912 111.125 44.7669 111.2C44.8426 111.276 44.9452 111.318 45.0522 111.318L64.1958 111.377L63.9969 177.092L1.44574 176.903Z" fill="#262626"/>
<path d="M193.563 174.054L107.166 173.792L107.522 56.4219L167.263 56.6031L193.838 83.3395L193.563 174.054Z" fill="white"/>
<path opacity="0.3" d="M167.264 56.6033L167.184 83.259L193.839 83.3397L167.264 56.6033Z" fill="#C94726"/>
<path d="M194.237 83.3154C194.235 83.2802 194.228 83.2455 194.217 83.2121C194.212 83.1988 194.209 83.1863 194.203 83.1717C194.184 83.128 194.158 83.0879 194.125 83.0535L167.55 56.3171C167.515 56.2833 167.475 56.256 167.432 56.2364C167.419 56.2307 167.407 56.2275 167.394 56.223C167.36 56.2113 167.325 56.2041 167.289 56.2017C167.281 56.2017 167.273 56.1968 167.264 56.1968L107.523 56.0156C107.416 56.0156 107.313 56.0581 107.237 56.1338C107.162 56.2095 107.119 56.3121 107.119 56.4192L106.764 173.789C106.764 173.896 106.806 173.999 106.882 174.074C106.958 174.15 107.06 174.192 107.167 174.192L193.563 174.454C193.67 174.454 193.773 174.412 193.849 174.336C193.924 174.26 193.967 174.158 193.967 174.051L194.242 83.3368C194.242 83.3319 194.237 83.3243 194.237 83.3154ZM167.663 57.5785L192.865 82.9332L167.586 82.8566L167.663 57.5785ZM107.571 173.389L107.924 56.8267L166.858 57.0055L166.778 83.2577C166.778 83.3647 166.82 83.4673 166.896 83.543C166.972 83.6187 167.074 83.6612 167.181 83.6612L193.434 83.7419L193.161 173.649L107.571 173.389Z" fill="#262626"/>
<path d="M299.757 177.498L236.4 177.306L236.661 91.2363L280.471 91.3691L299.959 110.976L299.757 177.498Z" fill="white"/>
<path opacity="0.3" d="M280.471 91.3689L280.412 110.916L299.959 110.975L280.471 91.3689Z" fill="#C94726"/>
<path d="M300.357 110.951C300.355 110.916 300.349 110.881 300.337 110.847C300.333 110.835 300.329 110.822 300.324 110.809C300.305 110.765 300.278 110.725 300.245 110.691L280.757 91.0845C280.723 91.0507 280.683 91.0234 280.639 91.0038C280.627 90.9981 280.614 90.9945 280.601 90.99C280.568 90.9783 280.532 90.9712 280.497 90.9691C280.488 90.9691 280.481 90.9638 280.472 90.9638L236.662 90.8311C236.555 90.8311 236.453 90.8736 236.377 90.9492C236.301 91.0249 236.259 91.1276 236.259 91.2346L235.998 177.304C235.998 177.411 236.041 177.514 236.116 177.589C236.192 177.665 236.295 177.708 236.402 177.708L299.759 177.9C299.866 177.9 299.968 177.857 300.044 177.781C300.12 177.706 300.162 177.603 300.162 177.496L300.364 110.974C300.362 110.968 300.358 110.96 300.357 110.951ZM280.871 92.3447L289.867 101.395L298.986 110.568L280.816 110.513L280.871 92.3447ZM236.806 176.903L237.064 91.6409L280.067 91.7713L280.008 110.915C280.008 111.022 280.051 111.125 280.127 111.2C280.202 111.276 280.305 111.318 280.412 111.318L299.556 111.376L299.357 177.092L236.806 176.903Z" fill="#262626"/>
<path d="M128.921 124.82C132.261 124.82 134.969 122.112 134.969 118.772C134.969 115.431 132.261 112.724 128.921 112.724C125.581 112.724 122.873 115.431 122.873 118.772C122.873 122.112 125.581 124.82 128.921 124.82Z" fill="#292A2E"/>
<path d="M170.394 124.82C173.734 124.82 176.442 122.112 176.442 118.772C176.442 115.431 173.734 112.724 170.394 112.724C167.054 112.724 164.346 115.431 164.346 118.772C164.346 122.112 167.054 124.82 170.394 124.82Z" fill="#292A2E"/>
<path d="M157.767 135.498H141.55C141.443 135.498 141.34 135.456 141.265 135.38C141.189 135.304 141.146 135.202 141.146 135.095C141.146 134.988 141.189 134.885 141.265 134.809C141.34 134.734 141.443 134.691 141.55 134.691H157.767C157.874 134.691 157.977 134.734 158.053 134.809C158.128 134.885 158.171 134.988 158.171 135.095C158.171 135.202 158.128 135.304 158.053 135.38C157.977 135.456 157.874 135.498 157.767 135.498Z" fill="#262626"/>
<path d="M122.682 136.072C125.662 136.072 128.078 134.801 128.078 133.233C128.078 131.664 125.662 130.393 122.682 130.393C119.703 130.393 117.287 131.664 117.287 133.233C117.287 134.801 119.703 136.072 122.682 136.072Z" fill="white"/>
<path d="M176.634 136.072C179.613 136.072 182.029 134.801 182.029 133.233C182.029 131.664 179.613 130.393 176.634 130.393C173.654 130.393 171.238 131.664 171.238 133.233C171.238 134.801 173.654 136.072 176.634 136.072Z" fill="white"/>
<g opacity="0.4">
<path d="M122.682 136.072C125.662 136.072 128.078 134.801 128.078 133.233C128.078 131.664 125.662 130.393 122.682 130.393C119.703 130.393 117.287 131.664 117.287 133.233C117.287 134.801 119.703 136.072 122.682 136.072Z" fill="#C94726"/>
<path d="M176.634 136.072C179.613 136.072 182.029 134.801 182.029 133.233C182.029 131.664 179.613 130.393 176.634 130.393C173.654 130.393 171.238 131.664 171.238 133.233C171.238 134.801 173.654 136.072 176.634 136.072Z" fill="#C94726"/>
</g>
<path d="M193.968 84.3015C183.67 72.4778 169.096 65.229 153.454 64.1496C137.811 63.0703 122.38 68.2487 110.555 78.5459C90.8001 95.7514 84.7294 124.356 95.7954 148.115C98.0174 152.876 100.866 157.318 104.267 161.323L104.993 162.183L50.8423 219.651C49.8521 220.717 49.3236 222.132 49.3722 223.586C49.4208 225.04 50.0424 226.417 51.1016 227.414C52.1608 228.412 53.5715 228.951 55.0262 228.913C56.4809 228.875 57.8615 228.263 58.867 227.211L113.004 169.752L113.909 170.429C125.592 179.193 140.104 183.322 154.65 182.021C169.196 180.721 182.746 174.083 192.689 163.386C202.632 152.69 208.265 138.692 208.501 124.089C208.738 109.487 203.561 95.3142 193.97 84.3015H193.968ZM197.363 126.442C196.525 138.583 191.115 149.955 182.225 158.266C173.335 166.577 161.624 171.209 149.454 171.229C148.331 171.229 147.203 171.189 146.072 171.108C138.172 170.572 130.527 168.095 123.814 163.896C117.101 159.697 111.528 153.906 107.589 147.038C103.649 140.169 101.466 132.435 101.232 124.52C100.998 116.606 102.721 108.756 106.248 101.667C109.775 94.5774 114.996 88.468 121.45 83.8802C127.903 79.2923 135.389 76.3679 143.243 75.3661C151.097 74.3644 159.078 75.3163 166.476 78.1374C173.874 80.9586 180.462 85.5618 185.655 91.5389C189.816 96.2947 192.992 101.828 195.002 107.819C197.011 113.809 197.814 120.139 197.363 126.442Z" fill="#C94726"/>
</g>
<defs>
<clipPath id="clip0_467_43190">
<rect width="299.722" height="265" fill="white" transform="translate(0.638672)"/>
</clipPath>
</defs>
</svg>
