<svg viewBox="0 0 74 75" fill="none" xmlns="http://www.w3.org/2000/svg">
<g clip-path="url(#clip0_393_1751)">
<path d="M67.1709 63.7422C67.5081 64.2962 67.7611 64.8623 67.9297 65.4404C68.0983 66.0186 68.1826 66.6328 68.1826 67.2832C68.1826 68.2467 68.002 69.1501 67.6406 69.9932C67.2793 70.8363 66.7855 71.571 66.1592 72.1973C65.5329 72.8236 64.7982 73.3174 63.9551 73.6787C63.112 74.04 62.2087 74.2207 61.2451 74.2207H12.791C11.8275 74.2207 10.9242 74.04 10.0811 73.6787C9.23796 73.3174 8.50326 72.8236 7.87695 72.1973C7.25065 71.571 6.75684 70.8363 6.39551 69.9932C6.03418 69.1501 5.85352 68.2467 5.85352 67.2832C5.85352 66.6328 5.92578 66.0186 6.07031 65.4404C6.21484 64.8623 6.46777 64.2962 6.8291 63.7422L27.3887 27.8984C27.6296 27.5612 27.75 27.1517 27.75 26.6699V4.8457H23.125V0.220703H50.875V4.8457H46.25V26.6699C46.25 27.1276 46.3704 27.5492 46.6113 27.9346L67.1709 63.7422ZM32.375 26.6699C32.375 27.9466 32.0498 29.139 31.3994 30.2471L19.4395 51.0957H54.5605L42.6006 30.2471C41.9502 29.139 41.625 27.9466 41.625 26.6699V4.8457H32.375V26.6699Z" fill="#C94726"/>
</g>
<defs>
<clipPath id="clip0_393_1751">
<rect width="74" height="74" fill="white" transform="translate(0 0.220703)"/>
</clipPath>
</defs>
</svg>
