<svg viewBox="0 0 31 31" fill="none" xmlns="http://www.w3.org/2000/svg">
<path fill-rule="evenodd" clip-rule="evenodd" d="M13.394 1.50288C13.8955 1.00205 14.5665 0.707351 15.2746 0.67693C15.9826 0.646508 16.6764 0.88257 17.219 1.33854L17.4003 1.50429L20.092 4.19454H23.8972C24.6117 4.19467 25.2999 4.4648 25.8237 4.95081C26.3476 5.43682 26.6684 6.10282 26.722 6.81537L26.7305 7.02787V10.833L29.4222 13.5247C29.9234 14.0263 30.2183 14.6975 30.2488 15.4059C30.2792 16.1144 30.0429 16.8084 29.5865 17.3511L29.4208 17.531L26.7291 20.2227V24.0279C26.7293 24.7427 26.4593 25.4312 25.9733 25.9553C25.4873 26.4795 24.8211 26.8005 24.1083 26.8541L23.8972 26.8612H20.0934L17.4018 29.5529C16.9002 30.0541 16.2289 30.349 15.5205 30.3795C14.8121 30.4099 14.118 30.1736 13.5753 29.7172L13.3954 29.5529L10.7038 26.8612H6.89717C6.18236 26.8614 5.49387 26.5915 4.96973 26.1054C4.44559 25.6194 4.12454 24.9532 4.07092 24.2404L4.06384 24.0279V20.2227L1.37217 17.531C0.87095 17.0295 0.576005 16.3582 0.54558 15.6498C0.515156 14.9414 0.751464 14.2473 1.20784 13.7046L1.37217 13.5247L4.06384 10.833V7.02787C4.06397 6.3133 4.3341 5.62517 4.82011 5.10133C5.30612 4.57749 5.97212 4.25663 6.68467 4.20304L6.89717 4.19454H10.7023L13.394 1.50288ZM19.7591 11.2538L13.7468 17.2661L11.2421 14.7615C10.9763 14.4958 10.6158 14.3467 10.24 14.3468C9.86421 14.3469 9.50385 14.4963 9.23822 14.7622C8.97258 15.028 8.82342 15.3885 8.82355 15.7642C8.82369 16.14 8.9731 16.5004 9.23892 16.766L12.6446 20.1717C12.7893 20.3165 12.9611 20.4313 13.1502 20.5097C13.3394 20.5881 13.5421 20.6284 13.7468 20.6284C13.9515 20.6284 14.1542 20.5881 14.3433 20.5097C14.5324 20.4313 14.7042 20.3165 14.8489 20.1717L21.7623 13.257C22.0203 12.9898 22.1631 12.6319 22.1599 12.2605C22.1567 11.889 22.0077 11.5337 21.745 11.271C21.4823 11.0084 21.127 10.8594 20.7556 10.8562C20.3841 10.8529 20.0263 10.9957 19.7591 11.2538Z" fill="#FFEED8"/>
</svg>
