<svg viewBox="0 0 35 44" fill="none" xmlns="http://www.w3.org/2000/svg">
<circle cx="17.5524" cy="11.5524" r="8.0524" stroke="#0F0D01" stroke-width="1.5" stroke-linecap="round" stroke-linejoin="round"/>
<path fill-rule="evenodd" clip-rule="evenodd" d="M23.1523 17.5713L26.3093 20.7201L23.1523 17.5713Z" fill="#0F0D01"/>
<path d="M23.1523 17.5713L26.3093 20.7201" stroke="#0F0D01" stroke-width="1.5" stroke-linecap="round" stroke-linejoin="round"/>
<path d="M6.276 38.232C6.276 39.144 5.604 40.656 3.528 40.656C1.884 40.656 0.828 39.948 0.576 38.148H0.972C1.236 39.792 2.604 40.152 3.396 40.152C4.8 40.152 5.136 39.168 5.136 38.736C5.136 37.812 4.38 37.308 2.94 36.564C2.028 36.096 0.48 35.328 0.48 33.828C0.48 31.92 2.364 31.536 3.036 31.536C4.716 31.536 5.412 32.424 5.652 33.684H5.22C5.04 33.024 4.56 32.028 3.048 32.028C2.304 32.028 1.512 32.628 1.512 33.384C1.512 34.272 2.58 34.836 3.684 35.4C5.772 36.444 6.276 37.188 6.276 38.232ZM12.2904 37.296H8.19844V37.572C8.19844 39.78 10.2024 41.46 12.0744 39.276L12.2784 39.468C12.2064 39.624 11.5344 40.668 9.80644 40.668C7.95844 40.668 6.87844 39.324 6.87844 37.572C6.87844 35.82 7.95844 34.488 9.80644 34.488C12.0144 34.488 12.2904 36.18 12.2904 36.84V37.296ZM9.81844 34.908C9.06244 34.908 8.39044 35.328 8.23444 36.84H10.8504C10.8264 35.532 10.6104 34.908 9.81844 34.908ZM15.9054 34.44C17.6334 34.44 18.2454 35.148 18.2454 36.264L18.2334 40.5H17.0334V39.612C16.3974 40.596 13.2534 41.652 13.2534 38.976C13.2534 36.888 15.4254 37.104 17.0334 36.504V35.916C17.0334 35.172 16.7214 34.812 15.9294 34.812C15.5214 34.812 14.6454 34.776 14.0454 35.652L13.7094 35.556C14.2374 34.596 15.1734 34.44 15.9054 34.44ZM14.5614 38.868C14.5614 40.464 15.9534 40.548 17.0334 39.288V36.852C15.8214 37.236 14.5614 37.236 14.5614 38.868ZM20.4066 36.06C20.7546 34.776 21.4866 34.5 22.5426 34.5V35.22C21.6666 35.22 20.7186 35.088 20.4066 36.9V40.5H19.2066V34.5H20.4066V36.06ZM27.3076 39.192L27.6196 39.396C27.3436 39.828 26.6476 40.668 25.4596 40.668C23.6956 40.668 22.6636 39.336 22.6636 37.584C22.6636 35.832 23.6956 34.488 25.4596 34.488C26.7436 34.488 27.3916 35.316 27.6316 35.736L27.3316 35.988C25.9876 33.984 23.9596 34.764 23.9596 37.584C23.9476 40.416 25.9636 41.16 27.3076 39.192ZM31.3173 34.488C33.0213 34.488 33.7053 35.496 33.7053 36.456V40.5H32.5053V36.528C32.5053 35.388 31.8333 34.884 31.3053 34.884C30.5973 34.884 30.1053 35.268 29.7933 35.652V40.5H28.5933V31.716H29.7933V35.124C30.1533 34.776 30.6573 34.488 31.3173 34.488Z" fill="#0F0D01"/>
</svg>
