<?xml version="1.0" standalone="no"?>
<!DOCTYPE svg PUBLIC "-//W3C//DTD SVG 20010904//EN"
 "http://www.w3.org/TR/2001/REC-SVG-20010904/DTD/svg10.dtd">
<svg version="1.0" xmlns="http://www.w3.org/2000/svg"
 viewBox="0 0 527.000000 145.000000"
 preserveAspectRatio="xMidYMid meet">

<g transform="translate(0.000000,145.000000) scale(0.100000,-0.100000)"
fill="#193783" stroke="currentColor">
<path d="M10 895 l0 -555 1375 0 1375 0 0 555 0 555 -1375 0 -1375 0 0 -555z
m1215 381 c22 -9 50 -27 64 -39 46 -43 51 -72 51 -294 0 -258 -7 -279 -97
-321 -54 -25 -67 -27 -193 -27 -106 0 -145 4 -182 18 -55 22 -105 73 -113 119
-3 18 -5 126 -3 240 3 190 5 209 24 234 53 72 130 96 294 90 78 -2 128 -9 155
-20z m-627 2 c16 -16 16 -150 0 -166 -8 -8 -53 -12 -135 -12 -103 0 -125 -3
-130 -16 -9 -25 6 -32 111 -49 168 -27 196 -57 196 -212 0 -119 -16 -156 -81
-193 -42 -24 -53 -25 -232 -28 -136 -3 -192 0 -203 8 -10 9 -14 34 -14 86 0
62 3 75 19 84 11 5 81 10 156 10 136 0 136 0 133 22 -3 21 -13 25 -107 41
-173 29 -201 60 -201 218 0 135 32 183 136 208 61 14 338 13 352 -1z m1086 -4
c14 -13 16 -50 16 -250 l0 -234 60 0 59 0 3 88 3 87 100 0 100 0 3 -169 c2
-116 -1 -173 -9 -182 -9 -11 -61 -14 -259 -14 -137 0 -255 3 -264 6 -14 5 -16
45 -16 339 0 257 3 334 13 338 6 3 49 6 94 6 62 1 85 -3 97 -15z m960 10 c23
-9 23 -169 0 -178 -9 -3 -74 -6 -145 -6 l-129 0 0 -30 0 -30 91 0 c123 0 129
-4 129 -88 0 -40 -5 -73 -12 -80 -8 -8 -47 -12 -110 -12 l-98 0 0 -35 0 -35
129 0 c71 0 136 -3 145 -6 13 -5 16 -23 16 -89 0 -66 -3 -84 -16 -89 -31 -12
-469 -7 -482 6 -9 9 -12 96 -12 329 0 275 2 320 16 333 13 14 49 16 239 16
123 0 230 -3 239 -6z"/>
<path d="M988 1099 c-16 -9 -18 -27 -18 -152 0 -98 4 -147 12 -155 16 -16 110
-16 126 0 17 17 17 289 0 306 -15 15 -96 15 -120 1z"/>
<path d="M2880 1430 c0 -20 7 -20 1180 -20 1173 0 1180 0 1180 20 0 20 -7 20
-1180 20 -1173 0 -1180 0 -1180 -20z"/>
<path d="M3778 1229 l-68 -61 0 -261 c0 -236 2 -266 19 -304 36 -79 125 -116
281 -117 138 -1 183 14 276 89 44 34 88 73 99 86 13 15 7 12 -17 -8 -20 -17
-54 -37 -75 -44 -51 -19 -284 -19 -336 0 -54 19 -105 66 -117 109 -5 21 -10
150 -10 294 0 234 2 258 18 267 9 6 13 10 7 11 -5 0 -40 -28 -77 -61z"/>
<path d="M4143 1224 l-63 -56 0 -184 c0 -140 -3 -184 -12 -184 -9 0 -8 -4 2
-10 22 -14 106 -12 118 3 7 8 12 101 14 250 2 130 3 237 3 237 0 0 -28 -26
-62 -56z"/>
<path d="M2937 1217 l-58 -52 3 -330 3 -330 101 -3 101 -3 62 52 c33 28 61 51
61 52 0 1 -39 1 -87 -1 -49 -1 -95 2 -103 7 -13 9 -15 57 -15 336 0 179 -2
325 -5 325 -3 0 -31 -24 -63 -53z"/>
<path d="M3224 1160 c0 -63 1 -89 3 -57 2 31 2 83 0 115 -2 31 -3 5 -3 -58z"/>
<path d="M3307 1217 c-57 -52 -57 -52 -57 -109 l0 -58 65 0 65 0 0 110 c0 61
-3 110 -7 110 -5 -1 -34 -24 -66 -53z"/>
<path d="M4587 1217 l-58 -52 3 -330 3 -330 234 -3 c266 -3 271 -2 366 83 l50
44 -49 -14 c-57 -17 -441 -21 -466 -5 -13 8 -15 56 -15 335 0 179 -2 325 -5
325 -3 0 -31 -24 -63 -53z"/>
<path d="M4054 1035 c0 -126 2 -177 3 -112 2 65 2 168 0 230 -1 62 -3 9 -3
-118z"/>
<path d="M3114 945 c0 -143 2 -203 3 -132 l4 127 179 0 179 0 4 -37 c2 -21 3
36 3 127 0 132 -1 141 -3 43 l-4 -123 -179 0 -179 0 -4 128 c-1 70 -3 10 -3
-133z"/>
<path d="M4818 1193 c28 -2 76 -2 105 0 28 2 5 3 -53 3 -58 0 -81 -1 -52 -3z"/>
<path d="M4870 1071 c0 -51 0 -51 33 -51 67 0 78 8 75 54 l-3 41 -52 3 -53 3
0 -50z"/>
<path d="M5171 1064 c0 -11 3 -14 6 -6 3 7 2 16 -1 19 -3 4 -6 -2 -5 -13z"/>
<path d="M5140 1005 c-7 -9 -8 -15 -2 -15 5 0 12 7 16 15 3 8 4 15 2 15 -2 0
-9 -7 -16 -15z"/>
<path d="M5106 918 c10 -14 21 -24 23 -22 3 3 -6 15 -18 27 l-24 22 19 -27z"/>
<path d="M4870 820 l0 -50 74 0 c70 0 74 1 80 25 4 14 4 36 0 50 -6 24 -10 25
-80 25 l-74 0 0 -50z"/>
<path d="M5131 854 c0 -11 3 -14 6 -6 3 7 2 16 -1 19 -3 4 -6 -2 -5 -13z"/>
<path d="M3227 843 c-4 -3 -6 -56 -5 -117 1 -71 3 -88 5 -48 6 102 23 71 23
-42 0 -57 3 -111 6 -120 5 -13 24 -16 106 -16 l99 0 62 53 62 52 -77 -4 c-133
-6 -128 -11 -128 129 l0 120 -73 0 c-41 0 -77 -3 -80 -7z"/>
<path d="M5132 800 c0 -19 2 -27 5 -17 2 9 2 25 0 35 -3 9 -5 1 -5 -18z"/>
<path d="M3960 736 c0 -2 8 -10 18 -17 15 -13 16 -12 3 4 -13 16 -21 21 -21
13z"/>
<path d="M5096 715 c-11 -8 -15 -15 -9 -15 6 0 16 7 23 15 16 19 11 19 -14 0z"/>
<path d="M4843 693 c43 -2 110 -2 150 0 40 1 5 3 -78 3 -82 0 -115 -2 -72 -3z"/>
<path d="M4098 683 c17 -2 47 -2 65 0 17 2 3 4 -33 4 -36 0 -50 -2 -32 -4z"/>
<path d="M2880 355 c0 -13 138 -15 1180 -15 1042 0 1180 2 1180 15 0 13 -138
15 -1180 15 -1042 0 -1180 -2 -1180 -15z"/>
<path d="M276 185 c-27 -27 -21 -39 42 -76 28 -16 31 -22 22 -39 -12 -22 -31
-25 -61 -10 -11 6 -19 7 -19 1 0 -21 68 -29 88 -9 22 22 12 47 -28 73 -22 14
-40 32 -40 39 0 21 38 30 57 14 14 -11 16 -11 11 2 -7 21 -52 24 -72 5z"/>
<path d="M398 193 c20 -4 22 -10 22 -79 0 -95 18 -97 22 -2 3 67 5 73 28 79
16 5 4 7 -35 7 -33 -1 -50 -3 -37 -5z"/>
<path d="M520 120 l0 -80 48 2 c43 1 44 2 10 5 -36 4 -38 6 -38 38 0 31 3 34
33 38 l32 4 -32 1 c-29 2 -33 5 -33 31 0 27 4 30 38 34 34 3 33 4 -10 5 l-48
2 0 -80z"/>
<path d="M651 118 c1 -56 4 -72 8 -48 5 31 10 35 41 38 38 4 50 15 50 49 0 26
-27 43 -69 43 l-31 0 1 -82z m73 59 c31 -22 16 -52 -27 -55 -35 -3 -37 -2 -37
26 0 16 3 32 7 35 10 11 38 8 57 -6z"/>
<path d="M843 120 c0 -47 2 -66 4 -42 2 23 2 61 0 85 -2 23 -4 4 -4 -43z"/>
<path d="M902 118 l2 -83 5 70 6 70 34 -58 c18 -32 35 -56 38 -53 6 6 -69 136
-79 136 -4 0 -7 -37 -6 -82z"/>
<path d="M1000 125 c-5 -81 -5 -93 5 -83 3 3 5 41 3 84 l-3 79 -5 -80z"/>
<path d="M1063 193 c27 -4 27 -5 27 -79 0 -43 4 -74 10 -74 6 0 10 31 10 74 0
74 0 75 28 79 15 2 -2 4 -38 4 -36 0 -53 -2 -37 -4z"/>
<path d="M1200 182 c-17 -14 -23 -29 -23 -60 0 -51 24 -82 63 -82 38 0 63 31
63 80 0 70 -53 102 -103 62z m74 -14 c30 -43 9 -118 -34 -118 -45 0 -66 84
-30 120 26 26 45 25 64 -2z"/>
<path d="M1390 120 l0 -80 48 2 c43 1 44 2 10 5 -36 4 -38 6 -38 38 0 31 3 34
33 38 l32 4 -32 1 c-29 2 -33 5 -33 31 0 27 4 30 38 34 34 3 33 4 -10 5 l-48
2 0 -80z"/>
<path d="M1520 120 l0 -80 48 2 c43 1 44 2 10 5 l-38 4 0 75 c0 43 -4 74 -10
74 -6 0 -10 -33 -10 -80z"/>
<path d="M1640 120 l0 -80 48 1 47 2 -40 6 c-36 5 -40 9 -40 36 0 25 5 31 30
36 l30 7 -33 1 c-30 1 -33 4 -30 29 3 23 9 28 43 33 l40 6 -47 2 -48 1 0 -80z"/>
<path d="M1782 177 c-49 -52 -15 -142 51 -135 29 3 32 6 35 41 3 33 1 37 -20
36 -18 -1 -19 -2 -5 -6 26 -7 19 -57 -8 -61 -29 -4 -54 18 -61 55 -9 43 33 88
74 79 20 -5 23 -4 12 4 -25 16 -55 11 -78 -13z"/>
<path d="M1947 193 c-13 -23 -48 -145 -44 -150 4 -3 9 7 13 21 6 24 11 27 43
24 29 -2 37 -8 39 -26 2 -12 8 -22 14 -22 5 0 8 6 6 13 -3 6 -15 42 -27 80
-21 62 -33 79 -44 60z m29 -61 c6 -30 5 -32 -21 -32 -21 0 -26 4 -21 16 3 9 9
27 12 41 8 30 21 19 30 -25z"/>
<path d="M2052 118 l2 -83 5 70 6 70 38 -67 c21 -38 42 -68 47 -68 6 0 10 36
10 80 0 53 -4 80 -11 80 -8 0 -10 -20 -7 -65 3 -36 3 -65 -1 -65 -3 0 -22 29
-40 65 -19 36 -39 65 -43 65 -4 0 -7 -37 -6 -82z"/>
<path d="M2222 180 c-44 -42 -18 -140 37 -140 27 0 51 10 51 21 0 6 -9 5 -20
-1 -46 -24 -88 22 -75 82 8 33 37 52 67 42 14 -4 18 -2 14 5 -11 18 -50 13
-74 -9z"/>
<path d="M2350 120 l0 -80 43 2 42 1 -37 4 c-36 4 -38 6 -38 38 0 31 3 34 33
38 l32 4 -33 1 c-30 2 -33 5 -30 30 2 22 9 28 38 33 l35 6 -42 2 -43 1 0 -80z"/>
<path d="M2575 160 c8 -63 24 -120 34 -120 5 0 14 24 21 53 19 84 22 85 39 18
9 -36 21 -66 27 -68 10 -3 48 146 39 155 -6 6 -11 -11 -26 -83 l-12 -60 -9 35
c-5 19 -14 52 -19 73 -5 20 -13 37 -18 37 -5 0 -14 -28 -21 -62 -17 -83 -26
-90 -34 -29 -4 28 -11 61 -17 74 -7 17 -8 12 -4 -23z"/>
<path d="M2778 120 c-14 -44 -23 -80 -18 -80 4 0 11 11 14 25 5 20 12 25 40
25 28 0 35 -5 40 -25 4 -14 10 -25 15 -25 5 0 -3 36 -17 80 -14 44 -31 80 -37
80 -6 0 -23 -36 -37 -80z m62 -7 c0 -7 -11 -13 -25 -13 -28 0 -30 4 -13 51
l12 34 12 -30 c7 -17 13 -36 14 -42z"/>
<path d="M2900 120 l0 -80 48 2 c43 1 44 2 10 5 l-38 4 0 75 c0 43 -4 74 -10
74 -6 0 -10 -33 -10 -80z"/>
<path d="M3020 120 c0 -47 4 -80 10 -80 6 0 10 13 10 29 0 25 25 61 34 50 1
-2 13 -21 25 -42 13 -21 25 -36 28 -33 3 2 -7 25 -22 51 l-28 46 22 23 c11 12
21 26 21 32 0 5 -18 -11 -40 -36 l-39 -45 -1 43 c0 23 -4 42 -10 42 -6 0 -10
-33 -10 -80z"/>
<path d="M3201 190 c-1 -13 6 -49 24 -127 9 -38 22 -26 35 30 18 73 26 86 34
51 20 -81 28 -104 36 -104 5 0 14 26 20 58 6 31 14 68 17 81 4 15 2 22 -5 17
-5 -3 -13 -30 -17 -59 -10 -71 -20 -88 -29 -46 -13 69 -27 109 -35 105 -4 -3
-14 -33 -21 -66 -7 -33 -16 -60 -20 -60 -5 0 -11 24 -15 53 -7 52 -24 100 -24
67z"/>
<path d="M3400 120 c0 -47 4 -80 10 -80 6 0 10 33 10 80 0 47 -4 80 -10 80 -6
0 -10 -33 -10 -80z"/>
<path d="M3473 193 c27 -4 27 -5 27 -79 0 -43 4 -74 10 -74 6 0 10 31 10 74 0
69 2 75 23 79 12 2 -5 4 -38 4 -33 0 -48 -2 -32 -4z"/>
<path d="M3603 120 c0 -56 2 -72 6 -45 6 38 8 40 44 43 l37 3 0 -40 c0 -23 5
-41 10 -41 6 0 10 33 10 80 0 47 -4 80 -10 80 -5 0 -10 -16 -10 -35 0 -34 -1
-35 -39 -35 -39 0 -40 1 -44 38 -2 20 -4 -1 -4 -48z"/>
<path d="M3820 180 c-45 -45 -18 -140 40 -140 16 0 32 4 35 10 4 6 -5 7 -23 4
-23 -5 -33 -1 -46 17 -36 52 -2 128 51 114 16 -4 22 -2 18 5 -10 17 -54 11
-75 -10z"/>
<path d="M3950 180 c-43 -43 -16 -140 38 -140 33 0 45 8 61 37 17 33 13 67
-10 97 -25 31 -61 34 -89 6z m72 -7 c38 -34 15 -123 -32 -123 -45 0 -66 84
-30 120 24 24 38 25 62 3z"/>
<path d="M4102 118 l2 -83 5 70 6 70 38 -67 c21 -38 42 -68 47 -68 6 0 10 36
10 80 0 52 -4 80 -11 80 -8 0 -10 -21 -7 -65 2 -36 1 -65 -2 -65 -3 0 -21 29
-40 65 -19 36 -38 65 -42 65 -5 0 -7 -37 -6 -82z"/>
<path d="M4262 118 c1 -46 3 -66 5 -46 4 33 8 37 36 41 l32 4 -33 1 c-31 2
-33 4 -30 35 3 28 7 33 38 38 l35 6 -42 2 -43 1 2 -82z"/>
<path d="M4383 120 c0 -47 2 -66 4 -42 2 23 2 61 0 85 -2 23 -4 4 -4 -43z"/>
<path d="M4440 121 l0 -81 30 0 c40 0 80 39 80 78 0 41 -28 72 -72 79 l-38 6
0 -82z m68 53 c45 -32 17 -132 -35 -122 -14 2 -19 14 -21 57 -5 83 9 98 56 65z"/>
<path d="M4590 120 l0 -80 48 1 47 2 -40 6 c-36 5 -40 9 -40 36 0 25 5 31 30
36 l30 7 -33 1 c-30 1 -33 4 -30 29 3 23 9 28 43 33 l40 6 -47 2 -48 1 0 -80z"/>
<path d="M4722 118 l2 -83 5 69 6 70 28 -53 c16 -29 31 -50 34 -47 6 6 -54
113 -68 121 -5 4 -8 -27 -7 -77z"/>
<path d="M4809 135 c-1 -36 -2 -70 -3 -77 -1 -6 5 -13 12 -16 9 -3 12 17 12
77 0 97 -19 111 -21 16z"/>
<path d="M4891 181 c-25 -25 -28 -87 -5 -119 16 -23 67 -31 79 -12 4 6 -5 7
-23 4 -23 -5 -33 -1 -46 17 -22 32 -20 75 4 99 23 23 40 25 59 8 11 -11 13
-10 9 2 -7 24 -54 24 -77 1z"/>
<path d="M5010 120 l0 -80 48 2 c43 1 44 2 10 5 -36 4 -38 6 -38 38 0 31 3 34
33 38 l32 4 -32 1 c-29 2 -33 5 -33 31 0 27 4 30 38 34 34 3 33 4 -10 5 l-48
2 0 -80z"/>
<path d="M2474 44 c4 -9 1 -23 -5 -30 -10 -12 -9 -13 5 -8 18 7 22 54 5 54 -6
0 -8 -7 -5 -16z"/>
</g>
</svg>
