<svg viewBox="0 0 74 75" fill="none" xmlns="http://www.w3.org/2000/svg">
<path d="M62.7006 10.1448C62.3046 10.152 61.9064 10.2059 61.5093 10.3113C60.2852 10.6365 59.298 11.397 58.5551 12.4056C42.3348 17.6895 26.9551 22.5624 10.8806 27.7395C5.14071 29.588 1.54391 35.1341 3.21961 40.2825C4.89573 45.4307 11.0737 47.8381 16.8106 45.9592L16.8103 45.9595C32.6235 40.7814 47.8013 35.9816 63.8003 30.8334C63.8813 30.8641 63.9636 30.8898 64.0452 30.9173C63.6665 31.3415 63.4344 31.8995 63.4344 32.5129C63.4344 33.8374 64.5082 34.9111 65.8327 34.9111C67.1573 34.9111 68.2314 33.8372 68.2314 32.5129C68.2314 31.8885 67.9909 31.322 67.6002 30.8953C69.443 30.1922 70.6864 28.4576 71.2908 26.4296C71.948 24.2245 71.9418 21.5655 71.2064 18.8446C70.471 16.1233 69.1357 13.8192 67.4572 12.2378C66.1981 11.0517 64.6731 10.2447 63.096 10.1522C62.9645 10.1447 62.8327 10.1421 62.7006 10.1444V10.1448ZM62.7724 12.8446C62.8388 12.8437 62.9052 12.8454 62.9714 12.8497C63.776 12.9014 64.6795 13.3324 65.6048 14.204C66.8384 15.366 67.9809 17.263 68.5989 19.5496C69.1224 21.4863 69.177 23.3648 68.8897 24.8759H61.2609C60.7526 23.9788 60.3197 22.9461 60.0148 21.8179C59.3967 19.5311 59.43 17.3238 59.9113 15.7091C60.3926 14.0944 61.2297 13.1802 62.2028 12.9218C62.3887 12.8726 62.58 12.8466 62.7723 12.8444L62.7724 12.8446ZM57.2204 15.3079C56.669 17.4374 56.7122 19.9521 57.4068 22.5229C57.6232 23.326 57.9 24.1116 58.2347 24.873H36.3787C27.0702 27.8708 18.1886 30.7275 12.7695 32.4739C9.4106 33.5558 7.65989 36.435 8.37489 38.6299C9.08974 40.825 12.2168 42.1468 15.5653 41.0508C25.233 37.887 44.3285 31.7444 59.3326 26.9152C59.876 27.7545 60.4885 28.5003 61.1566 29.1299C61.1661 29.1385 61.1761 29.1469 61.1855 29.1559C46.0276 34.0342 26.258 40.3917 16.4053 43.6162C11.9499 45.0745 7.09405 43.4234 5.80484 39.4653C4.51562 35.5073 7.48183 31.3397 11.9385 29.9038C21.7745 26.7342 42.0299 20.2208 57.2204 15.3079ZM65.8316 41.3531C63.382 50.4955 59.977 49.2261 59.977 54.5778C59.977 57.8095 62.5997 60.4324 65.8316 60.4324C69.0633 60.4324 71.6861 57.8096 71.6861 54.5778C71.6861 48.8008 68.3249 50.6581 65.8316 41.3531Z" fill="#C94726"/>
</svg>
