<svg viewBox="0 0 24 27" fill="#00000" xmlns="http://www.w3.org/2000/svg">
    <path
        d="M20 26.8334C18.8889 26.8334 17.9444 26.4445 17.1667 25.6667C16.3889 24.889 16 23.9445 16 22.8334C16 22.6779 16.0111 22.5165 16.0333 22.3494C16.0556 22.1823 16.0889 22.0325 16.1333 21.9001L6.73333 16.4334C6.35556 16.7667 5.93333 17.0281 5.46667 17.2174C5 17.4067 4.51111 17.501 4 17.5001C2.88889 17.5001 1.94444 17.1112 1.16667 16.3334C0.388889 15.5556 0 14.6112 0 13.5001C0 12.389 0.388889 11.4445 1.16667 10.6667C1.94444 9.88897 2.88889 9.50008 4 9.50008C4.51111 9.50008 5 9.59475 5.46667 9.78408C5.93333 9.97341 6.35556 10.2343 6.73333 10.5667L16.1333 5.10008C16.0889 4.96675 16.0556 4.81697 16.0333 4.65075C16.0111 4.48453 16 4.32319 16 4.16675C16 3.05564 16.3889 2.11119 17.1667 1.33341C17.9444 0.555637 18.8889 0.166748 20 0.166748C21.1111 0.166748 22.0556 0.555637 22.8333 1.33341C23.6111 2.11119 24 3.05564 24 4.16675C24 5.27786 23.6111 6.2223 22.8333 7.00008C22.0556 7.77786 21.1111 8.16675 20 8.16675C19.4889 8.16675 19 8.07253 18.5333 7.88408C18.0667 7.69564 17.6444 7.4343 17.2667 7.10008L7.86667 12.5667C7.91111 12.7001 7.94445 12.8503 7.96667 13.0174C7.98889 13.1845 8 13.3454 8 13.5001C8 13.6556 7.98889 13.817 7.96667 13.9841C7.94445 14.1512 7.91111 14.301 7.86667 14.4334L17.2667 19.9001C17.6444 19.5667 18.0667 19.3059 18.5333 19.1174C19 18.929 19.4889 18.8343 20 18.8334C21.1111 18.8334 22.0556 19.2223 22.8333 20.0001C23.6111 20.7779 24 21.7223 24 22.8334C24 23.9445 23.6111 24.889 22.8333 25.6667C22.0556 26.4445 21.1111 26.8334 20 26.8334Z"
        fill="#000000" />
</svg>