<svg width="24" height="23" viewBox="0 0 24 23" fill="#C94726" xmlns="http://www.w3.org/2000/svg">
<path d="M11.9998 4.14624L10.9243 3.04074C8.39984 0.445743 3.77084 1.34124 2.09984 4.60374C1.31534 6.13824 1.13834 8.35374 2.57084 11.1812C3.95084 13.9037 6.82184 17.1647 11.9998 20.7167C17.1778 17.1647 20.0473 13.9037 21.4288 11.1812C22.8613 8.35224 22.6858 6.13824 21.8998 4.60374C20.2288 1.34124 15.5998 0.444243 13.0753 3.03924L11.9998 4.14624ZM11.9998 22.5242C-10.9997 7.32624 4.91834 -4.53576 11.7358 1.73874C11.8258 1.82124 11.9143 1.90674 11.9998 1.99524C12.0845 1.90682 12.1725 1.82176 12.2638 1.74024C19.0798 -4.53876 34.9993 7.32474 11.9998 22.5242Z" fill="#C94726"/>
</svg>
